# MagicaVoxel @ Ephtracy

# group
o 

# material
mtllib JAMBE-L.mtl
usemtl palette

# normals
vn -1 0 0
vn 1 0 0
vn 0 0 1
vn 0 0 -1
vn 0 -1 0
vn 0 1 0

# texcoords
vt 0.119141 0.5
vt 0.251953 0.5

# verts
v -0.4 0 0
v -0.4 0 -0.4
v -0.4 0 -0.5
v -0.4 0.1 0
v -0.4 0.1 -0.1
v -0.4 0.1 -0.4
v -0.4 0.1 -0.5
v -0.4 0.2 -0.3
v -0.4 0.2 -0.4
v -0.4 0.8 -0.1
v -0.4 0.8 -0.3
v -0.3 0 0.1
v -0.3 0 0
v -0.3 0 -0.5
v -0.3 0 -0.6
v -0.3 0.1 0.1
v -0.3 0.1 0
v -0.3 0.1 -0.1
v -0.3 0.1 -0.4
v -0.3 0.1 -0.5
v -0.3 0.1 -0.6
v -0.3 0.2 0
v -0.3 0.2 -0.1
v -0.3 0.2 -0.4
v -0.3 0.2 -0.5
v -0.2 0 0.1
v -0.2 0 0
v -0.2 0 -0.5
v -0.2 0 -0.6
v -0.2 0.1 0.1
v -0.2 0.1 0
v -0.2 0.1 -0.5
v -0.2 0.1 -0.6
v -0.2 0.2 0
v -0.2 0.2 -0.1
v -0.2 0.2 -0.3
v -0.2 0.2 -0.5
v -0.2 0.8 -0.1
v -0.2 0.8 -0.3
v -0.3 0 0.1
v -0.3 0.1 0.1
v -0.2 0 0.1
v -0.2 0.1 0.1
v -0.4 0 0
v -0.4 0.1 0
v -0.3 0 0
v -0.3 0.1 0
v -0.3 0.2 0
v -0.2 0.1 0
v -0.2 0.2 0
v -0.4 0.1 -0.1
v -0.4 0.8 -0.1
v -0.3 0.1 -0.1
v -0.3 0.2 -0.1
v -0.2 0.2 -0.1
v -0.2 0.8 -0.1
v -0.4 0.2 -0.3
v -0.4 0.8 -0.3
v -0.2 0.2 -0.3
v -0.2 0.8 -0.3
v -0.4 0.1 -0.4
v -0.4 0.2 -0.4
v -0.3 0.1 -0.4
v -0.3 0.2 -0.4
v -0.4 0 -0.5
v -0.4 0.1 -0.5
v -0.3 0 -0.5
v -0.3 0.1 -0.5
v -0.3 0.2 -0.5
v -0.2 0.1 -0.5
v -0.2 0.2 -0.5
v -0.3 0 -0.6
v -0.3 0.1 -0.6
v -0.2 0 -0.6
v -0.2 0.1 -0.6
v -0.3 0 0.1
v -0.2 0 0.1
v -0.4 0 0
v -0.3 0 0
v -0.2 0 0
v -0.4 0 -0.4
v -0.3 0 -0.4
v -0.4 0 -0.5
v -0.3 0 -0.5
v -0.2 0 -0.5
v -0.3 0 -0.6
v -0.2 0 -0.6
v -0.3 0.1 0.1
v -0.2 0.1 0.1
v -0.4 0.1 0
v -0.3 0.1 0
v -0.2 0.1 0
v -0.4 0.1 -0.1
v -0.3 0.1 -0.1
v -0.4 0.1 -0.4
v -0.3 0.1 -0.4
v -0.4 0.1 -0.5
v -0.3 0.1 -0.5
v -0.2 0.1 -0.5
v -0.3 0.1 -0.6
v -0.2 0.1 -0.6
v -0.3 0.2 0
v -0.2 0.2 0
v -0.3 0.2 -0.1
v -0.2 0.2 -0.1
v -0.4 0.2 -0.3
v -0.2 0.2 -0.3
v -0.4 0.2 -0.4
v -0.3 0.2 -0.4
v -0.3 0.2 -0.5
v -0.2 0.2 -0.5
v -0.4 0.8 -0.1
v -0.2 0.8 -0.1
v -0.4 0.8 -0.3
v -0.2 0.8 -0.3

# faces
f 4/2/1 2/2/1 1/2/1
f 5/2/1 2/2/1 4/2/1
f 6/1/1 3/1/1 2/1/1
f 6/2/1 2/2/1 5/2/1
f 7/1/1 3/1/1 6/1/1
f 8/2/1 6/2/1 5/2/1
f 9/2/1 6/2/1 8/2/1
f 10/2/1 8/2/1 5/2/1
f 11/2/1 8/2/1 10/2/1
f 16/1/1 13/1/1 12/1/1
f 17/1/1 13/1/1 16/1/1
f 20/1/1 15/1/1 14/1/1
f 21/1/1 15/1/1 20/1/1
f 22/2/1 18/2/1 17/2/1
f 23/2/1 18/2/1 22/2/1
f 24/2/1 20/2/1 19/2/1
f 25/2/1 20/2/1 24/2/1
f 26/1/2 27/1/2 30/1/2
f 27/2/2 28/2/2 31/2/2
f 30/1/2 27/1/2 31/1/2
f 28/1/2 29/1/2 32/1/2
f 31/2/2 28/2/2 32/2/2
f 32/1/2 29/1/2 33/1/2
f 31/2/2 32/2/2 34/2/2
f 34/2/2 32/2/2 35/2/2
f 35/2/2 32/2/2 36/2/2
f 36/2/2 32/2/2 37/2/2
f 35/2/2 36/2/2 38/2/2
f 38/2/2 36/2/2 39/2/2
f 42/1/3 41/1/3 40/1/3
f 43/1/3 41/1/3 42/1/3
f 46/2/3 45/2/3 44/2/3
f 47/2/3 45/2/3 46/2/3
f 49/2/3 48/2/3 47/2/3
f 50/2/3 48/2/3 49/2/3
f 53/2/3 52/2/3 51/2/3
f 54/2/3 52/2/3 53/2/3
f 55/2/3 52/2/3 54/2/3
f 56/2/3 52/2/3 55/2/3
f 57/2/4 58/2/4 59/2/4
f 59/2/4 58/2/4 60/2/4
f 61/2/4 62/2/4 63/2/4
f 63/2/4 62/2/4 64/2/4
f 65/1/4 66/1/4 67/1/4
f 67/1/4 66/1/4 68/1/4
f 68/2/4 69/2/4 70/2/4
f 70/2/4 69/2/4 71/2/4
f 72/1/4 73/1/4 74/1/4
f 74/1/4 73/1/4 75/1/4
f 79/1/5 77/1/5 76/1/5
f 80/1/5 77/1/5 79/1/5
f 81/2/5 79/2/5 78/2/5
f 81/2/5 80/2/5 79/2/5
f 82/2/5 80/2/5 81/2/5
f 83/1/5 82/1/5 81/1/5
f 84/2/5 80/2/5 82/2/5
f 84/1/5 82/1/5 83/1/5
f 85/2/5 80/2/5 84/2/5
f 86/1/5 85/1/5 84/1/5
f 87/1/5 85/1/5 86/1/5
f 88/1/6 89/1/6 91/1/6
f 91/1/6 89/1/6 92/1/6
f 90/2/6 91/2/6 93/2/6
f 93/2/6 91/2/6 94/2/6
f 95/1/6 96/1/6 97/1/6
f 97/1/6 96/1/6 98/1/6
f 98/1/6 99/1/6 100/1/6
f 100/1/6 99/1/6 101/1/6
f 102/2/6 103/2/6 104/2/6
f 104/2/6 103/2/6 105/2/6
f 106/2/6 107/2/6 108/2/6
f 108/2/6 107/2/6 109/2/6
f 109/2/6 107/2/6 110/2/6
f 110/2/6 107/2/6 111/2/6
f 112/2/6 113/2/6 114/2/6
f 114/2/6 113/2/6 115/2/6
