# MagicaVoxel @ Ephtracy

# group
o 

# material
mtllib tach2.mtl
usemtl palette

# normals
vn -1 0 0
vn 1 0 0
vn 0 0 1
vn 0 0 -1
vn 0 -1 0
vn 0 1 0

# texcoords
vt 0.0253906 0.5
vt 0.0605469 0.5
vt 0.0996094 0.5

# verts
v -0.6 0 -0.1
v -0.6 0 -0.2
v -0.6 0 -0.3
v -0.6 0 -0.4
v -0.6 0 -0.8
v -0.6 0 -0.9
v -0.6 0.1 -0.1
v -0.6 0.1 -0.2
v -0.6 0.1 -0.3
v -0.6 0.1 -0.4
v -0.6 0.1 -0.8
v -0.6 0.1 -0.9
v -0.5 0 0.6
v -0.5 0 0.5
v -0.5 0 0.4
v -0.5 0 0.3
v -0.5 0.1 0.6
v -0.5 0.1 0.5
v -0.5 0.1 0.4
v -0.5 0.1 0.3
v -0.4 0 0.8
v -0.4 0 0.6
v -0.4 0 0.3
v -0.4 0 0.2
v -0.4 0 -0.3
v -0.4 0 -0.4
v -0.4 0 -0.6
v -0.4 0 -0.7
v -0.4 0.1 0.8
v -0.4 0.1 0.6
v -0.4 0.1 0.3
v -0.4 0.1 0.2
v -0.4 0.1 -0.3
v -0.4 0.1 -0.4
v -0.4 0.1 -0.6
v -0.4 0.1 -0.7
v -0.3 0 0.1
v -0.3 0 0
v -0.3 0 -0.3
v -0.3 0 -0.7
v -0.3 0 -0.8
v -0.3 0.1 0.1
v -0.3 0.1 0
v -0.3 0.1 -0.3
v -0.3 0.1 -0.7
v -0.3 0.1 -0.8
v -0.2 0 0.3
v -0.2 0 0.2
v -0.2 0.1 0.3
v -0.2 0.1 0.2
v -0.1 0 -0.8
v -0.1 0 -0.9
v -0.1 0 -1
v -0.1 0.1 -0.8
v -0.1 0.1 -0.9
v -0.1 0.1 -1
v -0.5 0 -0.1
v -0.5 0 -0.2
v -0.5 0 -0.3
v -0.5 0 -0.4
v -0.5 0 -0.8
v -0.5 0 -0.9
v -0.5 0.1 -0.1
v -0.5 0.1 -0.2
v -0.5 0.1 -0.3
v -0.5 0.1 -0.4
v -0.5 0.1 -0.8
v -0.5 0.1 -0.9
v -0.3 0 0.8
v -0.3 0 0.6
v -0.3 0 0.5
v -0.3 0 0.4
v -0.3 0 0.3
v -0.3 0 0.2
v -0.3 0.1 0.8
v -0.3 0.1 0.6
v -0.3 0.1 0.5
v -0.3 0.1 0.4
v -0.3 0.1 0.3
v -0.3 0.1 0.2
v -0.2 0 0.5
v -0.2 0 0.4
v -0.2 0 0.1
v -0.2 0 0
v -0.2 0 -0.1
v -0.2 0 -0.7
v -0.2 0 -0.8
v -0.2 0.1 0.5
v -0.2 0.1 0.4
v -0.2 0.1 0.1
v -0.2 0.1 0
v -0.2 0.1 -0.1
v -0.2 0.1 -0.7
v -0.2 0.1 -0.8
v -0.1 0 0.3
v -0.1 0 0.2
v -0.1 0 -0.1
v -0.1 0 -0.2
v -0.1 0 -0.4
v -0.1 0 -0.6
v -0.1 0 -0.7
v -0.1 0.1 0.3
v -0.1 0.1 0.2
v -0.1 0.1 -0.1
v -0.1 0.1 -0.2
v -0.1 0.1 -0.4
v -0.1 0.1 -0.6
v -0.1 0.1 -0.7
v -5.96046e-008 0 -0.4
v -5.96046e-008 0 -0.5
v -5.96046e-008 0 -0.6
v -5.96046e-008 0 -0.8
v -5.96046e-008 0 -0.9
v -5.96046e-008 0 -1
v -5.96046e-008 0.1 -0.4
v -5.96046e-008 0.1 -0.5
v -5.96046e-008 0.1 -0.6
v -5.96046e-008 0.1 -0.8
v -5.96046e-008 0.1 -0.9
v -5.96046e-008 0.1 -1
v -0.4 0 0.8
v -0.4 0.1 0.8
v -0.3 0 0.8
v -0.3 0.1 0.8
v -0.5 0 0.6
v -0.5 0.1 0.6
v -0.4 0 0.6
v -0.4 0.1 0.6
v -0.3 0 0.5
v -0.3 0.1 0.5
v -0.2 0 0.5
v -0.2 0.1 0.5
v -0.2 0 0.3
v -0.2 0.1 0.3
v -0.1 0 0.3
v -0.1 0.1 0.3
v -0.3 0 0.1
v -0.3 0.1 0.1
v -0.2 0 0.1
v -0.2 0.1 0.1
v -0.6 0 -0.1
v -0.6 0.1 -0.1
v -0.5 0 -0.1
v -0.5 0.1 -0.1
v -0.2 0 -0.1
v -0.2 0.1 -0.1
v -0.1 0 -0.1
v -0.1 0.1 -0.1
v -0.4 0 -0.3
v -0.4 0.1 -0.3
v -0.3 0 -0.3
v -0.3 0.1 -0.3
v -0.1 0 -0.4
v -0.1 0.1 -0.4
v -5.96046e-008 0 -0.4
v -5.96046e-008 0.1 -0.4
v -0.6 0 -0.8
v -0.6 0.1 -0.8
v -0.5 0 -0.8
v -0.5 0.1 -0.8
v -0.1 0 -0.8
v -0.1 0.1 -0.8
v -5.96046e-008 0 -0.8
v -5.96046e-008 0.1 -0.8
v -0.3 0 0.4
v -0.3 0.1 0.4
v -0.2 0 0.4
v -0.2 0.1 0.4
v -0.5 0 0.3
v -0.5 0.1 0.3
v -0.4 0 0.3
v -0.4 0.1 0.3
v -0.4 0 0.2
v -0.4 0.1 0.2
v -0.3 0 0.2
v -0.3 0.1 0.2
v -0.2 0 0.2
v -0.2 0.1 0.2
v -0.1 0 0.2
v -0.1 0.1 0.2
v -0.6 0 -0.4
v -0.6 0.1 -0.4
v -0.5 0 -0.4
v -0.5 0.1 -0.4
v -0.1 0 -0.6
v -0.1 0.1 -0.6
v -5.96046e-008 0 -0.6
v -5.96046e-008 0.1 -0.6
v -0.4 0 -0.7
v -0.4 0.1 -0.7
v -0.3 0 -0.7
v -0.3 0.1 -0.7
v -0.2 0 -0.7
v -0.2 0.1 -0.7
v -0.1 0 -0.7
v -0.1 0.1 -0.7
v -0.3 0 -0.8
v -0.3 0.1 -0.8
v -0.2 0 -0.8
v -0.2 0.1 -0.8
v -0.6 0 -0.9
v -0.6 0.1 -0.9
v -0.5 0 -0.9
v -0.5 0.1 -0.9
v -0.1 0 -1
v -0.1 0.1 -1
v -5.96046e-008 0 -1
v -5.96046e-008 0.1 -1
v -0.4 0 0.8
v -0.3 0 0.8
v -0.5 0 0.6
v -0.4 0 0.6
v -0.3 0 0.6
v -0.5 0 0.5
v -0.4 0 0.5
v -0.3 0 0.5
v -0.2 0 0.5
v -0.5 0 0.4
v -0.4 0 0.4
v -0.3 0 0.4
v -0.2 0 0.4
v -0.5 0 0.3
v -0.4 0 0.3
v -0.3 0 0.3
v -0.2 0 0.3
v -0.1 0 0.3
v -0.4 0 0.2
v -0.3 0 0.2
v -0.2 0 0.2
v -0.1 0 0.2
v -0.3 0 0.1
v -0.2 0 0.1
v -0.3 0 0
v -0.2 0 0
v -0.6 0 -0.1
v -0.5 0 -0.1
v -0.2 0 -0.1
v -0.1 0 -0.1
v -0.6 0 -0.2
v -0.5 0 -0.2
v -0.2 0 -0.2
v -0.1 0 -0.2
v -0.6 0 -0.3
v -0.5 0 -0.3
v -0.4 0 -0.3
v -0.3 0 -0.3
v -0.2 0 -0.3
v -0.6 0 -0.4
v -0.5 0 -0.4
v -0.4 0 -0.4
v -0.3 0 -0.4
v -0.1 0 -0.4
v -5.96046e-008 0 -0.4
v -0.2 0 -0.5
v -0.1 0 -0.5
v -5.96046e-008 0 -0.5
v -0.4 0 -0.6
v -0.3 0 -0.6
v -0.2 0 -0.6
v -0.1 0 -0.6
v -5.96046e-008 0 -0.6
v -0.4 0 -0.7
v -0.3 0 -0.7
v -0.2 0 -0.7
v -0.1 0 -0.7
v -0.6 0 -0.8
v -0.5 0 -0.8
v -0.3 0 -0.8
v -0.2 0 -0.8
v -0.1 0 -0.8
v -5.96046e-008 0 -0.8
v -0.6 0 -0.9
v -0.5 0 -0.9
v -0.1 0 -0.9
v -5.96046e-008 0 -0.9
v -0.1 0 -1
v -5.96046e-008 0 -1
v -0.4 0.1 0.8
v -0.3 0.1 0.8
v -0.5 0.1 0.6
v -0.4 0.1 0.6
v -0.3 0.1 0.6
v -0.5 0.1 0.5
v -0.4 0.1 0.5
v -0.3 0.1 0.5
v -0.2 0.1 0.5
v -0.5 0.1 0.4
v -0.4 0.1 0.4
v -0.3 0.1 0.4
v -0.2 0.1 0.4
v -0.5 0.1 0.3
v -0.4 0.1 0.3
v -0.3 0.1 0.3
v -0.2 0.1 0.3
v -0.1 0.1 0.3
v -0.4 0.1 0.2
v -0.3 0.1 0.2
v -0.2 0.1 0.2
v -0.1 0.1 0.2
v -0.3 0.1 0.1
v -0.2 0.1 0.1
v -0.3 0.1 0
v -0.2 0.1 0
v -0.6 0.1 -0.1
v -0.5 0.1 -0.1
v -0.2 0.1 -0.1
v -0.1 0.1 -0.1
v -0.6 0.1 -0.2
v -0.5 0.1 -0.2
v -0.2 0.1 -0.2
v -0.1 0.1 -0.2
v -0.6 0.1 -0.3
v -0.5 0.1 -0.3
v -0.4 0.1 -0.3
v -0.3 0.1 -0.3
v -0.2 0.1 -0.3
v -0.6 0.1 -0.4
v -0.5 0.1 -0.4
v -0.4 0.1 -0.4
v -0.3 0.1 -0.4
v -0.1 0.1 -0.4
v -5.96046e-008 0.1 -0.4
v -0.2 0.1 -0.5
v -0.1 0.1 -0.5
v -5.96046e-008 0.1 -0.5
v -0.4 0.1 -0.6
v -0.3 0.1 -0.6
v -0.2 0.1 -0.6
v -0.1 0.1 -0.6
v -5.96046e-008 0.1 -0.6
v -0.4 0.1 -0.7
v -0.3 0.1 -0.7
v -0.2 0.1 -0.7
v -0.1 0.1 -0.7
v -0.6 0.1 -0.8
v -0.5 0.1 -0.8
v -0.3 0.1 -0.8
v -0.2 0.1 -0.8
v -0.1 0.1 -0.8
v -5.96046e-008 0.1 -0.8
v -0.6 0.1 -0.9
v -0.5 0.1 -0.9
v -0.1 0.1 -0.9
v -5.96046e-008 0.1 -0.9
v -0.1 0.1 -1
v -5.96046e-008 0.1 -1

# faces
f 7/1/1 2/1/1 1/1/1
f 8/2/1 3/2/1 2/2/1
f 8/1/1 2/1/1 7/1/1
f 9/3/1 4/3/1 3/3/1
f 9/2/1 3/2/1 8/2/1
f 10/3/1 4/3/1 9/3/1
f 11/2/1 6/2/1 5/2/1
f 12/2/1 6/2/1 11/2/1
f 17/1/1 14/1/1 13/1/1
f 18/2/1 15/2/1 14/2/1
f 18/1/1 14/1/1 17/1/1
f 19/3/1 16/3/1 15/3/1
f 19/2/1 15/2/1 18/2/1
f 20/3/1 16/3/1 19/3/1
f 29/1/1 22/1/1 21/1/1
f 30/1/1 22/1/1 29/1/1
f 31/2/1 24/2/1 23/2/1
f 32/2/1 24/2/1 31/2/1
f 33/1/1 26/1/1 25/1/1
f 34/2/1 27/2/1 26/2/1
f 34/1/1 26/1/1 33/1/1
f 35/3/1 28/3/1 27/3/1
f 35/2/1 27/2/1 34/2/1
f 36/3/1 28/3/1 35/3/1
f 42/1/1 38/1/1 37/1/1
f 43/2/1 39/2/1 38/2/1
f 43/1/1 38/1/1 42/1/1
f 44/2/1 39/2/1 43/2/1
f 45/2/1 41/2/1 40/2/1
f 46/2/1 41/2/1 45/2/1
f 49/1/1 48/1/1 47/1/1
f 50/1/1 48/1/1 49/1/1
f 54/1/1 52/1/1 51/1/1
f 55/2/1 53/2/1 52/2/1
f 55/1/1 52/1/1 54/1/1
f 56/2/1 53/2/1 55/2/1
f 57/1/2 58/1/2 63/1/2
f 58/2/2 59/2/2 64/2/2
f 63/1/2 58/1/2 64/1/2
f 59/3/2 60/3/2 65/3/2
f 64/2/2 59/2/2 65/2/2
f 65/3/2 60/3/2 66/3/2
f 61/2/2 62/2/2 67/2/2
f 67/2/2 62/2/2 68/2/2
f 69/1/2 70/1/2 75/1/2
f 70/2/2 71/2/2 76/2/2
f 75/1/2 70/1/2 76/1/2
f 76/2/2 71/2/2 77/2/2
f 72/3/2 73/3/2 78/3/2
f 73/2/2 74/2/2 79/2/2
f 78/3/2 73/3/2 79/3/2
f 79/2/2 74/2/2 80/2/2
f 81/2/2 82/2/2 88/2/2
f 88/2/2 82/2/2 89/2/2
f 83/1/2 84/1/2 90/1/2
f 84/2/2 85/2/2 91/2/2
f 90/1/2 84/1/2 91/1/2
f 91/2/2 85/2/2 92/2/2
f 86/2/2 87/2/2 93/2/2
f 93/2/2 87/2/2 94/2/2
f 95/1/2 96/1/2 102/1/2
f 102/1/2 96/1/2 103/1/2
f 97/1/2 98/1/2 104/1/2
f 98/2/2 99/2/2 105/2/2
f 104/1/2 98/1/2 105/1/2
f 105/2/2 99/2/2 106/2/2
f 100/2/2 101/2/2 107/2/2
f 107/2/2 101/2/2 108/2/2
f 109/1/2 110/1/2 115/1/2
f 110/2/2 111/2/2 116/2/2
f 115/1/2 110/1/2 116/1/2
f 116/2/2 111/2/2 117/2/2
f 112/1/2 113/1/2 118/1/2
f 113/2/2 114/2/2 119/2/2
f 118/1/2 113/1/2 119/1/2
f 119/2/2 114/2/2 120/2/2
f 123/1/3 122/1/3 121/1/3
f 124/1/3 122/1/3 123/1/3
f 127/1/3 126/1/3 125/1/3
f 128/1/3 126/1/3 127/1/3
f 131/2/3 130/2/3 129/2/3
f 132/2/3 130/2/3 131/2/3
f 135/1/3 134/1/3 133/1/3
f 136/1/3 134/1/3 135/1/3
f 139/1/3 138/1/3 137/1/3
f 140/1/3 138/1/3 139/1/3
f 143/1/3 142/1/3 141/1/3
f 144/1/3 142/1/3 143/1/3
f 147/1/3 146/1/3 145/1/3
f 148/1/3 146/1/3 147/1/3
f 151/1/3 150/1/3 149/1/3
f 152/1/3 150/1/3 151/1/3
f 155/1/3 154/1/3 153/1/3
f 156/1/3 154/1/3 155/1/3
f 159/2/3 158/2/3 157/2/3
f 160/2/3 158/2/3 159/2/3
f 163/1/3 162/1/3 161/1/3
f 164/1/3 162/1/3 163/1/3
f 165/2/4 166/2/4 167/2/4
f 167/2/4 166/2/4 168/2/4
f 169/3/4 170/3/4 171/3/4
f 171/3/4 170/3/4 172/3/4
f 173/2/4 174/2/4 175/2/4
f 175/2/4 174/2/4 176/2/4
f 177/1/4 178/1/4 179/1/4
f 179/1/4 178/1/4 180/1/4
f 181/3/4 182/3/4 183/3/4
f 183/3/4 182/3/4 184/3/4
f 185/2/4 186/2/4 187/2/4
f 187/2/4 186/2/4 188/2/4
f 189/3/4 190/3/4 191/3/4
f 191/3/4 190/3/4 192/3/4
f 193/2/4 194/2/4 195/2/4
f 195/2/4 194/2/4 196/2/4
f 197/2/4 198/2/4 199/2/4
f 199/2/4 198/2/4 200/2/4
f 201/2/4 202/2/4 203/2/4
f 203/2/4 202/2/4 204/2/4
f 205/2/4 206/2/4 207/2/4
f 207/2/4 206/2/4 208/2/4
f 212/1/5 210/1/5 209/1/5
f 213/1/5 210/1/5 212/1/5
f 214/1/5 212/1/5 211/1/5
f 215/2/5 213/2/5 212/2/5
f 215/1/5 212/1/5 214/1/5
f 216/2/5 213/2/5 215/2/5
f 218/2/5 215/2/5 214/2/5
f 219/3/5 216/3/5 215/3/5
f 219/2/5 215/2/5 218/2/5
f 220/2/5 217/2/5 216/2/5
f 220/3/5 216/3/5 219/3/5
f 221/2/5 217/2/5 220/2/5
f 222/3/5 219/3/5 218/3/5
f 222/3/5 220/3/5 219/3/5
f 223/3/5 220/3/5 222/3/5
f 224/3/5 220/3/5 223/3/5
f 227/2/5 224/2/5 223/2/5
f 228/2/5 224/2/5 227/2/5
f 229/1/5 226/1/5 225/1/5
f 230/1/5 226/1/5 229/1/5
f 233/1/5 232/1/5 231/1/5
f 234/1/5 232/1/5 233/1/5
f 237/2/5 234/2/5 233/2/5
f 239/1/5 236/1/5 235/1/5
f 240/1/5 236/1/5 239/1/5
f 241/1/5 238/1/5 237/1/5
f 241/2/5 237/2/5 233/2/5
f 242/1/5 238/1/5 241/1/5
f 243/2/5 240/2/5 239/2/5
f 244/2/5 240/2/5 243/2/5
f 246/2/5 241/2/5 233/2/5
f 246/2/5 242/2/5 241/2/5
f 247/2/5 242/2/5 246/2/5
f 248/3/5 244/3/5 243/3/5
f 249/3/5 244/3/5 248/3/5
f 250/1/5 246/1/5 245/1/5
f 251/3/5 247/3/5 246/3/5
f 251/1/5 246/1/5 250/1/5
f 252/2/5 242/2/5 247/2/5
f 254/2/5 252/2/5 247/2/5
f 254/3/5 247/3/5 251/3/5
f 255/1/5 253/1/5 252/1/5
f 255/2/5 252/2/5 254/2/5
f 256/1/5 253/1/5 255/1/5
f 257/2/5 251/2/5 250/2/5
f 258/3/5 254/3/5 251/3/5
f 258/2/5 251/2/5 257/2/5
f 258/3/5 255/3/5 254/3/5
f 259/3/5 255/3/5 258/3/5
f 260/2/5 256/2/5 255/2/5
f 260/3/5 255/3/5 259/3/5
f 261/2/5 256/2/5 260/2/5
f 262/3/5 259/3/5 258/3/5
f 262/3/5 258/3/5 257/3/5
f 263/3/5 259/3/5 262/3/5
f 264/2/5 260/2/5 259/2/5
f 264/3/5 259/3/5 263/3/5
f 265/2/5 260/2/5 264/2/5
f 268/2/5 264/2/5 263/2/5
f 269/2/5 264/2/5 268/2/5
f 272/2/5 267/2/5 266/2/5
f 273/2/5 267/2/5 272/2/5
f 274/1/5 271/1/5 270/1/5
f 275/1/5 271/1/5 274/1/5
f 276/2/5 275/2/5 274/2/5
f 277/2/5 275/2/5 276/2/5
f 278/1/6 279/1/6 281/1/6
f 281/1/6 279/1/6 282/1/6
f 280/1/6 281/1/6 283/1/6
f 281/2/6 282/2/6 284/2/6
f 283/1/6 281/1/6 284/1/6
f 284/2/6 282/2/6 285/2/6
f 283/2/6 284/2/6 287/2/6
f 284/3/6 285/3/6 288/3/6
f 287/2/6 284/2/6 288/2/6
f 285/2/6 286/2/6 289/2/6
f 288/3/6 285/3/6 289/3/6
f 289/2/6 286/2/6 290/2/6
f 287/3/6 288/3/6 291/3/6
f 288/3/6 289/3/6 291/3/6
f 291/3/6 289/3/6 292/3/6
f 292/3/6 289/3/6 293/3/6
f 292/2/6 293/2/6 296/2/6
f 296/2/6 293/2/6 297/2/6
f 294/1/6 295/1/6 298/1/6
f 298/1/6 295/1/6 299/1/6
f 300/1/6 301/1/6 302/1/6
f 302/1/6 301/1/6 303/1/6
f 302/2/6 303/2/6 306/2/6
f 304/1/6 305/1/6 308/1/6
f 308/1/6 305/1/6 309/1/6
f 306/1/6 307/1/6 310/1/6
f 302/2/6 306/2/6 310/2/6
f 310/1/6 307/1/6 311/1/6
f 308/2/6 309/2/6 312/2/6
f 312/2/6 309/2/6 313/2/6
f 302/2/6 310/2/6 315/2/6
f 310/2/6 311/2/6 315/2/6
f 315/2/6 311/2/6 316/2/6
f 312/3/6 313/3/6 317/3/6
f 317/3/6 313/3/6 318/3/6
f 314/1/6 315/1/6 319/1/6
f 315/3/6 316/3/6 320/3/6
f 319/1/6 315/1/6 320/1/6
f 316/2/6 311/2/6 321/2/6
f 316/2/6 321/2/6 323/2/6
f 320/3/6 316/3/6 323/3/6
f 321/1/6 322/1/6 324/1/6
f 323/2/6 321/2/6 324/2/6
f 324/1/6 322/1/6 325/1/6
f 319/2/6 320/2/6 326/2/6
f 320/3/6 323/3/6 327/3/6
f 326/2/6 320/2/6 327/2/6
f 323/3/6 324/3/6 327/3/6
f 327/3/6 324/3/6 328/3/6
f 324/2/6 325/2/6 329/2/6
f 328/3/6 324/3/6 329/3/6
f 329/2/6 325/2/6 330/2/6
f 327/3/6 328/3/6 331/3/6
f 326/3/6 327/3/6 331/3/6
f 331/3/6 328/3/6 332/3/6
f 328/2/6 329/2/6 333/2/6
f 332/3/6 328/3/6 333/3/6
f 333/2/6 329/2/6 334/2/6
f 332/2/6 333/2/6 337/2/6
f 337/2/6 333/2/6 338/2/6
f 335/2/6 336/2/6 341/2/6
f 341/2/6 336/2/6 342/2/6
f 339/1/6 340/1/6 343/1/6
f 343/1/6 340/1/6 344/1/6
f 343/2/6 344/2/6 345/2/6
f 345/2/6 344/2/6 346/2/6
