# MagicaVoxel @ Ephtracy

# group
o 

# material
mtllib fenetre1.mtl
usemtl palette

# normals
vn -1 0 0
vn 1 0 0
vn 0 0 1
vn 0 0 -1
vn 0 -1 0
vn 0 1 0

# texcoords
vt 0.552734 0.5
vt 0.947266 0.5

# verts
v -1.3 0.8 -1.9
v -1.3 0.8 -2
v -1.3 2.5 -1.9
v -1.3 2.5 -2
v -1.2 0.7 -1.9
v -1.2 0.7 -2
v -1.2 0.8 -1.8
v -1.2 0.8 -1.9
v -1.2 0.8 -2
v -1.2 2.5 -1.8
v -1.2 2.5 -1.9
v -1.2 2.5 -2
v -1.2 2.6 -1.9
v -1.2 2.6 -2
v -0.6 0.9 -1.8
v -0.6 0.9 -2
v -0.6 1.6 -1.8
v -0.6 1.6 -2
v -0.6 1.7 -1.8
v -0.6 1.7 -2
v -0.6 2.4 -1.8
v -0.6 2.4 -2
v -1.19209e-007 0.9 -1.8
v -1.19209e-007 0.9 -2
v -1.19209e-007 1.6 -1.8
v -1.19209e-007 1.6 -2
v -1.19209e-007 1.7 -1.8
v -1.19209e-007 1.7 -2
v -1.19209e-007 2.4 -1.8
v -1.19209e-007 2.4 -2
v -1.1 0.9 -1.8
v -1.1 0.9 -2
v -1.1 1.6 -1.8
v -1.1 1.6 -2
v -1.1 1.7 -1.8
v -1.1 1.7 -2
v -1.1 2.4 -1.8
v -1.1 2.4 -2
v -0.5 0.9 -1.8
v -0.5 0.9 -2
v -0.5 1.6 -1.8
v -0.5 1.6 -2
v -0.5 1.7 -1.8
v -0.5 1.7 -2
v -0.5 2.4 -1.8
v -0.5 2.4 -2
v 0.0999999 0.7 -1.9
v 0.0999999 0.7 -2
v 0.0999999 0.8 -1.8
v 0.0999999 0.8 -1.9
v 0.0999999 0.8 -2
v 0.0999999 2.5 -1.8
v 0.0999999 2.5 -1.9
v 0.0999999 2.5 -2
v 0.0999999 2.6 -1.9
v 0.0999999 2.6 -2
v 0.2 0.8 -1.9
v 0.2 0.8 -2
v 0.2 2.5 -1.9
v 0.2 2.5 -2
v -1.2 0.8 -1.8
v -1.2 2.5 -1.8
v -1.1 0.9 -1.8
v -1.1 1.6 -1.8
v -1.1 1.7 -1.8
v -1.1 2.4 -1.8
v -0.6 0.9 -1.8
v -0.6 1.6 -1.8
v -0.6 1.7 -1.8
v -0.6 2.4 -1.8
v -0.5 0.9 -1.8
v -0.5 1.6 -1.8
v -0.5 1.7 -1.8
v -0.5 2.4 -1.8
v -1.19209e-007 0.9 -1.8
v -1.19209e-007 1.6 -1.8
v -1.19209e-007 1.7 -1.8
v -1.19209e-007 2.4 -1.8
v 0.0999999 0.8 -1.8
v 0.0999999 2.5 -1.8
v -1.3 0.8 -1.9
v -1.3 2.5 -1.9
v -1.2 0.7 -1.9
v -1.2 0.8 -1.9
v -1.2 2.5 -1.9
v -1.2 2.6 -1.9
v 0.0999999 0.7 -1.9
v 0.0999999 0.8 -1.9
v 0.0999999 2.5 -1.9
v 0.0999999 2.6 -1.9
v 0.2 0.8 -1.9
v 0.2 2.5 -1.9
v -1.3 0.8 -2
v -1.3 2.5 -2
v -1.2 0.7 -2
v -1.2 0.8 -2
v -1.2 2.5 -2
v -1.2 2.6 -2
v -1.1 0.9 -2
v -1.1 1.6 -2
v -1.1 1.7 -2
v -1.1 2.4 -2
v -0.6 0.9 -2
v -0.6 1.6 -2
v -0.6 1.7 -2
v -0.6 2.4 -2
v -0.5 0.9 -2
v -0.5 1.6 -2
v -0.5 1.7 -2
v -0.5 2.4 -2
v -1.19209e-007 0.9 -2
v -1.19209e-007 1.6 -2
v -1.19209e-007 1.7 -2
v -1.19209e-007 2.4 -2
v 0.0999999 0.7 -2
v 0.0999999 0.8 -2
v 0.0999999 2.5 -2
v 0.0999999 2.6 -2
v 0.2 0.8 -2
v 0.2 2.5 -2
v -1.2 0.7 -1.9
v 0.0999999 0.7 -1.9
v -1.2 0.7 -2
v 0.0999999 0.7 -2
v -1.2 0.8 -1.8
v 0.0999999 0.8 -1.8
v -1.3 0.8 -1.9
v -1.2 0.8 -1.9
v 0.0999999 0.8 -1.9
v 0.2 0.8 -1.9
v -1.3 0.8 -2
v -1.2 0.8 -2
v 0.0999999 0.8 -2
v 0.2 0.8 -2
v -1.1 1.6 -1.8
v -0.6 1.6 -1.8
v -0.5 1.6 -1.8
v -1.19209e-007 1.6 -1.8
v -1.1 1.6 -2
v -0.6 1.6 -2
v -0.5 1.6 -2
v -1.19209e-007 1.6 -2
v -1.1 2.4 -1.8
v -0.6 2.4 -1.8
v -0.5 2.4 -1.8
v -1.19209e-007 2.4 -1.8
v -1.1 2.4 -2
v -0.6 2.4 -2
v -0.5 2.4 -2
v -1.19209e-007 2.4 -2
v -1.1 0.9 -1.8
v -0.6 0.9 -1.8
v -0.5 0.9 -1.8
v -1.19209e-007 0.9 -1.8
v -1.1 0.9 -2
v -0.6 0.9 -2
v -0.5 0.9 -2
v -1.19209e-007 0.9 -2
v -1.1 1.7 -1.8
v -0.6 1.7 -1.8
v -0.5 1.7 -1.8
v -1.19209e-007 1.7 -1.8
v -1.1 1.7 -2
v -0.6 1.7 -2
v -0.5 1.7 -2
v -1.19209e-007 1.7 -2
v -1.2 2.5 -1.8
v 0.0999999 2.5 -1.8
v -1.3 2.5 -1.9
v -1.2 2.5 -1.9
v 0.0999999 2.5 -1.9
v 0.2 2.5 -1.9
v -1.3 2.5 -2
v -1.2 2.5 -2
v 0.0999999 2.5 -2
v 0.2 2.5 -2
v -1.2 2.6 -1.9
v 0.0999999 2.6 -1.9
v -1.2 2.6 -2
v 0.0999999 2.6 -2

# faces
f 3/1/1 2/1/1 1/1/1
f 4/1/1 2/1/1 3/1/1
f 8/1/1 6/1/1 5/1/1
f 9/1/1 6/1/1 8/1/1
f 10/1/1 8/1/1 7/1/1
f 11/1/1 8/1/1 10/1/1
f 13/1/1 12/1/1 11/1/1
f 14/1/1 12/1/1 13/1/1
f 17/2/1 16/2/1 15/2/1
f 18/2/1 16/2/1 17/2/1
f 21/2/1 20/2/1 19/2/1
f 22/2/1 20/2/1 21/2/1
f 25/1/1 24/1/1 23/1/1
f 26/1/1 24/1/1 25/1/1
f 29/1/1 28/1/1 27/1/1
f 30/1/1 28/1/1 29/1/1
f 31/1/2 32/1/2 33/1/2
f 33/1/2 32/1/2 34/1/2
f 35/1/2 36/1/2 37/1/2
f 37/1/2 36/1/2 38/1/2
f 39/2/2 40/2/2 41/2/2
f 41/2/2 40/2/2 42/2/2
f 43/2/2 44/2/2 45/2/2
f 45/2/2 44/2/2 46/2/2
f 47/1/2 48/1/2 50/1/2
f 50/1/2 48/1/2 51/1/2
f 49/1/2 50/1/2 52/1/2
f 52/1/2 50/1/2 53/1/2
f 53/1/2 54/1/2 55/1/2
f 55/1/2 54/1/2 56/1/2
f 57/1/2 58/1/2 59/1/2
f 59/1/2 58/1/2 60/1/2
f 63/1/3 62/1/3 61/1/3
f 64/1/3 62/1/3 63/1/3
f 65/1/3 62/1/3 64/1/3
f 66/1/3 62/1/3 65/1/3
f 67/1/3 63/1/3 61/1/3
f 68/2/3 65/2/3 64/2/3
f 69/2/3 65/2/3 68/2/3
f 70/1/3 62/1/3 66/1/3
f 71/2/3 69/2/3 68/2/3
f 71/2/3 70/2/3 69/2/3
f 71/1/3 67/1/3 61/1/3
f 71/2/3 68/2/3 67/2/3
f 72/2/3 70/2/3 71/2/3
f 73/2/3 70/2/3 72/2/3
f 74/1/3 62/1/3 70/1/3
f 74/2/3 70/2/3 73/2/3
f 75/1/3 71/1/3 61/1/3
f 76/2/3 73/2/3 72/2/3
f 77/2/3 73/2/3 76/2/3
f 78/1/3 62/1/3 74/1/3
f 79/1/3 75/1/3 61/1/3
f 79/1/3 78/1/3 77/1/3
f 79/1/3 77/1/3 76/1/3
f 79/1/3 76/1/3 75/1/3
f 80/1/3 62/1/3 78/1/3
f 80/1/3 78/1/3 79/1/3
f 84/1/3 82/1/3 81/1/3
f 85/1/3 82/1/3 84/1/3
f 87/1/3 84/1/3 83/1/3
f 88/1/3 84/1/3 87/1/3
f 89/1/3 86/1/3 85/1/3
f 90/1/3 86/1/3 89/1/3
f 91/1/3 89/1/3 88/1/3
f 92/1/3 89/1/3 91/1/3
f 93/1/4 94/1/4 96/1/4
f 96/1/4 94/1/4 97/1/4
f 95/1/4 96/1/4 99/1/4
f 97/1/4 98/1/4 99/1/4
f 96/1/4 97/1/4 99/1/4
f 99/1/4 98/1/4 100/1/4
f 100/1/4 98/1/4 101/1/4
f 101/1/4 98/1/4 102/1/4
f 95/1/4 99/1/4 103/1/4
f 100/2/4 101/2/4 104/2/4
f 104/2/4 101/2/4 105/2/4
f 102/1/4 98/1/4 106/1/4
f 104/2/4 105/2/4 107/2/4
f 105/2/4 106/2/4 107/2/4
f 95/1/4 103/1/4 107/1/4
f 103/2/4 104/2/4 107/2/4
f 107/2/4 106/2/4 108/2/4
f 108/2/4 106/2/4 109/2/4
f 106/1/4 98/1/4 110/1/4
f 109/2/4 106/2/4 110/2/4
f 95/1/4 107/1/4 111/1/4
f 108/2/4 109/2/4 112/2/4
f 112/2/4 109/2/4 113/2/4
f 110/1/4 98/1/4 114/1/4
f 95/1/4 111/1/4 115/1/4
f 113/1/4 114/1/4 115/1/4
f 112/1/4 113/1/4 115/1/4
f 111/1/4 112/1/4 115/1/4
f 115/1/4 114/1/4 116/1/4
f 114/1/4 98/1/4 117/1/4
f 116/1/4 114/1/4 117/1/4
f 117/1/4 98/1/4 118/1/4
f 116/1/4 117/1/4 119/1/4
f 119/1/4 117/1/4 120/1/4
f 123/1/5 122/1/5 121/1/5
f 124/1/5 122/1/5 123/1/5
f 128/1/5 126/1/5 125/1/5
f 129/1/5 126/1/5 128/1/5
f 131/1/5 128/1/5 127/1/5
f 132/1/5 128/1/5 131/1/5
f 133/1/5 130/1/5 129/1/5
f 134/1/5 130/1/5 133/1/5
f 139/2/5 136/2/5 135/2/5
f 140/2/5 136/2/5 139/2/5
f 141/2/5 138/2/5 137/2/5
f 142/2/5 138/2/5 141/2/5
f 147/1/5 144/1/5 143/1/5
f 148/1/5 144/1/5 147/1/5
f 149/1/5 146/1/5 145/1/5
f 150/1/5 146/1/5 149/1/5
f 151/1/6 152/1/6 155/1/6
f 155/1/6 152/1/6 156/1/6
f 153/1/6 154/1/6 157/1/6
f 157/1/6 154/1/6 158/1/6
f 159/2/6 160/2/6 163/2/6
f 163/2/6 160/2/6 164/2/6
f 161/2/6 162/2/6 165/2/6
f 165/2/6 162/2/6 166/2/6
f 167/1/6 168/1/6 170/1/6
f 170/1/6 168/1/6 171/1/6
f 169/1/6 170/1/6 173/1/6
f 173/1/6 170/1/6 174/1/6
f 171/1/6 172/1/6 175/1/6
f 175/1/6 172/1/6 176/1/6
f 177/1/6 178/1/6 179/1/6
f 179/1/6 178/1/6 180/1/6
