# MagicaVoxel @ Ephtracy

# group
o 

# material
mtllib MAQUETTE-0.mtl
usemtl palette

# normals
vn -1 0 0
vn 1 0 0
vn 0 0 1
vn 0 0 -1
vn 0 -1 0
vn 0 1 0

# texcoords
vt 0.197266 0.5
vt 0.607422 0.5
vt 0.978516 0.5
vt 0.982422 0.5

# verts
v -1.5 -0.1 -4
v -1.5 -0.1 -4.1
v -1.5 0 -4
v -1.5 0 -4.1
v -1.4 -0.1 -4.1
v -1.4 -0.1 -4.2
v -1.4 0 -4.1
v -1.4 0 -4.2
v -1.3 0 -4
v -1.3 0 -4.1
v -1.3 0.1 -4
v -1.3 0.1 -4.1
v -1.2 -0.1 -4.2
v -1.2 -0.1 -4.3
v -1.2 0 -4.1
v -1.2 0 -4.2
v -1.2 0 -4.3
v -1.2 0.1 -4.1
v -1.2 0.1 -4.2
v -1.1 -0.1 -4.3
v -1.1 -0.1 -4.5
v -1.1 0 -4.2
v -1.1 0 -4.3
v -1.1 0 -4.5
v -1.1 0.1 -4
v -1.1 0.1 -4.2
v -1.1 0.1 -4.3
v -1.1 0.2 -4
v -1.1 0.2 -4.2
v -1 0 -4.3
v -1 0 -4.4
v -1 0.1 -4.2
v -1 0.1 -4.3
v -1 0.1 -4.4
v -1 0.2 -4.2
v -1 0.2 -4.3
v -0.9 -0.1 -4.4
v -0.9 -0.1 -4.5
v -0.9 0 -4.4
v -0.9 0 -4.5
v -0.9 0.1 -4.4
v -0.9 0.1 -4.5
v -0.8 0 -4.3
v -0.8 0 -4.4
v -0.8 0 -4.5
v -0.8 0 -4.6
v -0.8 0.1 -4.3
v -0.8 0.1 -4.4
v -0.8 0.1 -4.5
v -0.8 0.1 -4.6
v -0.7 -0.1 -4.4
v -0.7 -0.1 -4.5
v -0.7 0 -4.4
v -0.7 0 -4.5
v -0.7 0 -4.6
v -0.7 0 -4.8
v -0.7 0.1 -4.6
v -0.7 0.1 -4.8
v -0.6 -0.1 -4.5
v -0.6 -0.1 -4.6
v -0.6 0 -4.5
v -0.6 0 -4.6
v -0.5 0 -4.4
v -0.5 0 -4.5
v -0.5 0.1 -4.4
v -0.5 0.1 -4.5
v -0.4 -0.1 -4.5
v -0.4 -0.1 -4.6
v -0.4 0 -4.5
v -0.4 0 -4.6
v -0.4 0 -4.8
v -0.4 0.1 -4.6
v -0.4 0.1 -4.8
v -0.2 0 -4.7
v -0.2 0 -4.8
v -0.2 0.1 -4.7
v -0.2 0.1 -4.8
v 0.1 -0.1 -4.5
v 0.1 -0.1 -4.6
v 0.1 0 -4.5
v 0.1 0 -4.6
v 0.1 0 -4.7
v 0.1 0.1 -4.6
v 0.1 0.1 -4.7
v 0.3 0 -4.7
v 0.3 0 -4.8
v 0.3 0.1 -4.7
v 0.3 0.1 -4.8
v 0.4 0 -4.4
v 0.4 0 -4.5
v 0.4 0.1 -4.4
v 0.4 0.1 -4.5
v 0.5 -0.1 -4.5
v 0.5 -0.1 -4.6
v 0.5 0 -4.5
v 0.5 0 -4.6
v 0.5 0 -4.8
v 0.5 0.1 -4.6
v 0.5 0.1 -4.8
v 0.7 0.1 -4
v 0.7 0.1 -4.2
v 0.7 0.2 -4
v 0.7 0.2 -4.2
v 0.8 -0.1 -4.4
v 0.8 -0.1 -4.5
v 0.8 0 -4.2
v 0.8 0 -4.3
v 0.8 0 -4.4
v 0.8 0 -4.5
v 0.8 0.1 -4.2
v 0.8 0.1 -4.3
v 0.8 0.2 -4.2
v 0.8 0.2 -4.3
v -1 -0.1 -4.4
v -1 -0.1 -4.5
v -1 0 -4.4
v -1 0 -4.5
v -0.9 0 -4.3
v -0.9 0 -4.4
v -0.9 0.1 -4
v -0.9 0.1 -4.3
v -0.9 0.1 -4.4
v -0.9 0.2 -4
v -0.9 0.2 -4.3
v -0.8 -0.1 -4.4
v -0.8 -0.1 -4.5
v -0.8 0 -4.4
v -0.8 0 -4.5
v -0.6 0 -4.4
v -0.6 0 -4.5
v -0.6 0 -4.7
v -0.6 0 -4.8
v -0.6 0.1 -4.4
v -0.6 0.1 -4.5
v -0.6 0.1 -4.7
v -0.6 0.1 -4.8
v -0.5 -0.1 -4.5
v -0.5 -0.1 -4.6
v -0.5 0 -4.5
v -0.5 0 -4.6
v -0.5 0 -4.7
v -0.5 0.1 -4.6
v -0.5 0.1 -4.7
v -0.3 0 -4.7
v -0.3 0 -4.8
v -0.3 0.1 -4.7
v -0.3 0.1 -4.8
v -0.1 -0.1 -4.5
v -0.1 -0.1 -4.6
v -0.1 0 -4.5
v -0.1 0 -4.6
v 0 0 -4.6
v 0 0 -4.7
v 0 0.1 -4.6
v 0 0.1 -4.7
v 0.1 0 -4.7
v 0.1 0 -4.8
v 0.1 0.1 -4.7
v 0.1 0.1 -4.8
v 0.3 -0.1 -4.5
v 0.3 -0.1 -4.6
v 0.3 0 -4.4
v 0.3 0 -4.5
v 0.3 0 -4.6
v 0.3 0.1 -4.4
v 0.3 0.1 -4.5
v 0.4 0 -4.6
v 0.4 0 -4.8
v 0.4 0.1 -4.6
v 0.4 0.1 -4.8
v 0.6 -0.1 -4.5
v 0.6 -0.1 -4.6
v 0.6 0 -4.5
v 0.6 0 -4.6
v 0.6 0 -4.7
v 0.6 0 -4.8
v 0.6 0.1 -4.5
v 0.6 0.1 -4.6
v 0.6 0.1 -4.7
v 0.6 0.1 -4.8
v 0.7 -0.1 -4.4
v 0.7 -0.1 -4.5
v 0.7 0 -4.2
v 0.7 0 -4.3
v 0.7 0 -4.4
v 0.7 0 -4.5
v 0.7 0 -4.6
v 0.7 0 -4.7
v 0.7 0.1 -4.2
v 0.7 0.1 -4.3
v 0.7 0.1 -4.4
v 0.7 0.1 -4.5
v 0.7 0.1 -4.6
v 0.7 0.1 -4.7
v 0.8 0.1 -4.1
v 0.8 0.1 -4.2
v 0.8 0.2 -4.1
v 0.8 0.2 -4.2
v 0.9 -0.1 -4.4
v 0.9 -0.1 -4.5
v 0.9 0 -4.2
v 0.9 0 -4.4
v 0.9 0 -4.5
v 0.9 0.1 -4
v 0.9 0.1 -4.1
v 0.9 0.1 -4.2
v 0.9 0.1 -4.3
v 0.9 0.1 -4.4
v 0.9 0.2 -4
v 0.9 0.2 -4.1
v 0.9 0.2 -4.2
v 0.9 0.2 -4.3
v 1 0 -4.1
v 1 0 -4.2
v 1 0.1 -4.1
v 1 0.1 -4.2
v 1.1 -0.1 -4.2
v 1.1 -0.1 -4.4
v 1.1 0 -4.2
v 1.1 0 -4.4
v 1.2 -0.1 -4.1
v 1.2 -0.1 -4.2
v 1.2 0 -4
v 1.2 0 -4.1
v 1.2 0 -4.2
v 1.2 0.1 -4
v 1.2 0.1 -4.1
v 1.3 -0.1 -4
v 1.3 -0.1 -4.1
v 1.3 0 -4
v 1.3 0 -4.1
v -1.5 -0.1 -4
v -1.5 0 -4
v -1.3 0 -4
v -1.3 0.1 -4
v -1.1 0 -4
v -1.1 0.1 -4
v -1.1 0.2 -4
v -0.9 0.1 -4
v -0.9 0.2 -4
v 0.7 0.1 -4
v 0.7 0.2 -4
v 0.9 0 -4
v 0.9 0.1 -4
v 0.9 0.2 -4
v 1.2 0 -4
v 1.2 0.1 -4
v 1.3 -0.1 -4
v 1.3 0 -4
v 0.8 0.1 -4.2
v 0.8 0.2 -4.2
v 0.9 0.1 -4.2
v 0.9 0.2 -4.2
v 0.7 0 -4.3
v 0.7 0.1 -4.3
v 0.8 0 -4.3
v 0.8 0.1 -4.3
v -0.9 0 -4.4
v -0.9 0.1 -4.4
v -0.8 0 -4.4
v -0.8 0.1 -4.4
v -0.6 0 -4.5
v -0.6 0.1 -4.5
v -0.5 0 -4.5
v -0.5 0.1 -4.5
v 0.3 0 -4.5
v 0.3 0.1 -4.5
v 0.4 0 -4.5
v 0.4 0.1 -4.5
v 0.6 0 -4.6
v 0.6 0.1 -4.6
v 0.7 0 -4.6
v 0.7 0.1 -4.6
v 0 0 -4.7
v 0 0.1 -4.7
v 0.1 0 -4.7
v 0.1 0.1 -4.7
v -1.5 -0.1 -4.1
v -1.5 0 -4.1
v -1.4 -0.1 -4.1
v -1.4 0 -4.1
v -1.3 0 -4.1
v -1.3 0.1 -4.1
v -1.2 0 -4.1
v -1.2 0.1 -4.1
v 0.8 0.1 -4.1
v 0.8 0.2 -4.1
v 0.9 0.1 -4.1
v 0.9 0.2 -4.1
v 1 0 -4.1
v 1 0.1 -4.1
v 1.2 -0.1 -4.1
v 1.2 0 -4.1
v 1.2 0.1 -4.1
v 1.3 -0.1 -4.1
v 1.3 0 -4.1
v -1.4 -0.1 -4.2
v -1.4 0 -4.2
v -1.2 -0.1 -4.2
v -1.2 0 -4.2
v -1.2 0.1 -4.2
v -1.1 0 -4.2
v -1.1 0.1 -4.2
v -1.1 0.2 -4.2
v -1 0.1 -4.2
v -1 0.2 -4.2
v 0.7 0 -4.2
v 0.7 0.1 -4.2
v 0.7 0.2 -4.2
v 0.8 0 -4.2
v 0.8 0.1 -4.2
v 0.8 0.2 -4.2
v 0.9 0 -4.2
v 0.9 0.1 -4.2
v 1 0 -4.2
v 1 0.1 -4.2
v 1.1 -0.1 -4.2
v 1.1 0 -4.2
v 1.2 -0.1 -4.2
v 1.2 0 -4.2
v -1.2 -0.1 -4.3
v -1.2 0 -4.3
v -1.1 -0.1 -4.3
v -1.1 0 -4.3
v -1.1 0.1 -4.3
v -1 0 -4.3
v -1 0.1 -4.3
v -1 0.2 -4.3
v -0.9 0 -4.3
v -0.9 0.1 -4.3
v -0.9 0.2 -4.3
v -0.8 0 -4.3
v -0.8 0.1 -4.3
v 0.8 0.1 -4.3
v 0.8 0.2 -4.3
v 0.9 0.1 -4.3
v 0.9 0.2 -4.3
v -1 -0.1 -4.4
v -1 0 -4.4
v -1 0.1 -4.4
v -0.9 -0.1 -4.4
v -0.9 0 -4.4
v -0.9 0.1 -4.4
v -0.8 -0.1 -4.4
v -0.8 0 -4.4
v -0.7 -0.1 -4.4
v -0.7 0 -4.4
v -0.6 0 -4.4
v -0.6 0.1 -4.4
v -0.5 0 -4.4
v -0.5 0.1 -4.4
v 0.3 0 -4.4
v 0.3 0.1 -4.4
v 0.4 0 -4.4
v 0.4 0.1 -4.4
v 0.7 -0.1 -4.4
v 0.7 0 -4.4
v 0.7 0.1 -4.4
v 0.8 -0.1 -4.4
v 0.8 0 -4.4
v 0.8 0.1 -4.4
v 0.9 -0.1 -4.4
v 0.9 0 -4.4
v 0.9 0.1 -4.4
v 1.1 -0.1 -4.4
v 1.1 0 -4.4
v -1.1 -0.1 -4.5
v -1.1 0 -4.5
v -1 -0.1 -4.5
v -1 0 -4.5
v -0.9 -0.1 -4.5
v -0.9 0 -4.5
v -0.9 0.1 -4.5
v -0.8 -0.1 -4.5
v -0.8 0 -4.5
v -0.8 0.1 -4.5
v -0.7 -0.1 -4.5
v -0.7 0 -4.5
v -0.6 -0.1 -4.5
v -0.6 0 -4.5
v -0.5 -0.1 -4.5
v -0.5 0 -4.5
v -0.4 -0.1 -4.5
v -0.4 0 -4.5
v -0.1 -0.1 -4.5
v -0.1 0 -4.5
v 0.1 -0.1 -4.5
v 0.1 0 -4.5
v 0.3 -0.1 -4.5
v 0.3 0 -4.5
v 0.5 -0.1 -4.5
v 0.5 0 -4.5
v 0.6 -0.1 -4.5
v 0.6 0 -4.5
v 0.6 0.1 -4.5
v 0.7 -0.1 -4.5
v 0.7 0 -4.5
v 0.7 0.1 -4.5
v 0.8 -0.1 -4.5
v 0.8 0 -4.5
v 0.9 -0.1 -4.5
v 0.9 0 -4.5
v -0.8 0 -4.6
v -0.8 0.1 -4.6
v -0.7 0 -4.6
v -0.7 0.1 -4.6
v -0.6 -0.1 -4.6
v -0.6 0 -4.6
v -0.5 -0.1 -4.6
v -0.5 0 -4.6
v -0.5 0.1 -4.6
v -0.4 -0.1 -4.6
v -0.4 0 -4.6
v -0.4 0.1 -4.6
v -0.1 -0.1 -4.6
v -0.1 0 -4.6
v 0 0 -4.6
v 0 0.1 -4.6
v 0.1 -0.1 -4.6
v 0.1 0 -4.6
v 0.1 0.1 -4.6
v 0.3 -0.1 -4.6
v 0.3 0 -4.6
v 0.4 0 -4.6
v 0.4 0.1 -4.6
v 0.5 -0.1 -4.6
v 0.5 0 -4.6
v 0.5 0.1 -4.6
v 0.6 -0.1 -4.6
v 0.6 0 -4.6
v -0.6 0 -4.7
v -0.6 0.1 -4.7
v -0.5 0 -4.7
v -0.5 0.1 -4.7
v -0.3 0 -4.7
v -0.3 0.1 -4.7
v -0.2 0 -4.7
v -0.2 0.1 -4.7
v 0.1 0 -4.7
v 0.1 0.1 -4.7
v 0.3 0 -4.7
v 0.3 0.1 -4.7
v 0.6 0 -4.7
v 0.6 0.1 -4.7
v 0.7 0 -4.7
v 0.7 0.1 -4.7
v -0.7 0 -4.8
v -0.7 0.1 -4.8
v -0.6 0 -4.8
v -0.6 0.1 -4.8
v -0.4 0 -4.8
v -0.4 0.1 -4.8
v -0.3 0 -4.8
v -0.3 0.1 -4.8
v -0.2 0 -4.8
v -0.2 0.1 -4.8
v 0.1 0 -4.8
v 0.1 0.1 -4.8
v 0.3 0 -4.8
v 0.3 0.1 -4.8
v 0.4 0 -4.8
v 0.4 0.1 -4.8
v 0.5 0 -4.8
v 0.5 0.1 -4.8
v 0.6 0 -4.8
v 0.6 0.1 -4.8
v -1.5 -0.1 -4
v 1.3 -0.1 -4
v -1.5 -0.1 -4.1
v -1.4 -0.1 -4.1
v 1.2 -0.1 -4.1
v 1.3 -0.1 -4.1
v -1.4 -0.1 -4.2
v -1.2 -0.1 -4.2
v 1.1 -0.1 -4.2
v 1.2 -0.1 -4.2
v -1.2 -0.1 -4.3
v -1.1 -0.1 -4.3
v -1 -0.1 -4.4
v -0.9 -0.1 -4.4
v -0.8 -0.1 -4.4
v -0.7 -0.1 -4.4
v 0.7 -0.1 -4.4
v 0.8 -0.1 -4.4
v 0.9 -0.1 -4.4
v 1.1 -0.1 -4.4
v -1.1 -0.1 -4.5
v -1 -0.1 -4.5
v -0.9 -0.1 -4.5
v -0.8 -0.1 -4.5
v -0.7 -0.1 -4.5
v -0.6 -0.1 -4.5
v -0.5 -0.1 -4.5
v -0.4 -0.1 -4.5
v -0.1 -0.1 -4.5
v 0.1 -0.1 -4.5
v 0.3 -0.1 -4.5
v 0.5 -0.1 -4.5
v 0.6 -0.1 -4.5
v 0.7 -0.1 -4.5
v 0.8 -0.1 -4.5
v 0.9 -0.1 -4.5
v -0.6 -0.1 -4.6
v -0.5 -0.1 -4.6
v -0.4 -0.1 -4.6
v -0.1 -0.1 -4.6
v 0.1 -0.1 -4.6
v 0.3 -0.1 -4.6
v 0.5 -0.1 -4.6
v 0.6 -0.1 -4.6
v -0.8 0 -4.4
v -0.7 0 -4.4
v -0.8 0 -4.5
v -0.7 0 -4.5
v -0.6 0 -4.5
v -0.5 0 -4.5
v -0.4 0 -4.5
v -0.1 0 -4.5
v 0.1 0 -4.5
v 0.3 0 -4.5
v 0.5 0 -4.5
v -0.8 0 -4.6
v -0.7 0 -4.6
v -0.6 0 -4.6
v -0.5 0 -4.6
v -0.4 0 -4.6
v -0.1 0 -4.6
v 0 0 -4.6
v 0.1 0 -4.6
v 0.3 0 -4.6
v 0.4 0 -4.6
v 0.5 0 -4.6
v 0.6 0 -4.6
v 0.7 0 -4.6
v -0.6 0 -4.7
v -0.5 0 -4.7
v -0.3 0 -4.7
v -0.2 0 -4.7
v 0 0 -4.7
v 0.1 0 -4.7
v 0.3 0 -4.7
v 0.6 0 -4.7
v 0.7 0 -4.7
v -0.7 0 -4.8
v -0.6 0 -4.8
v -0.4 0 -4.8
v -0.3 0 -4.8
v -0.2 0 -4.8
v 0.1 0 -4.8
v 0.3 0 -4.8
v 0.4 0 -4.8
v 0.5 0 -4.8
v 0.6 0 -4.8
v -1.5 0 -4
v -1.3 0 -4
v 1.2 0 -4
v 1.3 0 -4
v -1.5 0 -4.1
v -1.4 0 -4.1
v -1.3 0 -4.1
v -1.2 0 -4.1
v 1 0 -4.1
v 1.2 0 -4.1
v 1.3 0 -4.1
v -1.4 0 -4.2
v -1.2 0 -4.2
v -1.1 0 -4.2
v 0.7 0 -4.2
v 0.8 0 -4.2
v 0.9 0 -4.2
v 1 0 -4.2
v 1.1 0 -4.2
v 1.2 0 -4.2
v -1.2 0 -4.3
v -1.1 0 -4.3
v -1 0 -4.3
v -0.9 0 -4.3
v -0.8 0 -4.3
v 0.7 0 -4.3
v 0.8 0 -4.3
v -1 0 -4.4
v -0.9 0 -4.4
v -0.8 0 -4.4
v -0.6 0 -4.4
v -0.5 0 -4.4
v 0.3 0 -4.4
v 0.4 0 -4.4
v 0.8 0 -4.4
v 0.9 0 -4.4
v 1.1 0 -4.4
v -1.1 0 -4.5
v -1 0 -4.5
v -0.6 0 -4.5
v -0.5 0 -4.5
v 0.3 0 -4.5
v 0.4 0 -4.5
v 0.8 0 -4.5
v 0.9 0 -4.5
v -1.3 0.1 -4
v -1.1 0.1 -4
v -0.9 0.1 -4
v 0.7 0.1 -4
v 0.9 0.1 -4
v 1.2 0.1 -4
v -1.3 0.1 -4.1
v -1.2 0.1 -4.1
v 0.8 0.1 -4.1
v 0.9 0.1 -4.1
v 1 0.1 -4.1
v 1.2 0.1 -4.1
v -1.2 0.1 -4.2
v -1.1 0.1 -4.2
v -1 0.1 -4.2
v 0.7 0.1 -4.2
v 0.8 0.1 -4.2
v 0.9 0.1 -4.2
v 1 0.1 -4.2
v -1.1 0.1 -4.3
v -1 0.1 -4.3
v -0.9 0.1 -4.3
v -0.8 0.1 -4.3
v 0.7 0.1 -4.3
v 0.8 0.1 -4.3
v 0.9 0.1 -4.3
v -1 0.1 -4.4
v -0.9 0.1 -4.4
v -0.8 0.1 -4.4
v -0.6 0.1 -4.4
v -0.5 0.1 -4.4
v 0.3 0.1 -4.4
v 0.4 0.1 -4.4
v 0.7 0.1 -4.4
v 0.8 0.1 -4.4
v 0.9 0.1 -4.4
v -0.9 0.1 -4.5
v -0.8 0.1 -4.5
v -0.6 0.1 -4.5
v -0.5 0.1 -4.5
v 0.3 0.1 -4.5
v 0.4 0.1 -4.5
v 0.6 0.1 -4.5
v 0.7 0.1 -4.5
v -0.8 0.1 -4.6
v -0.7 0.1 -4.6
v -0.5 0.1 -4.6
v -0.4 0.1 -4.6
v 0 0.1 -4.6
v 0.1 0.1 -4.6
v 0.4 0.1 -4.6
v 0.5 0.1 -4.6
v 0.6 0.1 -4.6
v 0.7 0.1 -4.6
v -0.6 0.1 -4.7
v -0.5 0.1 -4.7
v -0.3 0.1 -4.7
v -0.2 0.1 -4.7
v 0 0.1 -4.7
v 0.1 0.1 -4.7
v 0.3 0.1 -4.7
v 0.6 0.1 -4.7
v 0.7 0.1 -4.7
v -0.7 0.1 -4.8
v -0.6 0.1 -4.8
v -0.4 0.1 -4.8
v -0.3 0.1 -4.8
v -0.2 0.1 -4.8
v 0.1 0.1 -4.8
v 0.3 0.1 -4.8
v 0.4 0.1 -4.8
v 0.5 0.1 -4.8
v 0.6 0.1 -4.8
v -1.1 0.2 -4
v -0.9 0.2 -4
v 0.7 0.2 -4
v 0.9 0.2 -4
v 0.8 0.2 -4.1
v 0.9 0.2 -4.1
v -1.1 0.2 -4.2
v -1 0.2 -4.2
v 0.7 0.2 -4.2
v 0.8 0.2 -4.2
v 0.9 0.2 -4.2
v -1 0.2 -4.3
v -0.9 0.2 -4.3
v 0.8 0.2 -4.3
v 0.9 0.2 -4.3

# faces
f 3/1/1 2/1/1 1/1/1
f 4/1/1 2/1/1 3/1/1
f 7/1/1 6/1/1 5/1/1
f 8/1/1 6/1/1 7/1/1
f 11/2/1 10/2/1 9/2/1
f 12/2/1 10/2/1 11/2/1
f 16/1/1 14/1/1 13/1/1
f 17/1/1 14/1/1 16/1/1
f 18/2/1 16/2/1 15/2/1
f 19/2/1 16/2/1 18/2/1
f 23/1/1 21/1/1 20/1/1
f 24/1/1 21/1/1 23/1/1
f 26/2/1 23/2/1 22/2/1
f 27/2/1 23/2/1 26/2/1
f 28/4/1 26/4/1 25/4/1
f 29/4/1 26/4/1 28/4/1
f 33/2/1 31/2/1 30/2/1
f 34/2/1 31/2/1 33/2/1
f 35/4/1 33/4/1 32/4/1
f 36/4/1 33/4/1 35/4/1
f 39/1/1 38/1/1 37/1/1
f 40/1/1 38/1/1 39/1/1
f 41/3/1 40/3/1 39/3/1
f 42/3/1 40/3/1 41/3/1
f 47/3/1 44/3/1 43/3/1
f 48/3/1 44/3/1 47/3/1
f 49/3/1 46/3/1 45/3/1
f 50/3/1 46/3/1 49/3/1
f 53/1/1 52/1/1 51/1/1
f 54/1/1 52/1/1 53/1/1
f 57/3/1 56/3/1 55/3/1
f 58/3/1 56/3/1 57/3/1
f 61/1/1 60/1/1 59/1/1
f 62/1/1 60/1/1 61/1/1
f 65/3/1 64/3/1 63/3/1
f 66/3/1 64/3/1 65/3/1
f 69/1/1 68/1/1 67/1/1
f 70/1/1 68/1/1 69/1/1
f 72/3/1 71/3/1 70/3/1
f 73/3/1 71/3/1 72/3/1
f 76/3/1 75/3/1 74/3/1
f 77/3/1 75/3/1 76/3/1
f 80/1/1 79/1/1 78/1/1
f 81/1/1 79/1/1 80/1/1
f 83/3/1 82/3/1 81/3/1
f 84/3/1 82/3/1 83/3/1
f 87/3/1 86/3/1 85/3/1
f 88/3/1 86/3/1 87/3/1
f 91/3/1 90/3/1 89/3/1
f 92/3/1 90/3/1 91/3/1
f 95/1/1 94/1/1 93/1/1
f 96/1/1 94/1/1 95/1/1
f 98/3/1 97/3/1 96/3/1
f 99/3/1 97/3/1 98/3/1
f 102/4/1 101/4/1 100/4/1
f 103/4/1 101/4/1 102/4/1
f 108/1/1 105/1/1 104/1/1
f 109/1/1 105/1/1 108/1/1
f 110/2/1 107/2/1 106/2/1
f 111/2/1 107/2/1 110/2/1
f 112/4/1 111/4/1 110/4/1
f 113/4/1 111/4/1 112/4/1
f 114/1/2 115/1/2 116/1/2
f 116/1/2 115/1/2 117/1/2
f 118/2/2 119/2/2 121/2/2
f 121/2/2 119/2/2 122/2/2
f 120/4/2 121/4/2 123/4/2
f 123/4/2 121/4/2 124/4/2
f 125/1/2 126/1/2 127/1/2
f 127/1/2 126/1/2 128/1/2
f 129/3/2 130/3/2 133/3/2
f 133/3/2 130/3/2 134/3/2
f 131/3/2 132/3/2 135/3/2
f 135/3/2 132/3/2 136/3/2
f 137/1/2 138/1/2 139/1/2
f 139/1/2 138/1/2 140/1/2
f 140/3/2 141/3/2 142/3/2
f 142/3/2 141/3/2 143/3/2
f 144/3/2 145/3/2 146/3/2
f 146/3/2 145/3/2 147/3/2
f 148/1/2 149/1/2 150/1/2
f 150/1/2 149/1/2 151/1/2
f 152/3/2 153/3/2 154/3/2
f 154/3/2 153/3/2 155/3/2
f 156/3/2 157/3/2 158/3/2
f 158/3/2 157/3/2 159/3/2
f 160/1/2 161/1/2 163/1/2
f 163/1/2 161/1/2 164/1/2
f 162/3/2 163/3/2 165/3/2
f 165/3/2 163/3/2 166/3/2
f 167/3/2 168/3/2 169/3/2
f 169/3/2 168/3/2 170/3/2
f 171/1/2 172/1/2 173/1/2
f 173/1/2 172/1/2 174/1/2
f 173/3/2 174/3/2 177/3/2
f 177/3/2 174/3/2 178/3/2
f 175/3/2 176/3/2 179/3/2
f 179/3/2 176/3/2 180/3/2
f 181/1/2 182/1/2 185/1/2
f 185/1/2 182/1/2 186/1/2
f 183/3/2 184/3/2 189/3/2
f 189/3/2 184/3/2 190/3/2
f 185/3/2 186/3/2 191/3/2
f 191/3/2 186/3/2 192/3/2
f 187/3/2 188/3/2 193/3/2
f 193/3/2 188/3/2 194/3/2
f 195/4/2 196/4/2 197/4/2
f 197/4/2 196/4/2 198/4/2
f 199/1/2 200/1/2 202/1/2
f 202/1/2 200/1/2 203/1/2
f 201/2/2 202/2/2 206/2/2
f 206/2/2 202/2/2 207/2/2
f 207/2/2 202/2/2 208/2/2
f 204/4/2 205/4/2 209/4/2
f 209/4/2 205/4/2 210/4/2
f 206/4/2 207/4/2 211/4/2
f 211/4/2 207/4/2 212/4/2
f 213/2/2 214/2/2 215/2/2
f 215/2/2 214/2/2 216/2/2
f 217/1/2 218/1/2 219/1/2
f 219/1/2 218/1/2 220/1/2
f 221/1/2 222/1/2 224/1/2
f 224/1/2 222/1/2 225/1/2
f 223/2/2 224/2/2 226/2/2
f 226/2/2 224/2/2 227/2/2
f 228/1/2 229/1/2 230/1/2
f 230/1/2 229/1/2 231/1/2
f 234/1/3 233/1/3 232/1/3
f 236/1/3 234/1/3 232/1/3
f 236/2/3 235/2/3 234/2/3
f 237/2/3 235/2/3 236/2/3
f 239/3/3 237/3/3 236/3/3
f 239/4/3 238/4/3 237/4/3
f 240/4/3 238/4/3 239/4/3
f 241/3/3 239/3/3 236/3/3
f 243/1/3 236/1/3 232/1/3
f 243/3/3 241/3/3 236/3/3
f 244/4/3 242/4/3 241/4/3
f 244/3/3 241/3/3 243/3/3
f 245/4/3 242/4/3 244/4/3
f 246/1/3 243/1/3 232/1/3
f 246/2/3 244/2/3 243/2/3
f 247/2/3 244/2/3 246/2/3
f 248/1/3 246/1/3 232/1/3
f 249/1/3 246/1/3 248/1/3
f 252/4/3 251/4/3 250/4/3
f 253/4/3 251/4/3 252/4/3
f 256/3/3 255/3/3 254/3/3
f 257/3/3 255/3/3 256/3/3
f 260/3/3 259/3/3 258/3/3
f 261/3/3 259/3/3 260/3/3
f 264/3/3 263/3/3 262/3/3
f 265/3/3 263/3/3 264/3/3
f 268/3/3 267/3/3 266/3/3
f 269/3/3 267/3/3 268/3/3
f 272/3/3 271/3/3 270/3/3
f 273/3/3 271/3/3 272/3/3
f 276/3/3 275/3/3 274/3/3
f 277/3/3 275/3/3 276/3/3
f 278/1/4 279/1/4 280/1/4
f 280/1/4 279/1/4 281/1/4
f 282/2/4 283/2/4 284/2/4
f 284/2/4 283/2/4 285/2/4
f 286/4/4 287/4/4 288/4/4
f 288/4/4 287/4/4 289/4/4
f 290/2/4 291/2/4 293/2/4
f 293/2/4 291/2/4 294/2/4
f 292/1/4 293/1/4 295/1/4
f 295/1/4 293/1/4 296/1/4
f 297/1/4 298/1/4 299/1/4
f 299/1/4 298/1/4 300/1/4
f 300/2/4 301/2/4 302/2/4
f 302/2/4 301/2/4 303/2/4
f 303/4/4 304/4/4 305/4/4
f 305/4/4 304/4/4 306/4/4
f 307/3/4 308/3/4 310/3/4
f 308/4/4 309/4/4 311/4/4
f 310/3/4 308/3/4 311/3/4
f 311/4/4 309/4/4 312/4/4
f 313/2/4 314/2/4 315/2/4
f 315/2/4 314/2/4 316/2/4
f 317/1/4 318/1/4 319/1/4
f 319/1/4 318/1/4 320/1/4
f 321/1/4 322/1/4 323/1/4
f 323/1/4 322/1/4 324/1/4
f 324/2/4 325/2/4 326/2/4
f 326/2/4 325/2/4 327/2/4
f 327/4/4 328/4/4 330/4/4
f 330/4/4 328/4/4 331/4/4
f 329/3/4 330/3/4 332/3/4
f 332/3/4 330/3/4 333/3/4
f 334/4/4 335/4/4 336/4/4
f 336/4/4 335/4/4 337/4/4
f 338/1/4 339/1/4 341/1/4
f 339/2/4 340/2/4 342/2/4
f 341/1/4 339/1/4 342/1/4
f 342/2/4 340/2/4 343/2/4
f 344/1/4 345/1/4 346/1/4
f 346/1/4 345/1/4 347/1/4
f 348/3/4 349/3/4 350/3/4
f 350/3/4 349/3/4 351/3/4
f 352/3/4 353/3/4 354/3/4
f 354/3/4 353/3/4 355/3/4
f 356/1/4 357/1/4 359/1/4
f 357/3/4 358/3/4 360/3/4
f 359/1/4 357/1/4 360/1/4
f 360/3/4 358/3/4 361/3/4
f 360/2/4 361/2/4 363/2/4
f 363/2/4 361/2/4 364/2/4
f 362/1/4 363/1/4 365/1/4
f 365/1/4 363/1/4 366/1/4
f 367/1/4 368/1/4 369/1/4
f 369/1/4 368/1/4 370/1/4
f 371/1/4 372/1/4 374/1/4
f 372/3/4 373/3/4 375/3/4
f 374/1/4 372/1/4 375/1/4
f 375/3/4 373/3/4 376/3/4
f 377/1/4 378/1/4 379/1/4
f 379/1/4 378/1/4 380/1/4
f 381/1/4 382/1/4 383/1/4
f 383/1/4 382/1/4 384/1/4
f 385/1/4 386/1/4 387/1/4
f 387/1/4 386/1/4 388/1/4
f 389/1/4 390/1/4 391/1/4
f 391/1/4 390/1/4 392/1/4
f 393/1/4 394/1/4 396/1/4
f 394/3/4 395/3/4 397/3/4
f 396/1/4 394/1/4 397/1/4
f 397/3/4 395/3/4 398/3/4
f 399/1/4 400/1/4 401/1/4
f 401/1/4 400/1/4 402/1/4
f 403/3/4 404/3/4 405/3/4
f 405/3/4 404/3/4 406/3/4
f 407/1/4 408/1/4 409/1/4
f 409/1/4 408/1/4 410/1/4
f 410/3/4 411/3/4 413/3/4
f 413/3/4 411/3/4 414/3/4
f 412/1/4 413/1/4 415/1/4
f 415/1/4 413/1/4 416/1/4
f 417/3/4 418/3/4 420/3/4
f 420/3/4 418/3/4 421/3/4
f 419/1/4 420/1/4 422/1/4
f 422/1/4 420/1/4 423/1/4
f 424/3/4 425/3/4 427/3/4
f 427/3/4 425/3/4 428/3/4
f 426/1/4 427/1/4 429/1/4
f 429/1/4 427/1/4 430/1/4
f 431/3/4 432/3/4 433/3/4
f 433/3/4 432/3/4 434/3/4
f 435/3/4 436/3/4 437/3/4
f 437/3/4 436/3/4 438/3/4
f 439/3/4 440/3/4 441/3/4
f 441/3/4 440/3/4 442/3/4
f 443/3/4 444/3/4 445/3/4
f 445/3/4 444/3/4 446/3/4
f 447/3/4 448/3/4 449/3/4
f 449/3/4 448/3/4 450/3/4
f 451/3/4 452/3/4 453/3/4
f 453/3/4 452/3/4 454/3/4
f 455/3/4 456/3/4 457/3/4
f 457/3/4 456/3/4 458/3/4
f 459/3/4 460/3/4 461/3/4
f 461/3/4 460/3/4 462/3/4
f 463/3/4 464/3/4 465/3/4
f 465/3/4 464/3/4 466/3/4
f 469/1/5 468/1/5 467/1/5
f 470/1/5 468/1/5 469/1/5
f 471/1/5 468/1/5 470/1/5
f 472/1/5 468/1/5 471/1/5
f 473/1/5 471/1/5 470/1/5
f 474/1/5 471/1/5 473/1/5
f 475/1/5 471/1/5 474/1/5
f 476/1/5 471/1/5 475/1/5
f 477/1/5 475/1/5 474/1/5
f 478/1/5 475/1/5 477/1/5
f 479/1/5 475/1/5 478/1/5
f 480/1/5 475/1/5 479/1/5
f 481/1/5 475/1/5 480/1/5
f 482/1/5 475/1/5 481/1/5
f 483/1/5 475/1/5 482/1/5
f 484/1/5 475/1/5 483/1/5
f 485/1/5 475/1/5 484/1/5
f 486/1/5 475/1/5 485/1/5
f 487/1/5 479/1/5 478/1/5
f 488/1/5 479/1/5 487/1/5
f 489/1/5 481/1/5 480/1/5
f 490/1/5 481/1/5 489/1/5
f 491/1/5 483/1/5 482/1/5
f 492/1/5 483/1/5 491/1/5
f 493/1/5 483/1/5 492/1/5
f 494/1/5 483/1/5 493/1/5
f 495/1/5 483/1/5 494/1/5
f 496/1/5 483/1/5 495/1/5
f 497/1/5 483/1/5 496/1/5
f 498/1/5 483/1/5 497/1/5
f 499/1/5 483/1/5 498/1/5
f 500/1/5 483/1/5 499/1/5
f 501/1/5 485/1/5 484/1/5
f 502/1/5 485/1/5 501/1/5
f 503/1/5 493/1/5 492/1/5
f 504/1/5 493/1/5 503/1/5
f 505/1/5 495/1/5 494/1/5
f 506/1/5 495/1/5 505/1/5
f 507/1/5 497/1/5 496/1/5
f 508/1/5 497/1/5 507/1/5
f 509/1/5 499/1/5 498/1/5
f 510/1/5 499/1/5 509/1/5
f 513/3/5 512/3/5 511/3/5
f 514/3/5 512/3/5 513/3/5
f 522/3/5 514/3/5 513/3/5
f 522/3/5 515/3/5 514/3/5
f 523/3/5 515/3/5 522/3/5
f 524/3/5 515/3/5 523/3/5
f 525/3/5 517/3/5 516/3/5
f 526/3/5 517/3/5 525/3/5
f 527/3/5 519/3/5 518/3/5
f 528/3/5 519/3/5 527/3/5
f 529/3/5 519/3/5 528/3/5
f 530/3/5 521/3/5 520/3/5
f 531/3/5 521/3/5 530/3/5
f 532/3/5 521/3/5 531/3/5
f 535/3/5 524/3/5 523/3/5
f 535/3/5 525/3/5 524/3/5
f 536/3/5 525/3/5 535/3/5
f 537/3/5 527/3/5 526/3/5
f 537/3/5 528/3/5 527/3/5
f 538/3/5 528/3/5 537/3/5
f 539/3/5 528/3/5 538/3/5
f 540/3/5 531/3/5 530/3/5
f 540/3/5 530/3/5 529/3/5
f 541/3/5 531/3/5 540/3/5
f 542/3/5 534/3/5 533/3/5
f 542/3/5 533/3/5 532/3/5
f 543/3/5 534/3/5 542/3/5
f 544/3/5 535/3/5 523/3/5
f 545/3/5 535/3/5 544/3/5
f 546/3/5 537/3/5 526/3/5
f 547/3/5 537/3/5 546/3/5
f 548/3/5 539/3/5 538/3/5
f 548/3/5 540/3/5 539/3/5
f 549/3/5 540/3/5 548/3/5
f 550/3/5 531/3/5 541/3/5
f 551/3/5 531/3/5 550/3/5
f 552/3/5 542/3/5 532/3/5
f 553/3/5 542/3/5 552/3/5
f 554/1/6 555/1/6 558/1/6
f 558/1/6 555/1/6 559/1/6
f 559/1/6 555/1/6 560/1/6
f 556/1/6 557/1/6 563/1/6
f 563/1/6 557/1/6 564/1/6
f 560/1/6 561/1/6 565/1/6
f 559/1/6 560/1/6 565/1/6
f 565/1/6 561/1/6 566/1/6
f 562/1/6 563/1/6 571/1/6
f 571/1/6 563/1/6 572/1/6
f 572/1/6 563/1/6 573/1/6
f 566/1/6 567/1/6 574/1/6
f 574/1/6 567/1/6 575/1/6
f 568/1/6 569/1/6 579/1/6
f 579/1/6 569/1/6 580/1/6
f 575/1/6 576/1/6 581/1/6
f 577/1/6 578/1/6 582/1/6
f 582/1/6 578/1/6 583/1/6
f 571/1/6 572/1/6 589/1/6
f 570/1/6 571/1/6 589/1/6
f 589/1/6 572/1/6 590/1/6
f 575/1/6 581/1/6 591/1/6
f 591/1/6 581/1/6 592/1/6
f 584/1/6 585/1/6 593/1/6
f 593/1/6 585/1/6 594/1/6
f 586/1/6 587/1/6 595/1/6
f 595/1/6 587/1/6 596/1/6
f 588/1/6 589/1/6 597/1/6
f 597/1/6 589/1/6 598/1/6
f 599/2/6 600/2/6 605/2/6
f 605/2/6 600/2/6 606/2/6
f 603/2/6 604/2/6 608/2/6
f 608/2/6 604/2/6 609/2/6
f 609/2/6 604/2/6 610/2/6
f 606/2/6 600/2/6 611/2/6
f 611/2/6 600/2/6 612/2/6
f 601/3/6 602/3/6 614/3/6
f 608/2/6 609/2/6 615/2/6
f 607/2/6 608/2/6 615/2/6
f 615/2/6 609/2/6 616/2/6
f 616/2/6 609/2/6 617/2/6
f 612/2/6 613/2/6 618/2/6
f 618/2/6 613/2/6 619/2/6
f 601/3/6 614/3/6 620/3/6
f 620/3/6 614/3/6 621/3/6
f 621/3/6 614/3/6 622/3/6
f 619/2/6 620/2/6 625/2/6
f 625/2/6 620/2/6 626/2/6
f 622/3/6 623/3/6 627/3/6
f 621/3/6 622/3/6 627/3/6
f 627/3/6 623/3/6 628/3/6
f 628/3/6 623/3/6 629/3/6
f 629/3/6 623/3/6 630/3/6
f 630/3/6 623/3/6 631/3/6
f 631/3/6 623/3/6 632/3/6
f 623/2/6 624/2/6 633/2/6
f 632/3/6 623/3/6 633/3/6
f 633/2/6 624/2/6 634/2/6
f 626/3/6 627/3/6 635/3/6
f 627/3/6 628/3/6 635/3/6
f 635/3/6 628/3/6 636/3/6
f 636/3/6 628/3/6 637/3/6
f 629/3/6 630/3/6 638/3/6
f 638/3/6 630/3/6 639/3/6
f 631/3/6 632/3/6 640/3/6
f 640/3/6 632/3/6 641/3/6
f 641/3/6 632/3/6 642/3/6
f 638/3/6 639/3/6 643/3/6
f 636/3/6 637/3/6 643/3/6
f 640/3/6 641/3/6 643/3/6
f 639/3/6 640/3/6 643/3/6
f 637/3/6 638/3/6 643/3/6
f 643/3/6 641/3/6 644/3/6
f 644/3/6 641/3/6 645/3/6
f 645/3/6 641/3/6 646/3/6
f 646/3/6 641/3/6 647/3/6
f 647/3/6 641/3/6 648/3/6
f 648/3/6 641/3/6 649/3/6
f 649/3/6 641/3/6 650/3/6
f 650/3/6 641/3/6 651/3/6
f 644/3/6 645/3/6 653/3/6
f 653/3/6 645/3/6 654/3/6
f 646/3/6 647/3/6 655/3/6
f 655/3/6 647/3/6 656/3/6
f 656/3/6 647/3/6 657/3/6
f 648/3/6 649/3/6 658/3/6
f 658/3/6 649/3/6 659/3/6
f 651/3/6 652/3/6 660/3/6
f 650/3/6 651/3/6 660/3/6
f 660/3/6 652/3/6 661/3/6
f 644/3/6 653/3/6 662/3/6
f 662/3/6 653/3/6 663/3/6
f 646/3/6 655/3/6 664/3/6
f 664/3/6 655/3/6 665/3/6
f 656/3/6 657/3/6 666/3/6
f 657/3/6 658/3/6 666/3/6
f 666/3/6 658/3/6 667/3/6
f 659/3/6 649/3/6 668/3/6
f 668/3/6 649/3/6 669/3/6
f 650/3/6 660/3/6 670/3/6
f 670/3/6 660/3/6 671/3/6
f 674/4/6 675/4/6 676/4/6
f 676/4/6 675/4/6 677/4/6
f 672/4/6 673/4/6 678/4/6
f 678/4/6 673/4/6 679/4/6
f 674/4/6 676/4/6 680/4/6
f 680/4/6 676/4/6 681/4/6
f 679/4/6 673/4/6 683/4/6
f 683/4/6 673/4/6 684/4/6
f 681/4/6 682/4/6 685/4/6
f 685/4/6 682/4/6 686/4/6
