# MagicaVoxel @ Ephtracy

# group
o 

# material
mtllib MAQUETTE-2.mtl
usemtl palette

# normals
vn 1 0 0
vn -1 0 0
vn 0 0 -1
vn 0 0 1
vn 0 -1 0
vn 0 1 0

# texcoords
vt 0.416016 0.5
vt 0.607422 0.5
vt 0.978516 0.5
vt 0.982422 0.5
vt 0.986328 0.5

# verts
v 1.5 0 3.2
v 1.5 0 3.8
v 1.5 0.4 3.2
v 1.5 0.4 3.3
v 1.5 0.4 3.7
v 1.5 0.4 3.8
v 1.5 0.5 3.3
v 1.5 0.5 3.7
v 1.4 0.4 3.2
v 1.4 0.4 3.3
v 1.4 0.4 3.7
v 1.4 0.4 3.8
v 1.4 0.5 3.2
v 1.4 0.5 3.3
v 1.4 0.5 3.7
v 1.4 0.5 3.8
v 1.4 0.6 3.3
v 1.4 0.6 3.7
v 1.3 0 2
v 1.3 0 3.2
v 1.3 0 3.8
v 1.3 0 5
v 1.3 0.4 2
v 1.3 0.4 2.1
v 1.3 0.4 3.1
v 1.3 0.4 3.2
v 1.3 0.4 3.8
v 1.3 0.4 3.9
v 1.3 0.4 4.9
v 1.3 0.4 5
v 1.3 0.5 2.1
v 1.3 0.5 3.1
v 1.3 0.5 3.9
v 1.3 0.5 4.9
v 1.2 0.4 2
v 1.2 0.4 2.1
v 1.2 0.4 3.1
v 1.2 0.4 3.2
v 1.2 0.4 3.8
v 1.2 0.4 3.9
v 1.2 0.4 4.9
v 1.2 0.4 5
v 1.2 0.5 2
v 1.2 0.5 2.1
v 1.2 0.5 3.1
v 1.2 0.5 3.2
v 1.2 0.5 3.8
v 1.2 0.5 3.9
v 1.2 0.5 4.9
v 1.2 0.5 5
v 1.2 0.6 2.1
v 1.2 0.6 3.1
v 1.2 0.6 3.9
v 1.2 0.6 4.9
v 1.1 0.1 3.3
v 1.1 0.1 3.7
v 1.1 0.3 3.3
v 1.1 0.3 3.7
v 1 0.3 3.4
v 1 0.3 3.6
v 1 2.5 3.4
v 1 2.5 3.6
v 0.9 0.1 2
v 0.9 0.1 3.3
v 0.9 0.1 3.7
v 0.9 0.1 5
v 0.9 0.2 2
v 0.9 0.2 3.3
v 0.9 0.2 3.7
v 0.9 0.2 5
v 0.9 2.4 3.3
v 0.9 2.4 3.4
v 0.9 2.4 3.6
v 0.9 2.4 3.7
v 0.9 2.5 3.3
v 0.9 2.5 3.4
v 0.9 2.5 3.6
v 0.9 2.5 3.7
v 0.9 2.6 3.4
v 0.9 2.6 3.6
v -0.9 0.1 2
v -0.9 0.1 5
v -0.9 0.2 2
v -0.9 0.2 5
v -1.2 0.1 2
v -1.2 0.1 5
v -1.2 0.4 2
v -1.2 0.4 2.1
v -1.2 0.4 2.9
v -1.2 0.4 3.1
v -1.2 0.4 3.9
v -1.2 0.4 4.1
v -1.2 0.4 4.9
v -1.2 0.4 5
v -1.2 0.5 2.1
v -1.2 0.5 2.9
v -1.2 0.5 3.1
v -1.2 0.5 3.9
v -1.2 0.5 4.1
v -1.2 0.5 4.9
v -1.3 0.4 2
v -1.3 0.4 2.1
v -1.3 0.4 2.9
v -1.3 0.4 3.1
v -1.3 0.4 3.9
v -1.3 0.4 4.1
v -1.3 0.4 4.9
v -1.3 0.4 5
v -1.3 0.5 2
v -1.3 0.5 2.1
v -1.3 0.5 2.9
v -1.3 0.5 3.1
v -1.3 0.5 3.9
v -1.3 0.5 4.1
v -1.3 0.5 4.9
v -1.3 0.5 5
v -1.3 0.6 2.1
v -1.3 0.6 2.9
v -1.3 0.6 3.1
v -1.3 0.6 3.9
v -1.3 0.6 4.1
v -1.3 0.6 4.9
v 1.3 0.4 3.2
v 1.3 0.4 3.3
v 1.3 0.4 3.7
v 1.3 0.4 3.8
v 1.3 0.5 3.2
v 1.3 0.5 3.3
v 1.3 0.5 3.7
v 1.3 0.5 3.8
v 1.3 0.6 3.3
v 1.3 0.6 3.7
v 1.2 0.1 3.2
v 1.2 0.1 3.8
v 1.2 0.4 3.2
v 1.2 0.4 3.3
v 1.2 0.4 3.7
v 1.2 0.4 3.8
v 1.2 0.5 3.3
v 1.2 0.5 3.7
v 1.1 0.4 2
v 1.1 0.4 2.1
v 1.1 0.4 3.1
v 1.1 0.4 3.2
v 1.1 0.4 3.8
v 1.1 0.4 3.9
v 1.1 0.4 4.9
v 1.1 0.4 5
v 1.1 0.5 2
v 1.1 0.5 2.1
v 1.1 0.5 3.1
v 1.1 0.5 3.2
v 1.1 0.5 3.8
v 1.1 0.5 3.9
v 1.1 0.5 4.9
v 1.1 0.5 5
v 1.1 0.6 2.1
v 1.1 0.6 3.1
v 1.1 0.6 3.9
v 1.1 0.6 4.9
v 1 0.1 2
v 1 0.1 3.2
v 1 0.1 3.8
v 1 0.1 5
v 1 0.4 2
v 1 0.4 2.1
v 1 0.4 3.1
v 1 0.4 3.2
v 1 0.4 3.8
v 1 0.4 3.9
v 1 0.4 4.9
v 1 0.4 5
v 1 0.5 2.1
v 1 0.5 3.1
v 1 0.5 3.9
v 1 0.5 4.9
v 0.9 0.3 3.4
v 0.9 0.3 3.6
v 0.9 2.3 3.4
v 0.9 2.3 3.6
v 0.8 0.2 3.3
v 0.8 0.2 3.7
v 0.8 0.3 3.3
v 0.8 0.3 3.7
v 0.8 2.3 3.4
v 0.8 2.3 3.6
v 0.8 2.4 3.4
v 0.8 2.4 3.6
v 0.7 0.1 2
v 0.7 0.1 5
v 0.7 0.2 2
v 0.7 0.2 5
v 0.5 2.4 3.3
v 0.5 2.4 3.4
v 0.5 2.4 3.6
v 0.5 2.4 3.7
v 0.5 2.5 3.3
v 0.5 2.5 3.4
v 0.5 2.5 3.6
v 0.5 2.5 3.7
v 0.5 2.6 3.4
v 0.5 2.6 3.6
v 0.4 2.4 3.4
v 0.4 2.4 3.6
v 0.4 2.5 3.4
v 0.4 2.5 3.6
v -1.1 0.1 2
v -1.1 0.1 5
v -1.1 0.2 2
v -1.1 0.2 5
v -1.4 0.4 2
v -1.4 0.4 2.1
v -1.4 0.4 2.9
v -1.4 0.4 3.1
v -1.4 0.4 3.9
v -1.4 0.4 4.1
v -1.4 0.4 4.9
v -1.4 0.4 5
v -1.4 0.5 2
v -1.4 0.5 2.1
v -1.4 0.5 2.9
v -1.4 0.5 3.1
v -1.4 0.5 3.9
v -1.4 0.5 4.1
v -1.4 0.5 4.9
v -1.4 0.5 5
v -1.4 0.6 2.1
v -1.4 0.6 2.9
v -1.4 0.6 3.1
v -1.4 0.6 3.9
v -1.4 0.6 4.1
v -1.4 0.6 4.9
v -1.5 0 2
v -1.5 0 5
v -1.5 0.4 2
v -1.5 0.4 2.1
v -1.5 0.4 2.9
v -1.5 0.4 3.1
v -1.5 0.4 3.9
v -1.5 0.4 4.1
v -1.5 0.4 4.9
v -1.5 0.4 5
v -1.5 0.5 2.1
v -1.5 0.5 2.9
v -1.5 0.5 3.1
v -1.5 0.5 3.9
v -1.5 0.5 4.1
v -1.5 0.5 4.9
v 1.3 0 2
v 1.3 0.4 2
v 1.2 0.4 2
v 1.2 0.5 2
v 1.1 0.4 2
v 1.1 0.5 2
v 1 0.1 2
v 1 0.4 2
v 0.9 0 2
v 0.9 0.1 2
v 0.9 0.2 2
v 0.7 0.1 2
v 0.7 0.2 2
v -0.9 0.1 2
v -0.9 0.2 2
v -1.1 0 2
v -1.1 0.1 2
v -1.1 0.2 2
v -1.2 0.1 2
v -1.2 0.4 2
v -1.3 0.4 2
v -1.3 0.5 2
v -1.4 0.4 2
v -1.4 0.5 2
v -1.5 0 2
v -1.5 0.4 2
v 1.3 0.4 2.1
v 1.3 0.5 2.1
v 1.2 0.4 2.1
v 1.2 0.5 2.1
v 1.2 0.6 2.1
v 1.1 0.4 2.1
v 1.1 0.5 2.1
v 1.1 0.6 2.1
v 1 0.4 2.1
v 1 0.5 2.1
v -1.2 0.4 2.1
v -1.2 0.5 2.1
v -1.3 0.4 2.1
v -1.3 0.5 2.1
v -1.3 0.6 2.1
v -1.4 0.4 2.1
v -1.4 0.5 2.1
v -1.4 0.6 2.1
v -1.5 0.4 2.1
v -1.5 0.5 2.1
v -1.2 0.4 3.1
v -1.2 0.5 3.1
v -1.3 0.4 3.1
v -1.3 0.5 3.1
v -1.3 0.6 3.1
v -1.4 0.4 3.1
v -1.4 0.5 3.1
v -1.4 0.6 3.1
v -1.5 0.4 3.1
v -1.5 0.5 3.1
v 1.5 0 3.2
v 1.5 0.4 3.2
v 1.4 0.4 3.2
v 1.4 0.5 3.2
v 1.3 0 3.2
v 1.3 0.4 3.2
v 1.3 0.5 3.2
v 1.5 0.4 3.3
v 1.5 0.5 3.3
v 1.4 0.4 3.3
v 1.4 0.5 3.3
v 1.4 0.6 3.3
v 1.3 0.4 3.3
v 1.3 0.5 3.3
v 1.3 0.6 3.3
v 1.2 0.4 3.3
v 1.2 0.5 3.3
v 1.1 0.1 3.3
v 1.1 0.3 3.3
v 0.9 0.1 3.3
v 0.9 0.2 3.3
v 0.9 2.4 3.3
v 0.9 2.5 3.3
v 0.8 0.2 3.3
v 0.8 0.3 3.3
v 0.5 2.4 3.3
v 0.5 2.5 3.3
v 1 0.3 3.4
v 1 2.5 3.4
v 0.9 0.3 3.4
v 0.9 2.3 3.4
v 0.9 2.4 3.4
v 0.9 2.5 3.4
v 0.9 2.6 3.4
v 0.8 2.3 3.4
v 0.8 2.4 3.4
v 0.5 2.4 3.4
v 0.5 2.5 3.4
v 0.5 2.6 3.4
v 0.4 2.4 3.4
v 0.4 2.5 3.4
v 1.2 0.1 3.8
v 1.2 0.4 3.8
v 1.2 0.5 3.8
v 1.1 0.4 3.8
v 1.1 0.5 3.8
v 1 0.1 3.8
v 1 0.4 3.8
v 1.3 0.4 3.9
v 1.3 0.5 3.9
v 1.2 0.4 3.9
v 1.2 0.5 3.9
v 1.2 0.6 3.9
v 1.1 0.4 3.9
v 1.1 0.5 3.9
v 1.1 0.6 3.9
v 1 0.4 3.9
v 1 0.5 3.9
v -1.2 0.4 4.1
v -1.2 0.5 4.1
v -1.3 0.4 4.1
v -1.3 0.5 4.1
v -1.3 0.6 4.1
v -1.4 0.4 4.1
v -1.4 0.5 4.1
v -1.4 0.6 4.1
v -1.5 0.4 4.1
v -1.5 0.5 4.1
v -1.2 0.4 2.9
v -1.2 0.5 2.9
v -1.3 0.4 2.9
v -1.3 0.5 2.9
v -1.3 0.6 2.9
v -1.4 0.4 2.9
v -1.4 0.5 2.9
v -1.4 0.6 2.9
v -1.5 0.4 2.9
v -1.5 0.5 2.9
v 1.3 0.4 3.1
v 1.3 0.5 3.1
v 1.2 0.4 3.1
v 1.2 0.5 3.1
v 1.2 0.6 3.1
v 1.1 0.4 3.1
v 1.1 0.5 3.1
v 1.1 0.6 3.1
v 1 0.4 3.1
v 1 0.5 3.1
v 1.2 0.1 3.2
v 1.2 0.4 3.2
v 1.2 0.5 3.2
v 1.1 0.4 3.2
v 1.1 0.5 3.2
v 1 0.1 3.2
v 1 0.4 3.2
v 1 0.3 3.6
v 1 2.5 3.6
v 0.9 0.3 3.6
v 0.9 2.3 3.6
v 0.9 2.4 3.6
v 0.9 2.5 3.6
v 0.9 2.6 3.6
v 0.8 2.3 3.6
v 0.8 2.4 3.6
v 0.5 2.4 3.6
v 0.5 2.5 3.6
v 0.5 2.6 3.6
v 0.4 2.4 3.6
v 0.4 2.5 3.6
v 1.5 0.4 3.7
v 1.5 0.5 3.7
v 1.4 0.4 3.7
v 1.4 0.5 3.7
v 1.4 0.6 3.7
v 1.3 0.4 3.7
v 1.3 0.5 3.7
v 1.3 0.6 3.7
v 1.2 0.4 3.7
v 1.2 0.5 3.7
v 1.1 0.1 3.7
v 1.1 0.3 3.7
v 0.9 0.1 3.7
v 0.9 0.2 3.7
v 0.9 2.4 3.7
v 0.9 2.5 3.7
v 0.8 0.2 3.7
v 0.8 0.3 3.7
v 0.5 2.4 3.7
v 0.5 2.5 3.7
v 1.5 0 3.8
v 1.5 0.4 3.8
v 1.4 0.4 3.8
v 1.4 0.5 3.8
v 1.3 0 3.8
v 1.3 0.4 3.8
v 1.3 0.5 3.8
v -1.2 0.4 3.9
v -1.2 0.5 3.9
v -1.3 0.4 3.9
v -1.3 0.5 3.9
v -1.3 0.6 3.9
v -1.4 0.4 3.9
v -1.4 0.5 3.9
v -1.4 0.6 3.9
v -1.5 0.4 3.9
v -1.5 0.5 3.9
v 1.3 0.4 4.9
v 1.3 0.5 4.9
v 1.2 0.4 4.9
v 1.2 0.5 4.9
v 1.2 0.6 4.9
v 1.1 0.4 4.9
v 1.1 0.5 4.9
v 1.1 0.6 4.9
v 1 0.4 4.9
v 1 0.5 4.9
v -1.2 0.4 4.9
v -1.2 0.5 4.9
v -1.3 0.4 4.9
v -1.3 0.5 4.9
v -1.3 0.6 4.9
v -1.4 0.4 4.9
v -1.4 0.5 4.9
v -1.4 0.6 4.9
v -1.5 0.4 4.9
v -1.5 0.5 4.9
v 1.3 0 5
v 1.3 0.4 5
v 1.2 0.4 5
v 1.2 0.5 5
v 1.1 0.4 5
v 1.1 0.5 5
v 1 0.1 5
v 1 0.4 5
v 0.9 0 5
v 0.9 0.1 5
v 0.9 0.2 5
v 0.7 0.1 5
v 0.7 0.2 5
v -0.9 0.1 5
v -0.9 0.2 5
v -1.1 0 5
v -1.1 0.1 5
v -1.1 0.2 5
v -1.2 0.1 5
v -1.2 0.4 5
v -1.3 0.4 5
v -1.3 0.5 5
v -1.4 0.4 5
v -1.4 0.5 5
v -1.5 0 5
v -1.5 0.4 5
v 1.3 0 2
v 0.9 0 2
v -1.1 0 2
v -1.5 0 2
v 1.5 0 3.2
v 1.3 0 3.2
v 1.1 0 3.3
v 0.9 0 3.3
v 1.1 0 3.7
v 0.9 0 3.7
v 1.5 0 3.8
v 1.3 0 3.8
v 1.3 0 5
v 0.9 0 5
v -1.1 0 5
v -1.5 0 5
v 0.9 2.3 3.4
v 0.8 2.3 3.4
v 0.9 2.3 3.6
v 0.8 2.3 3.6
v 0.9 2.4 3.3
v 0.5 2.4 3.3
v 0.9 2.4 3.4
v 0.8 2.4 3.4
v 0.5 2.4 3.4
v 0.4 2.4 3.4
v 0.9 2.4 3.6
v 0.8 2.4 3.6
v 0.5 2.4 3.6
v 0.4 2.4 3.6
v 0.9 2.4 3.7
v 0.5 2.4 3.7
v 1 0.1 2
v 0.9 0.1 2
v 0.7 0.1 2
v -0.9 0.1 2
v -1.1 0.1 2
v -1.2 0.1 2
v 1.2 0.1 3.2
v 1 0.1 3.2
v 1.1 0.1 3.3
v 0.9 0.1 3.3
v 1.1 0.1 3.7
v 0.9 0.1 3.7
v 1.2 0.1 3.8
v 1 0.1 3.8
v 1 0.1 5
v 0.9 0.1 5
v 0.7 0.1 5
v -0.9 0.1 5
v -1.1 0.1 5
v -1.2 0.1 5
v 0.9 0.2 2
v 0.7 0.2 2
v -0.9 0.2 2
v -1.1 0.2 2
v 0.9 0.2 3.3
v 0.8 0.2 3.3
v 0.9 0.2 3.7
v 0.8 0.2 3.7
v 0.9 0.2 5
v 0.7 0.2 5
v -0.9 0.2 5
v -1.1 0.2 5
v 1.1 0.3 3.3
v 0.8 0.3 3.3
v 1 0.3 3.4
v 0.9 0.3 3.4
v 1 0.3 3.6
v 0.9 0.3 3.6
v 1.1 0.3 3.7
v 0.8 0.3 3.7
v 1.3 0.4 2
v 1.2 0.4 2
v 1.1 0.4 2
v 1 0.4 2
v -1.2 0.4 2
v -1.3 0.4 2
v -1.4 0.4 2
v -1.5 0.4 2
v 1.3 0.4 2.1
v 1.2 0.4 2.1
v 1.1 0.4 2.1
v 1 0.4 2.1
v -1.2 0.4 2.1
v -1.3 0.4 2.1
v -1.4 0.4 2.1
v -1.5 0.4 2.1
v -1.2 0.4 2.9
v -1.3 0.4 2.9
v -1.4 0.4 2.9
v -1.5 0.4 2.9
v 1.3 0.4 3.1
v 1.2 0.4 3.1
v 1.1 0.4 3.1
v 1 0.4 3.1
v -1.2 0.4 3.1
v -1.3 0.4 3.1
v -1.4 0.4 3.1
v -1.5 0.4 3.1
v 1.5 0.4 3.2
v 1.4 0.4 3.2
v 1.3 0.4 3.2
v 1.2 0.4 3.2
v 1.1 0.4 3.2
v 1 0.4 3.2
v 1.5 0.4 3.3
v 1.4 0.4 3.3
v 1.3 0.4 3.3
v 1.2 0.4 3.3
v 1.5 0.4 3.7
v 1.4 0.4 3.7
v 1.3 0.4 3.7
v 1.2 0.4 3.7
v 1.5 0.4 3.8
v 1.4 0.4 3.8
v 1.3 0.4 3.8
v 1.2 0.4 3.8
v 1.1 0.4 3.8
v 1 0.4 3.8
v 1.3 0.4 3.9
v 1.2 0.4 3.9
v 1.1 0.4 3.9
v 1 0.4 3.9
v -1.2 0.4 3.9
v -1.3 0.4 3.9
v -1.4 0.4 3.9
v -1.5 0.4 3.9
v -1.2 0.4 4.1
v -1.3 0.4 4.1
v -1.4 0.4 4.1
v -1.5 0.4 4.1
v 1.3 0.4 4.9
v 1.2 0.4 4.9
v 1.1 0.4 4.9
v 1 0.4 4.9
v -1.2 0.4 4.9
v -1.3 0.4 4.9
v -1.4 0.4 4.9
v -1.5 0.4 4.9
v 1.3 0.4 5
v 1.2 0.4 5
v 1.1 0.4 5
v 1 0.4 5
v -1.2 0.4 5
v -1.3 0.4 5
v -1.4 0.4 5
v -1.5 0.4 5
v 1.2 0.5 2
v 1.1 0.5 2
v -1.3 0.5 2
v -1.4 0.5 2
v 1.3 0.5 2.1
v 1.2 0.5 2.1
v 1.1 0.5 2.1
v 1 0.5 2.1
v -1.2 0.5 2.1
v -1.3 0.5 2.1
v -1.4 0.5 2.1
v -1.5 0.5 2.1
v -1.2 0.5 2.9
v -1.3 0.5 2.9
v -1.4 0.5 2.9
v -1.5 0.5 2.9
v 1.3 0.5 3.1
v 1.2 0.5 3.1
v 1.1 0.5 3.1
v 1 0.5 3.1
v -1.2 0.5 3.1
v -1.3 0.5 3.1
v -1.4 0.5 3.1
v -1.5 0.5 3.1
v 1.4 0.5 3.2
v 1.3 0.5 3.2
v 1.2 0.5 3.2
v 1.1 0.5 3.2
v 1.5 0.5 3.3
v 1.4 0.5 3.3
v 1.3 0.5 3.3
v 1.2 0.5 3.3
v 1.5 0.5 3.7
v 1.4 0.5 3.7
v 1.3 0.5 3.7
v 1.2 0.5 3.7
v 1.4 0.5 3.8
v 1.3 0.5 3.8
v 1.2 0.5 3.8
v 1.1 0.5 3.8
v 1.3 0.5 3.9
v 1.2 0.5 3.9
v 1.1 0.5 3.9
v 1 0.5 3.9
v -1.2 0.5 3.9
v -1.3 0.5 3.9
v -1.4 0.5 3.9
v -1.5 0.5 3.9
v -1.2 0.5 4.1
v -1.3 0.5 4.1
v -1.4 0.5 4.1
v -1.5 0.5 4.1
v 1.3 0.5 4.9
v 1.2 0.5 4.9
v 1.1 0.5 4.9
v 1 0.5 4.9
v -1.2 0.5 4.9
v -1.3 0.5 4.9
v -1.4 0.5 4.9
v -1.5 0.5 4.9
v 1.2 0.5 5
v 1.1 0.5 5
v -1.3 0.5 5
v -1.4 0.5 5
v 1.2 0.6 2.1
v 1.1 0.6 2.1
v -1.3 0.6 2.1
v -1.4 0.6 2.1
v -1.3 0.6 2.9
v -1.4 0.6 2.9
v 1.2 0.6 3.1
v 1.1 0.6 3.1
v -1.3 0.6 3.1
v -1.4 0.6 3.1
v 1.4 0.6 3.3
v 1.3 0.6 3.3
v 1.4 0.6 3.7
v 1.3 0.6 3.7
v 1.2 0.6 3.9
v 1.1 0.6 3.9
v -1.3 0.6 3.9
v -1.4 0.6 3.9
v -1.3 0.6 4.1
v -1.4 0.6 4.1
v 1.2 0.6 4.9
v 1.1 0.6 4.9
v -1.3 0.6 4.9
v -1.4 0.6 4.9
v 0.9 2.5 3.3
v 0.5 2.5 3.3
v 1 2.5 3.4
v 0.9 2.5 3.4
v 0.5 2.5 3.4
v 0.4 2.5 3.4
v 1 2.5 3.6
v 0.9 2.5 3.6
v 0.5 2.5 3.6
v 0.4 2.5 3.6
v 0.9 2.5 3.7
v 0.5 2.5 3.7
v 0.9 2.6 3.4
v 0.5 2.6 3.4
v 0.9 2.6 3.6
v 0.5 2.6 3.6

# faces
f 3/2/1 2/2/1 1/2/1
f 4/2/1 2/2/1 3/2/1
f 5/2/1 2/2/1 4/2/1
f 6/2/1 2/2/1 5/2/1
f 7/2/1 5/2/1 4/2/1
f 8/2/1 5/2/1 7/2/1
f 13/2/1 10/2/1 9/2/1
f 14/2/1 10/2/1 13/2/1
f 15/2/1 12/2/1 11/2/1
f 16/2/1 12/2/1 15/2/1
f 17/2/1 15/2/1 14/2/1
f 18/2/1 15/2/1 17/2/1
f 23/2/1 20/2/1 19/2/1
f 24/2/1 20/2/1 23/2/1
f 25/2/1 20/2/1 24/2/1
f 26/2/1 20/2/1 25/2/1
f 27/2/1 22/2/1 21/2/1
f 28/2/1 22/2/1 27/2/1
f 29/2/1 22/2/1 28/2/1
f 30/2/1 22/2/1 29/2/1
f 31/2/1 25/2/1 24/2/1
f 32/2/1 25/2/1 31/2/1
f 33/2/1 29/2/1 28/2/1
f 34/2/1 29/2/1 33/2/1
f 43/2/1 36/2/1 35/2/1
f 44/2/1 36/2/1 43/2/1
f 45/2/1 38/2/1 37/2/1
f 46/2/1 38/2/1 45/2/1
f 47/2/1 40/2/1 39/2/1
f 48/2/1 40/2/1 47/2/1
f 49/2/1 42/2/1 41/2/1
f 50/2/1 42/2/1 49/2/1
f 51/2/1 45/2/1 44/2/1
f 52/2/1 45/2/1 51/2/1
f 53/2/1 49/2/1 48/2/1
f 54/2/1 49/2/1 53/2/1
f 57/5/1 56/5/1 55/5/1
f 58/5/1 56/5/1 57/5/1
f 61/5/1 60/5/1 59/5/1
f 62/5/1 60/5/1 61/5/1
f 67/4/1 64/4/1 63/4/1
f 68/4/1 64/4/1 67/4/1
f 69/4/1 66/4/1 65/4/1
f 70/4/1 66/4/1 69/4/1
f 75/5/1 72/5/1 71/5/1
f 76/5/1 72/5/1 75/5/1
f 77/5/1 74/5/1 73/5/1
f 78/5/1 74/5/1 77/5/1
f 79/5/1 77/5/1 76/5/1
f 80/5/1 77/5/1 79/5/1
f 83/4/1 82/4/1 81/4/1
f 84/4/1 82/4/1 83/4/1
f 87/2/1 86/2/1 85/2/1
f 88/2/1 86/2/1 87/2/1
f 89/2/1 86/2/1 88/2/1
f 90/2/1 86/2/1 89/2/1
f 91/2/1 86/2/1 90/2/1
f 92/2/1 86/2/1 91/2/1
f 93/2/1 86/2/1 92/2/1
f 94/2/1 86/2/1 93/2/1
f 95/2/1 89/2/1 88/2/1
f 96/2/1 89/2/1 95/2/1
f 97/2/1 91/2/1 90/2/1
f 98/2/1 91/2/1 97/2/1
f 99/2/1 93/2/1 92/2/1
f 100/2/1 93/2/1 99/2/1
f 109/2/1 102/2/1 101/2/1
f 110/2/1 102/2/1 109/2/1
f 111/2/1 104/2/1 103/2/1
f 112/2/1 104/2/1 111/2/1
f 113/2/1 106/2/1 105/2/1
f 114/2/1 106/2/1 113/2/1
f 115/2/1 108/2/1 107/2/1
f 116/2/1 108/2/1 115/2/1
f 117/2/1 111/2/1 110/2/1
f 118/2/1 111/2/1 117/2/1
f 119/2/1 113/2/1 112/2/1
f 120/2/1 113/2/1 119/2/1
f 121/2/1 115/2/1 114/2/1
f 122/2/1 115/2/1 121/2/1
f 123/2/2 124/2/2 127/2/2
f 127/2/2 124/2/2 128/2/2
f 125/2/2 126/2/2 129/2/2
f 129/2/2 126/2/2 130/2/2
f 128/2/2 129/2/2 131/2/2
f 131/2/2 129/2/2 132/2/2
f 133/2/2 134/2/2 135/2/2
f 135/2/2 134/2/2 136/2/2
f 136/2/2 134/2/2 137/2/2
f 137/2/2 134/2/2 138/2/2
f 136/2/2 137/2/2 139/2/2
f 139/2/2 137/2/2 140/2/2
f 141/2/2 142/2/2 149/2/2
f 149/2/2 142/2/2 150/2/2
f 143/2/2 144/2/2 151/2/2
f 151/2/2 144/2/2 152/2/2
f 145/2/2 146/2/2 153/2/2
f 153/2/2 146/2/2 154/2/2
f 147/2/2 148/2/2 155/2/2
f 155/2/2 148/2/2 156/2/2
f 150/2/2 151/2/2 157/2/2
f 157/2/2 151/2/2 158/2/2
f 154/2/2 155/2/2 159/2/2
f 159/2/2 155/2/2 160/2/2
f 161/2/2 162/2/2 165/2/2
f 165/2/2 162/2/2 166/2/2
f 166/2/2 162/2/2 167/2/2
f 167/2/2 162/2/2 168/2/2
f 163/2/2 164/2/2 169/2/2
f 169/2/2 164/2/2 170/2/2
f 170/2/2 164/2/2 171/2/2
f 171/2/2 164/2/2 172/2/2
f 166/2/2 167/2/2 173/2/2
f 173/2/2 167/2/2 174/2/2
f 170/2/2 171/2/2 175/2/2
f 175/2/2 171/2/2 176/2/2
f 177/5/2 178/5/2 179/5/2
f 179/5/2 178/5/2 180/5/2
f 181/5/2 182/5/2 183/5/2
f 183/5/2 182/5/2 184/5/2
f 185/5/2 186/5/2 187/5/2
f 187/5/2 186/5/2 188/5/2
f 189/4/2 190/4/2 191/4/2
f 191/4/2 190/4/2 192/4/2
f 193/5/2 194/5/2 197/5/2
f 197/5/2 194/5/2 198/5/2
f 195/5/2 196/5/2 199/5/2
f 199/5/2 196/5/2 200/5/2
f 198/5/2 199/5/2 201/5/2
f 201/5/2 199/5/2 202/5/2
f 203/5/2 204/5/2 205/5/2
f 205/5/2 204/5/2 206/5/2
f 207/4/2 208/4/2 209/4/2
f 209/4/2 208/4/2 210/4/2
f 211/2/2 212/2/2 219/2/2
f 219/2/2 212/2/2 220/2/2
f 213/2/2 214/2/2 221/2/2
f 221/2/2 214/2/2 222/2/2
f 215/2/2 216/2/2 223/2/2
f 223/2/2 216/2/2 224/2/2
f 217/2/2 218/2/2 225/2/2
f 225/2/2 218/2/2 226/2/2
f 220/2/2 221/2/2 227/2/2
f 227/2/2 221/2/2 228/2/2
f 222/2/2 223/2/2 229/2/2
f 229/2/2 223/2/2 230/2/2
f 224/2/2 225/2/2 231/2/2
f 231/2/2 225/2/2 232/2/2
f 233/2/2 234/2/2 235/2/2
f 235/2/2 234/2/2 236/2/2
f 236/2/2 234/2/2 237/2/2
f 237/2/2 234/2/2 238/2/2
f 238/2/2 234/2/2 239/2/2
f 239/2/2 234/2/2 240/2/2
f 240/2/2 234/2/2 241/2/2
f 241/2/2 234/2/2 242/2/2
f 236/2/2 237/2/2 243/2/2
f 243/2/2 237/2/2 244/2/2
f 238/2/2 239/2/2 245/2/2
f 245/2/2 239/2/2 246/2/2
f 240/2/2 241/2/2 247/2/2
f 247/2/2 241/2/2 248/2/2
f 251/2/3 250/2/3 249/2/3
f 253/2/3 251/2/3 249/2/3
f 253/2/3 252/2/3 251/2/3
f 254/2/3 252/2/3 253/2/3
f 255/2/3 253/2/3 249/2/3
f 256/2/3 253/2/3 255/2/3
f 257/2/3 255/2/3 249/2/3
f 258/2/3 255/2/3 257/2/3
f 260/3/3 258/3/3 257/3/3
f 260/4/3 259/4/3 258/4/3
f 261/4/3 259/4/3 260/4/3
f 262/3/3 260/3/3 257/3/3
f 264/3/3 262/3/3 257/3/3
f 265/4/3 263/4/3 262/4/3
f 265/3/3 262/3/3 264/3/3
f 266/4/3 263/4/3 265/4/3
f 267/2/3 265/2/3 264/2/3
f 269/2/3 268/2/3 267/2/3
f 271/2/3 269/2/3 267/2/3
f 271/2/3 270/2/3 269/2/3
f 272/2/3 270/2/3 271/2/3
f 273/2/3 267/2/3 264/2/3
f 273/2/3 271/2/3 267/2/3
f 274/2/3 271/2/3 273/2/3
f 277/2/3 276/2/3 275/2/3
f 278/2/3 276/2/3 277/2/3
f 281/2/3 279/2/3 278/2/3
f 282/2/3 279/2/3 281/2/3
f 283/2/3 281/2/3 280/2/3
f 284/2/3 281/2/3 283/2/3
f 287/2/3 286/2/3 285/2/3
f 288/2/3 286/2/3 287/2/3
f 291/2/3 289/2/3 288/2/3
f 292/2/3 289/2/3 291/2/3
f 293/2/3 291/2/3 290/2/3
f 294/2/3 291/2/3 293/2/3
f 297/2/3 296/2/3 295/2/3
f 298/2/3 296/2/3 297/2/3
f 301/2/3 299/2/3 298/2/3
f 302/2/3 299/2/3 301/2/3
f 303/2/3 301/2/3 300/2/3
f 304/2/3 301/2/3 303/2/3
f 307/2/3 306/2/3 305/2/3
f 309/2/3 307/2/3 305/2/3
f 309/2/3 308/2/3 307/2/3
f 310/2/3 308/2/3 309/2/3
f 311/2/3 308/2/3 310/2/3
f 314/2/3 313/2/3 312/2/3
f 315/2/3 313/2/3 314/2/3
f 318/2/3 316/2/3 315/2/3
f 319/2/3 316/2/3 318/2/3
f 320/2/3 318/2/3 317/2/3
f 321/2/3 318/2/3 320/2/3
f 324/5/3 323/5/3 322/5/3
f 325/5/3 323/5/3 324/5/3
f 328/5/3 323/5/3 325/5/3
f 329/5/3 323/5/3 328/5/3
f 330/5/3 327/5/3 326/5/3
f 331/5/3 327/5/3 330/5/3
f 334/5/3 333/5/3 332/5/3
f 335/5/3 333/5/3 334/5/3
f 336/5/3 333/5/3 335/5/3
f 337/5/3 333/5/3 336/5/3
f 339/5/3 336/5/3 335/5/3
f 340/5/3 336/5/3 339/5/3
f 342/5/3 338/5/3 337/5/3
f 343/5/3 338/5/3 342/5/3
f 344/5/3 342/5/3 341/5/3
f 345/5/3 342/5/3 344/5/3
f 349/2/3 347/2/3 346/2/3
f 349/2/3 348/2/3 347/2/3
f 350/2/3 348/2/3 349/2/3
f 351/2/3 349/2/3 346/2/3
f 352/2/3 349/2/3 351/2/3
f 355/2/3 354/2/3 353/2/3
f 356/2/3 354/2/3 355/2/3
f 359/2/3 357/2/3 356/2/3
f 360/2/3 357/2/3 359/2/3
f 361/2/3 359/2/3 358/2/3
f 362/2/3 359/2/3 361/2/3
f 365/2/3 364/2/3 363/2/3
f 366/2/3 364/2/3 365/2/3
f 369/2/3 367/2/3 366/2/3
f 370/2/3 367/2/3 369/2/3
f 371/2/3 369/2/3 368/2/3
f 372/2/3 369/2/3 371/2/3
f 373/2/4 374/2/4 375/2/4
f 375/2/4 374/2/4 376/2/4
f 376/2/4 377/2/4 379/2/4
f 379/2/4 377/2/4 380/2/4
f 378/2/4 379/2/4 381/2/4
f 381/2/4 379/2/4 382/2/4
f 383/2/4 384/2/4 385/2/4
f 385/2/4 384/2/4 386/2/4
f 386/2/4 387/2/4 389/2/4
f 389/2/4 387/2/4 390/2/4
f 388/2/4 389/2/4 391/2/4
f 391/2/4 389/2/4 392/2/4
f 393/2/4 394/2/4 396/2/4
f 394/2/4 395/2/4 396/2/4
f 396/2/4 395/2/4 397/2/4
f 393/2/4 396/2/4 398/2/4
f 398/2/4 396/2/4 399/2/4
f 400/5/4 401/5/4 402/5/4
f 402/5/4 401/5/4 403/5/4
f 403/5/4 401/5/4 404/5/4
f 404/5/4 401/5/4 405/5/4
f 403/5/4 404/5/4 407/5/4
f 407/5/4 404/5/4 408/5/4
f 405/5/4 406/5/4 410/5/4
f 410/5/4 406/5/4 411/5/4
f 409/5/4 410/5/4 412/5/4
f 412/5/4 410/5/4 413/5/4
f 414/2/4 415/2/4 416/2/4
f 416/2/4 415/2/4 417/2/4
f 417/2/4 418/2/4 420/2/4
f 420/2/4 418/2/4 421/2/4
f 419/2/4 420/2/4 422/2/4
f 422/2/4 420/2/4 423/2/4
f 424/5/4 425/5/4 426/5/4
f 426/5/4 425/5/4 427/5/4
f 427/5/4 425/5/4 430/5/4
f 430/5/4 425/5/4 431/5/4
f 428/5/4 429/5/4 432/5/4
f 432/5/4 429/5/4 433/5/4
f 434/2/4 435/2/4 436/2/4
f 434/2/4 436/2/4 438/2/4
f 436/2/4 437/2/4 438/2/4
f 438/2/4 437/2/4 439/2/4
f 439/2/4 437/2/4 440/2/4
f 441/2/4 442/2/4 443/2/4
f 443/2/4 442/2/4 444/2/4
f 444/2/4 445/2/4 447/2/4
f 447/2/4 445/2/4 448/2/4
f 446/2/4 447/2/4 449/2/4
f 449/2/4 447/2/4 450/2/4
f 451/2/4 452/2/4 453/2/4
f 453/2/4 452/2/4 454/2/4
f 454/2/4 455/2/4 457/2/4
f 457/2/4 455/2/4 458/2/4
f 456/2/4 457/2/4 459/2/4
f 459/2/4 457/2/4 460/2/4
f 461/2/4 462/2/4 463/2/4
f 463/2/4 462/2/4 464/2/4
f 464/2/4 465/2/4 467/2/4
f 467/2/4 465/2/4 468/2/4
f 466/2/4 467/2/4 469/2/4
f 469/2/4 467/2/4 470/2/4
f 471/2/4 472/2/4 473/2/4
f 471/2/4 473/2/4 475/2/4
f 473/2/4 474/2/4 475/2/4
f 475/2/4 474/2/4 476/2/4
f 471/2/4 475/2/4 477/2/4
f 477/2/4 475/2/4 478/2/4
f 471/2/4 477/2/4 479/2/4
f 479/2/4 477/2/4 480/2/4
f 479/3/4 480/3/4 482/3/4
f 480/4/4 481/4/4 482/4/4
f 482/4/4 481/4/4 483/4/4
f 479/3/4 482/3/4 484/3/4
f 479/3/4 484/3/4 486/3/4
f 484/4/4 485/4/4 487/4/4
f 486/3/4 484/3/4 487/3/4
f 487/4/4 485/4/4 488/4/4
f 486/2/4 487/2/4 489/2/4
f 489/2/4 490/2/4 491/2/4
f 489/2/4 491/2/4 493/2/4
f 491/2/4 492/2/4 493/2/4
f 493/2/4 492/2/4 494/2/4
f 486/2/4 489/2/4 495/2/4
f 489/2/4 493/2/4 495/2/4
f 495/2/4 493/2/4 496/2/4
f 502/2/5 498/2/5 497/2/5
f 503/2/5 498/2/5 502/2/5
f 503/2/5 502/2/5 501/2/5
f 504/3/5 499/3/5 498/3/5
f 504/2/5 498/2/5 503/2/5
f 505/2/5 503/2/5 501/2/5
f 505/5/5 504/5/5 503/5/5
f 506/3/5 499/3/5 504/3/5
f 506/5/5 504/5/5 505/5/5
f 507/2/5 505/2/5 501/2/5
f 507/2/5 506/2/5 505/2/5
f 508/2/5 506/2/5 507/2/5
f 509/2/5 506/2/5 508/2/5
f 510/3/5 499/3/5 506/3/5
f 510/2/5 506/2/5 509/2/5
f 511/2/5 500/2/5 499/2/5
f 511/3/5 499/3/5 510/3/5
f 512/2/5 500/2/5 511/2/5
f 515/5/5 514/5/5 513/5/5
f 516/5/5 514/5/5 515/5/5
f 519/5/5 518/5/5 517/5/5
f 520/5/5 518/5/5 519/5/5
f 521/5/5 518/5/5 520/5/5
f 524/1/5 521/1/5 520/1/5
f 525/5/5 522/5/5 521/5/5
f 525/1/5 521/1/5 524/1/5
f 526/5/5 522/5/5 525/5/5
f 527/5/5 524/5/5 523/5/5
f 527/5/5 525/5/5 524/5/5
f 528/5/5 525/5/5 527/5/5
f 529/2/6 530/2/6 536/2/6
f 535/2/6 536/2/6 537/2/6
f 536/2/6 530/2/6 538/2/6
f 537/2/6 536/2/6 538/2/6
f 535/2/6 537/2/6 539/2/6
f 535/2/6 539/2/6 541/2/6
f 539/2/6 540/2/6 541/2/6
f 541/2/6 540/2/6 542/2/6
f 542/2/6 540/2/6 543/2/6
f 543/2/6 540/2/6 544/2/6
f 531/3/6 532/3/6 545/3/6
f 545/3/6 532/3/6 546/3/6
f 533/2/6 534/2/6 547/2/6
f 547/2/6 534/2/6 548/2/6
f 549/4/6 550/4/6 553/4/6
f 553/4/6 550/4/6 554/4/6
f 554/4/6 550/4/6 556/4/6
f 555/4/6 556/4/6 557/4/6
f 556/4/6 550/4/6 558/4/6
f 557/4/6 556/4/6 558/4/6
f 551/4/6 552/4/6 559/4/6
f 559/4/6 552/4/6 560/4/6
f 561/5/6 562/5/6 563/5/6
f 563/5/6 562/5/6 564/5/6
f 561/5/6 563/5/6 565/5/6
f 564/5/6 562/5/6 566/5/6
f 561/5/6 565/5/6 567/5/6
f 565/5/6 566/5/6 567/5/6
f 566/5/6 562/5/6 568/5/6
f 567/5/6 566/5/6 568/5/6
f 569/2/6 570/2/6 577/2/6
f 577/2/6 570/2/6 578/2/6
f 571/2/6 572/2/6 579/2/6
f 579/2/6 572/2/6 580/2/6
f 573/2/6 574/2/6 581/2/6
f 581/2/6 574/2/6 582/2/6
f 575/2/6 576/2/6 583/2/6
f 583/2/6 576/2/6 584/2/6
f 585/2/6 586/2/6 593/2/6
f 593/2/6 586/2/6 594/2/6
f 587/2/6 588/2/6 595/2/6
f 595/2/6 588/2/6 596/2/6
f 589/2/6 590/2/6 599/2/6
f 599/2/6 590/2/6 600/2/6
f 591/2/6 592/2/6 601/2/6
f 601/2/6 592/2/6 602/2/6
f 597/2/6 598/2/6 603/2/6
f 603/2/6 598/2/6 604/2/6
f 599/2/6 600/2/6 605/2/6
f 605/2/6 600/2/6 606/2/6
f 607/2/6 608/2/6 611/2/6
f 611/2/6 608/2/6 612/2/6
f 609/2/6 610/2/6 613/2/6
f 613/2/6 610/2/6 614/2/6
f 613/2/6 614/2/6 617/2/6
f 617/2/6 614/2/6 618/2/6
f 615/2/6 616/2/6 619/2/6
f 619/2/6 616/2/6 620/2/6
f 621/2/6 622/2/6 625/2/6
f 625/2/6 622/2/6 626/2/6
f 623/2/6 624/2/6 627/2/6
f 627/2/6 624/2/6 628/2/6
f 629/2/6 630/2/6 637/2/6
f 637/2/6 630/2/6 638/2/6
f 631/2/6 632/2/6 639/2/6
f 639/2/6 632/2/6 640/2/6
f 633/2/6 634/2/6 641/2/6
f 641/2/6 634/2/6 642/2/6
f 635/2/6 636/2/6 643/2/6
f 643/2/6 636/2/6 644/2/6
f 645/2/6 646/2/6 650/2/6
f 650/2/6 646/2/6 651/2/6
f 647/2/6 648/2/6 654/2/6
f 654/2/6 648/2/6 655/2/6
f 653/2/6 654/2/6 657/2/6
f 657/2/6 654/2/6 658/2/6
f 655/2/6 656/2/6 659/2/6
f 659/2/6 656/2/6 660/2/6
f 649/2/6 650/2/6 661/2/6
f 661/2/6 650/2/6 662/2/6
f 651/2/6 652/2/6 663/2/6
f 663/2/6 652/2/6 664/2/6
f 658/2/6 659/2/6 666/2/6
f 666/2/6 659/2/6 667/2/6
f 662/2/6 663/2/6 671/2/6
f 671/2/6 663/2/6 672/2/6
f 669/2/6 670/2/6 674/2/6
f 674/2/6 670/2/6 675/2/6
f 673/2/6 674/2/6 677/2/6
f 677/2/6 674/2/6 678/2/6
f 675/2/6 676/2/6 679/2/6
f 679/2/6 676/2/6 680/2/6
f 678/2/6 679/2/6 681/2/6
f 681/2/6 679/2/6 682/2/6
f 683/2/6 684/2/6 686/2/6
f 686/2/6 684/2/6 687/2/6
f 665/2/6 666/2/6 689/2/6
f 689/2/6 666/2/6 690/2/6
f 667/2/6 668/2/6 691/2/6
f 691/2/6 668/2/6 692/2/6
f 690/2/6 691/2/6 694/2/6
f 694/2/6 691/2/6 695/2/6
f 685/2/6 686/2/6 697/2/6
f 697/2/6 686/2/6 698/2/6
f 687/2/6 688/2/6 699/2/6
f 699/2/6 688/2/6 700/2/6
f 693/2/6 694/2/6 701/2/6
f 701/2/6 694/2/6 702/2/6
f 695/2/6 696/2/6 703/2/6
f 703/2/6 696/2/6 704/2/6
f 698/2/6 699/2/6 705/2/6
f 705/2/6 699/2/6 706/2/6
f 702/2/6 703/2/6 707/2/6
f 707/2/6 703/2/6 708/2/6
f 711/2/6 712/2/6 713/2/6
f 713/2/6 712/2/6 714/2/6
f 709/2/6 710/2/6 715/2/6
f 715/2/6 710/2/6 716/2/6
f 719/2/6 720/2/6 721/2/6
f 721/2/6 720/2/6 722/2/6
f 717/2/6 718/2/6 725/2/6
f 725/2/6 718/2/6 726/2/6
f 723/2/6 724/2/6 729/2/6
f 729/2/6 724/2/6 730/2/6
f 727/2/6 728/2/6 731/2/6
f 731/2/6 728/2/6 732/2/6
f 733/5/6 734/5/6 736/5/6
f 736/5/6 734/5/6 737/5/6
f 735/5/6 736/5/6 739/5/6
f 739/5/6 736/5/6 740/5/6
f 737/5/6 738/5/6 741/5/6
f 741/5/6 738/5/6 742/5/6
f 740/5/6 741/5/6 743/5/6
f 743/5/6 741/5/6 744/5/6
f 745/5/6 746/5/6 747/5/6
f 747/5/6 746/5/6 748/5/6
