# MagicaVoxel @ Ephtracy

# group
o 

# material
mtllib BRAS-L.mtl
usemtl palette

# normals
vn -1 0 0
vn 1 0 0
vn 0 0 1
vn 0 0 -1
vn 0 -1 0
vn 0 1 0

# texcoords
vt 0.0800781 0.5

# verts
v -1.4 1.9 -0.1
v -1.4 1.9 -0.3
v -1.4 2 -0.1
v -1.4 2 -0.3
v -1.3 1.9 -0.3
v -1.3 1.9 -0.4
v -1.3 2 -0.1
v -1.3 2 -0.3
v -1.3 2 -0.4
v -1.3 2.1 -0.1
v -1.3 2.1 -0.3
v -1.2 1.9 -0.3
v -1.2 1.9 -0.4
v -1.2 2 -0.3
v -1.2 2 -0.4
v -0.6 1.9 -0.1
v -0.6 1.9 -0.3
v -0.6 2.1 -0.1
v -0.6 2.1 -0.3
v -1.4 1.9 -0.1
v -1.4 2 -0.1
v -1.3 2 -0.1
v -1.3 2.1 -0.1
v -0.6 1.9 -0.1
v -0.6 2.1 -0.1
v -1.4 1.9 -0.3
v -1.4 2 -0.3
v -1.3 1.9 -0.3
v -1.3 2 -0.3
v -1.3 2.1 -0.3
v -1.2 1.9 -0.3
v -1.2 2 -0.3
v -0.6 1.9 -0.3
v -0.6 2.1 -0.3
v -1.3 1.9 -0.4
v -1.3 2 -0.4
v -1.2 1.9 -0.4
v -1.2 2 -0.4
v -1.4 1.9 -0.1
v -0.6 1.9 -0.1
v -1.4 1.9 -0.3
v -1.3 1.9 -0.3
v -1.2 1.9 -0.3
v -0.6 1.9 -0.3
v -1.3 1.9 -0.4
v -1.2 1.9 -0.4
v -1.4 2 -0.1
v -1.3 2 -0.1
v -1.4 2 -0.3
v -1.3 2 -0.3
v -1.2 2 -0.3
v -1.3 2 -0.4
v -1.2 2 -0.4
v -1.3 2.1 -0.1
v -0.6 2.1 -0.1
v -1.3 2.1 -0.3
v -0.6 2.1 -0.3

# faces
f 3/1/1 2/1/1 1/1/1
f 4/1/1 2/1/1 3/1/1
f 8/1/1 6/1/1 5/1/1
f 9/1/1 6/1/1 8/1/1
f 10/1/1 8/1/1 7/1/1
f 11/1/1 8/1/1 10/1/1
f 12/1/2 13/1/2 14/1/2
f 14/1/2 13/1/2 15/1/2
f 16/1/2 17/1/2 18/1/2
f 18/1/2 17/1/2 19/1/2
f 22/1/3 21/1/3 20/1/3
f 24/1/3 22/1/3 20/1/3
f 24/1/3 23/1/3 22/1/3
f 25/1/3 23/1/3 24/1/3
f 26/1/4 27/1/4 28/1/4
f 28/1/4 27/1/4 29/1/4
f 29/1/4 30/1/4 32/1/4
f 31/1/4 32/1/4 33/1/4
f 32/1/4 30/1/4 34/1/4
f 33/1/4 32/1/4 34/1/4
f 35/1/4 36/1/4 37/1/4
f 37/1/4 36/1/4 38/1/4
f 41/1/5 40/1/5 39/1/5
f 42/1/5 40/1/5 41/1/5
f 43/1/5 40/1/5 42/1/5
f 44/1/5 40/1/5 43/1/5
f 45/1/5 43/1/5 42/1/5
f 46/1/5 43/1/5 45/1/5
f 47/1/6 48/1/6 49/1/6
f 49/1/6 48/1/6 50/1/6
f 50/1/6 51/1/6 52/1/6
f 52/1/6 51/1/6 53/1/6
f 54/1/6 55/1/6 56/1/6
f 56/1/6 55/1/6 57/1/6
