# MagicaVoxel @ Ephtracy

# group
o 

# material
mtllib JAMBES-L.mtl
usemtl palette

# normals
vn -1 0 0
vn 1 0 0
vn 0 0 1
vn 0 0 -1
vn 0 -1 0
vn 0 1 0

# texcoords
vt 0.169922 0.5
vt 0.224609 0.5
vt 0.451172 0.5

# verts
v -0.5 0.1 -0.1
v -0.5 0.1 -0.3
v -0.5 0.2 -0.1
v -0.5 0.2 -0.3
v -0.4 0 0
v -0.4 0 -0.5
v -0.4 0.1 0
v -0.4 0.1 -0.1
v -0.4 0.1 -0.3
v -0.4 0.1 -0.5
v -0.4 0.2 0
v -0.4 0.2 -0.1
v -0.4 0.2 -0.3
v -0.4 0.2 -0.4
v -0.4 0.2 -0.5
v -0.4 0.3 -0.3
v -0.4 0.3 -0.4
v -0.4 0.9 -0.1
v -0.4 0.9 -0.3
v -0.3 0.2 0
v -0.3 0.2 -0.1
v -0.3 0.3 0
v -0.3 0.3 -0.1
v -0.3 0.1 -0.1
v -0.3 0.1 -0.2
v -0.3 0.2 -0.1
v -0.3 0.2 -0.2
v -0.2 0 0
v -0.2 0 -0.5
v -0.2 0.1 0
v -0.2 0.1 -0.1
v -0.2 0.1 -0.2
v -0.2 0.1 -0.5
v -0.2 0.2 -0.1
v -0.2 0.2 -0.2
v -0.2 0.2 -0.4
v -0.2 0.2 -0.5
v -0.2 0.3 0
v -0.2 0.3 -0.1
v -0.2 0.3 -0.3
v -0.2 0.3 -0.4
v -0.2 0.9 -0.1
v -0.2 0.9 -0.3
v -0.4 0 0
v -0.4 0.1 0
v -0.4 0.2 0
v -0.3 0.2 0
v -0.3 0.3 0
v -0.2 0 0
v -0.2 0.1 0
v -0.2 0.3 0
v -0.5 0.1 -0.1
v -0.5 0.2 -0.1
v -0.4 0.1 -0.1
v -0.4 0.2 -0.1
v -0.4 0.9 -0.1
v -0.3 0.2 -0.1
v -0.3 0.3 -0.1
v -0.2 0.3 -0.1
v -0.2 0.9 -0.1
v -0.3 0.1 -0.2
v -0.3 0.2 -0.2
v -0.2 0.1 -0.2
v -0.2 0.2 -0.2
v -0.3 0.1 -0.1
v -0.3 0.2 -0.1
v -0.2 0.1 -0.1
v -0.2 0.2 -0.1
v -0.5 0.1 -0.3
v -0.5 0.2 -0.3
v -0.4 0.1 -0.3
v -0.4 0.2 -0.3
v -0.4 0.3 -0.3
v -0.4 0.9 -0.3
v -0.2 0.3 -0.3
v -0.2 0.9 -0.3
v -0.4 0.2 -0.4
v -0.4 0.3 -0.4
v -0.2 0.2 -0.4
v -0.2 0.3 -0.4
v -0.4 0 -0.5
v -0.4 0.1 -0.5
v -0.4 0.2 -0.5
v -0.2 0 -0.5
v -0.2 0.1 -0.5
v -0.2 0.2 -0.5
v -0.4 0 0
v -0.2 0 0
v -0.4 0 -0.5
v -0.2 0 -0.5
v -0.5 0.1 -0.1
v -0.4 0.1 -0.1
v -0.5 0.1 -0.3
v -0.4 0.1 -0.3
v -0.3 0.2 -0.1
v -0.2 0.2 -0.1
v -0.3 0.2 -0.2
v -0.2 0.2 -0.2
v -0.3 0.1 -0.1
v -0.2 0.1 -0.1
v -0.3 0.1 -0.2
v -0.2 0.1 -0.2
v -0.4 0.2 0
v -0.3 0.2 0
v -0.5 0.2 -0.1
v -0.4 0.2 -0.1
v -0.3 0.2 -0.1
v -0.5 0.2 -0.3
v -0.4 0.2 -0.3
v -0.4 0.2 -0.4
v -0.2 0.2 -0.4
v -0.4 0.2 -0.5
v -0.2 0.2 -0.5
v -0.3 0.3 0
v -0.2 0.3 0
v -0.3 0.3 -0.1
v -0.2 0.3 -0.1
v -0.4 0.3 -0.3
v -0.2 0.3 -0.3
v -0.4 0.3 -0.4
v -0.2 0.3 -0.4
v -0.4 0.9 -0.1
v -0.2 0.9 -0.1
v -0.4 0.9 -0.3
v -0.2 0.9 -0.3

# faces
f 3/3/1 2/3/1 1/3/1
f 4/3/1 2/3/1 3/3/1
f 7/2/1 6/2/1 5/2/1
f 8/2/1 6/2/1 7/2/1
f 9/2/1 6/2/1 8/2/1
f 10/2/1 6/2/1 9/2/1
f 11/3/1 8/3/1 7/3/1
f 12/3/1 8/3/1 11/3/1
f 13/1/1 10/1/1 9/1/1
f 14/1/1 10/1/1 13/1/1
f 15/1/1 10/1/1 14/1/1
f 16/3/1 13/3/1 12/3/1
f 16/3/1 14/3/1 13/3/1
f 17/3/1 14/3/1 16/3/1
f 18/3/1 16/3/1 12/3/1
f 19/3/1 16/3/1 18/3/1
f 22/3/1 21/3/1 20/3/1
f 23/3/1 21/3/1 22/3/1
f 24/3/2 25/3/2 26/3/2
f 26/3/2 25/3/2 27/3/2
f 28/2/2 29/2/2 30/2/2
f 30/2/2 29/2/2 31/2/2
f 31/2/2 29/2/2 32/2/2
f 32/2/2 29/2/2 33/2/2
f 30/3/2 31/3/2 34/3/2
f 32/1/2 33/1/2 35/1/2
f 35/1/2 33/1/2 36/1/2
f 36/1/2 33/1/2 37/1/2
f 30/3/2 34/3/2 38/3/2
f 34/3/2 35/3/2 38/3/2
f 35/3/2 36/3/2 38/3/2
f 38/3/2 36/3/2 39/3/2
f 39/3/2 36/3/2 40/3/2
f 40/3/2 36/3/2 41/3/2
f 39/3/2 40/3/2 42/3/2
f 42/3/2 40/3/2 43/3/2
f 47/3/3 46/3/3 45/3/3
f 49/2/3 45/2/3 44/2/3
f 50/3/3 48/3/3 47/3/3
f 50/2/3 45/2/3 49/2/3
f 50/3/3 47/3/3 45/3/3
f 51/3/3 48/3/3 50/3/3
f 54/3/3 53/3/3 52/3/3
f 55/3/3 53/3/3 54/3/3
f 57/3/3 56/3/3 55/3/3
f 58/3/3 56/3/3 57/3/3
f 59/3/3 56/3/3 58/3/3
f 60/3/3 56/3/3 59/3/3
f 63/1/3 62/1/3 61/1/3
f 64/1/3 62/1/3 63/1/3
f 65/3/4 66/3/4 67/3/4
f 67/3/4 66/3/4 68/3/4
f 69/3/4 70/3/4 71/3/4
f 71/3/4 70/3/4 72/3/4
f 73/3/4 74/3/4 75/3/4
f 75/3/4 74/3/4 76/3/4
f 77/3/4 78/3/4 79/3/4
f 79/3/4 78/3/4 80/3/4
f 81/2/4 82/2/4 84/2/4
f 82/1/4 83/1/4 85/1/4
f 84/2/4 82/2/4 85/2/4
f 85/1/4 83/1/4 86/1/4
f 89/2/5 88/2/5 87/2/5
f 90/2/5 88/2/5 89/2/5
f 93/3/5 92/3/5 91/3/5
f 94/3/5 92/3/5 93/3/5
f 97/3/5 96/3/5 95/3/5
f 98/3/5 96/3/5 97/3/5
f 99/2/6 100/2/6 101/2/6
f 101/2/6 100/2/6 102/2/6
f 103/3/6 104/3/6 106/3/6
f 106/3/6 104/3/6 107/3/6
f 105/3/6 106/3/6 108/3/6
f 108/3/6 106/3/6 109/3/6
f 110/1/6 111/1/6 112/1/6
f 112/1/6 111/1/6 113/1/6
f 114/3/6 115/3/6 116/3/6
f 116/3/6 115/3/6 117/3/6
f 118/3/6 119/3/6 120/3/6
f 120/3/6 119/3/6 121/3/6
f 122/3/6 123/3/6 124/3/6
f 124/3/6 123/3/6 125/3/6
