# MagicaVoxel @ Ephtracy

# group
o 

# material
mtllib TETE.mtl
usemtl palette

# normals
vn -1 0 0
vn 1 0 0
vn 0 0 1
vn 0 0 -1
vn 0 -1 0
vn 0 1 0

# texcoords
vt 0.0683594 0.5
vt 0.216797 0.5
vt 0.619141 0.5

# verts
v -0.6 1.9 0
v -0.6 1.9 -0.4
v -0.6 2 0.1
v -0.6 2 0
v -0.6 2.4 0.1
v -0.6 2.4 0
v -0.6 2.5 0
v -0.6 2.5 -0.4
v -0.5 1.9 0.2
v -0.5 1.9 0
v -0.5 1.9 -0.4
v -0.5 1.9 -0.5
v -0.5 2 0.1
v -0.5 2 0
v -0.5 2.2 -0.5
v -0.5 2.2 -0.6
v -0.5 2.4 0.2
v -0.5 2.4 0.1
v -0.5 2.4 0
v -0.5 2.4 -0.5
v -0.5 2.4 -0.6
v -0.5 2.5 0.1
v -0.5 2.5 0
v -0.5 2.5 -0.4
v -0.5 2.5 -0.5
v -0.5 2.6 0
v -0.5 2.6 -0.4
v -0.4 2.4 0.2
v -0.4 2.4 0.1
v -0.4 2.4 -0.5
v -0.4 2.4 -0.6
v -0.4 2.5 0.2
v -0.4 2.5 0.1
v -0.4 2.5 0
v -0.4 2.5 -0.4
v -0.4 2.5 -0.5
v -0.4 2.5 -0.6
v -0.4 2.6 0.1
v -0.4 2.6 0
v -0.4 2.6 -0.4
v -0.4 2.6 -0.5
v -0.4 2.7 0
v -0.4 2.7 -0.4
v -0.3 1.9 0.1
v -0.3 1.9 0
v -0.3 1.9 -0.4
v -0.3 1.9 -0.5
v -0.3 2 0.1
v -0.3 2 0
v -0.3 2 -0.4
v -0.3 2 -0.5
v -0.2 2 -0.5
v -0.2 2 -0.6
v -0.2 2.1 -0.5
v -0.2 2.1 -0.6
v 0.2 1.9 0.1
v 0.2 1.9 0
v 0.2 1.9 -0.4
v 0.2 1.9 -0.5
v 0.2 2 0.1
v 0.2 2 0
v 0.2 2 -0.4
v 0.2 2 -0.5
v 0.2 2.2 -0.5
v 0.2 2.2 -0.6
v 0.2 2.3 -0.5
v 0.2 2.3 -0.6
v -0.4 1.9 0.1
v -0.4 1.9 0
v -0.4 1.9 -0.4
v -0.4 1.9 -0.5
v -0.4 2 0.1
v -0.4 2 0
v -0.4 2 -0.4
v -0.4 2 -0.5
v -0.4 2.2 -0.5
v -0.4 2.2 -0.6
v -0.4 2.3 -0.5
v -0.4 2.3 -0.6
v -5.96046e-008 2 -0.5
v -5.96046e-008 2 -0.6
v -5.96046e-008 2.1 -0.5
v -5.96046e-008 2.1 -0.6
v 0.1 1.9 0.1
v 0.1 1.9 0
v 0.1 1.9 -0.4
v 0.1 1.9 -0.5
v 0.1 2 0.1
v 0.1 2 0
v 0.1 2 -0.4
v 0.1 2 -0.5
v 0.2 2.4 0.2
v 0.2 2.4 0.1
v 0.2 2.4 -0.5
v 0.2 2.4 -0.6
v 0.2 2.5 0.2
v 0.2 2.5 0.1
v 0.2 2.5 0
v 0.2 2.5 -0.4
v 0.2 2.5 -0.5
v 0.2 2.5 -0.6
v 0.2 2.6 0.1
v 0.2 2.6 0
v 0.2 2.6 -0.4
v 0.2 2.6 -0.5
v 0.2 2.7 0
v 0.2 2.7 -0.4
v 0.3 1.9 0.2
v 0.3 1.9 0
v 0.3 1.9 -0.4
v 0.3 1.9 -0.5
v 0.3 2 0.1
v 0.3 2 0
v 0.3 2.2 -0.5
v 0.3 2.2 -0.6
v 0.3 2.4 0.2
v 0.3 2.4 0.1
v 0.3 2.4 0
v 0.3 2.4 -0.5
v 0.3 2.4 -0.6
v 0.3 2.5 0.1
v 0.3 2.5 0
v 0.3 2.5 -0.4
v 0.3 2.5 -0.5
v 0.3 2.6 0
v 0.3 2.6 -0.4
v 0.4 1.9 0
v 0.4 1.9 -0.4
v 0.4 2 0.1
v 0.4 2 0
v 0.4 2.4 0.1
v 0.4 2.4 0
v 0.4 2.5 0
v 0.4 2.5 -0.4
v -0.5 1.9 0.2
v -0.5 2.4 0.2
v -0.4 2.4 0.2
v -0.4 2.5 0.2
v 0.2 2.4 0.2
v 0.2 2.5 0.2
v 0.3 1.9 0.2
v 0.3 2.4 0.2
v -0.6 2 0.1
v -0.6 2.4 0.1
v -0.5 2 0.1
v -0.5 2.4 0.1
v -0.5 2.5 0.1
v -0.4 2.4 0.1
v -0.4 2.5 0.1
v -0.4 2.6 0.1
v 0.2 2.4 0.1
v 0.2 2.5 0.1
v 0.2 2.6 0.1
v 0.3 2 0.1
v 0.3 2.4 0.1
v 0.3 2.5 0.1
v 0.4 2 0.1
v 0.4 2.4 0.1
v -0.6 1.9 0
v -0.6 2 0
v -0.6 2.4 0
v -0.6 2.5 0
v -0.5 1.9 0
v -0.5 2 0
v -0.5 2.4 0
v -0.5 2.5 0
v -0.5 2.6 0
v -0.4 1.9 0
v -0.4 2 0
v -0.4 2.5 0
v -0.4 2.6 0
v -0.4 2.7 0
v -0.3 1.9 0
v -0.3 2 0
v 0.1 1.9 0
v 0.1 2 0
v 0.2 1.9 0
v 0.2 2 0
v 0.2 2.5 0
v 0.2 2.6 0
v 0.2 2.7 0
v 0.3 1.9 0
v 0.3 2 0
v 0.3 2.4 0
v 0.3 2.5 0
v 0.3 2.6 0
v 0.4 1.9 0
v 0.4 2 0
v 0.4 2.4 0
v 0.4 2.5 0
v -0.4 1.9 0.1
v -0.4 2 0.1
v -0.3 1.9 0.1
v -0.3 2 0.1
v 0.1 1.9 0.1
v 0.1 2 0.1
v 0.2 1.9 0.1
v 0.2 2 0.1
v -0.6 1.9 -0.4
v -0.6 2.5 -0.4
v -0.5 1.9 -0.4
v -0.5 2.5 -0.4
v -0.5 2.6 -0.4
v -0.4 1.9 -0.4
v -0.4 2 -0.4
v -0.4 2.5 -0.4
v -0.4 2.6 -0.4
v -0.4 2.7 -0.4
v -0.3 1.9 -0.4
v -0.3 2 -0.4
v 0.1 1.9 -0.4
v 0.1 2 -0.4
v 0.2 1.9 -0.4
v 0.2 2 -0.4
v 0.2 2.5 -0.4
v 0.2 2.6 -0.4
v 0.2 2.7 -0.4
v 0.3 1.9 -0.4
v 0.3 2.5 -0.4
v 0.3 2.6 -0.4
v 0.4 1.9 -0.4
v 0.4 2.5 -0.4
v -0.5 1.9 -0.5
v -0.5 2.2 -0.5
v -0.5 2.4 -0.5
v -0.5 2.5 -0.5
v -0.4 1.9 -0.5
v -0.4 2 -0.5
v -0.4 2.2 -0.5
v -0.4 2.3 -0.5
v -0.4 2.4 -0.5
v -0.4 2.5 -0.5
v -0.4 2.6 -0.5
v -0.3 1.9 -0.5
v -0.3 2 -0.5
v -0.3 2.1 -0.5
v -0.3 2.2 -0.5
v -0.2 2 -0.5
v -0.2 2.1 -0.5
v -0.2 2.2 -0.5
v -5.96046e-008 2 -0.5
v -5.96046e-008 2.1 -0.5
v -5.96046e-008 2.2 -0.5
v 0.1 1.9 -0.5
v 0.1 2 -0.5
v 0.1 2.1 -0.5
v 0.1 2.2 -0.5
v 0.2 1.9 -0.5
v 0.2 2 -0.5
v 0.2 2.2 -0.5
v 0.2 2.3 -0.5
v 0.2 2.4 -0.5
v 0.2 2.5 -0.5
v 0.2 2.6 -0.5
v 0.3 1.9 -0.5
v 0.3 2.2 -0.5
v 0.3 2.4 -0.5
v 0.3 2.5 -0.5
v -0.5 2.2 -0.6
v -0.5 2.4 -0.6
v -0.4 2.2 -0.6
v -0.4 2.3 -0.6
v -0.4 2.4 -0.6
v -0.4 2.5 -0.6
v -0.2 2 -0.6
v -0.2 2.1 -0.6
v -5.96046e-008 2 -0.6
v -5.96046e-008 2.1 -0.6
v 0.2 2.2 -0.6
v 0.2 2.3 -0.6
v 0.2 2.4 -0.6
v 0.2 2.5 -0.6
v 0.3 2.2 -0.6
v 0.3 2.4 -0.6
v -0.5 1.9 0.2
v 0.3 1.9 0.2
v -0.4 1.9 0.1
v -0.3 1.9 0.1
v 0.1 1.9 0.1
v 0.2 1.9 0.1
v -0.6 1.9 0
v -0.5 1.9 0
v -0.4 1.9 0
v -0.3 1.9 0
v 0.1 1.9 0
v 0.2 1.9 0
v 0.3 1.9 0
v 0.4 1.9 0
v -0.6 1.9 -0.4
v -0.5 1.9 -0.4
v -0.4 1.9 -0.4
v -0.3 1.9 -0.4
v 0.1 1.9 -0.4
v 0.2 1.9 -0.4
v 0.3 1.9 -0.4
v 0.4 1.9 -0.4
v -0.5 1.9 -0.5
v -0.4 1.9 -0.5
v -0.3 1.9 -0.5
v 0.1 1.9 -0.5
v 0.2 1.9 -0.5
v 0.3 1.9 -0.5
v -0.6 2 0.1
v -0.5 2 0.1
v -0.4 2 0.1
v -0.3 2 0.1
v 0.1 2 0.1
v 0.2 2 0.1
v 0.3 2 0.1
v 0.4 2 0.1
v -0.6 2 0
v -0.5 2 0
v -0.4 2 0
v -0.3 2 0
v 0.1 2 0
v 0.2 2 0
v 0.3 2 0
v 0.4 2 0
v -0.4 2 -0.4
v -0.3 2 -0.4
v 0.1 2 -0.4
v 0.2 2 -0.4
v -0.4 2 -0.5
v -0.3 2 -0.5
v -0.2 2 -0.5
v -5.96046e-008 2 -0.5
v 0.1 2 -0.5
v 0.2 2 -0.5
v -0.2 2 -0.6
v -5.96046e-008 2 -0.6
v -0.5 2.2 -0.5
v -0.4 2.2 -0.5
v 0.2 2.2 -0.5
v 0.3 2.2 -0.5
v -0.5 2.2 -0.6
v -0.4 2.2 -0.6
v 0.2 2.2 -0.6
v 0.3 2.2 -0.6
v -0.4 2.3 -0.5
v 0.2 2.3 -0.5
v -0.4 2.3 -0.6
v 0.2 2.3 -0.6
v -0.2 2.1 -0.5
v -5.96046e-008 2.1 -0.5
v -0.2 2.1 -0.6
v -5.96046e-008 2.1 -0.6
v -0.5 2.4 0.2
v -0.4 2.4 0.2
v 0.2 2.4 0.2
v 0.3 2.4 0.2
v -0.6 2.4 0.1
v -0.5 2.4 0.1
v -0.4 2.4 0.1
v 0.2 2.4 0.1
v 0.3 2.4 0.1
v 0.4 2.4 0.1
v -0.6 2.4 0
v -0.5 2.4 0
v 0.3 2.4 0
v 0.4 2.4 0
v -0.5 2.4 -0.5
v -0.4 2.4 -0.5
v 0.2 2.4 -0.5
v 0.3 2.4 -0.5
v -0.5 2.4 -0.6
v -0.4 2.4 -0.6
v 0.2 2.4 -0.6
v 0.3 2.4 -0.6
v -0.4 2.5 0.2
v 0.2 2.5 0.2
v -0.5 2.5 0.1
v -0.4 2.5 0.1
v 0.2 2.5 0.1
v 0.3 2.5 0.1
v -0.6 2.5 0
v -0.5 2.5 0
v -0.4 2.5 0
v 0.2 2.5 0
v 0.3 2.5 0
v 0.4 2.5 0
v -0.6 2.5 -0.4
v -0.5 2.5 -0.4
v -0.4 2.5 -0.4
v 0.2 2.5 -0.4
v 0.3 2.5 -0.4
v 0.4 2.5 -0.4
v -0.5 2.5 -0.5
v -0.4 2.5 -0.5
v 0.2 2.5 -0.5
v 0.3 2.5 -0.5
v -0.4 2.5 -0.6
v 0.2 2.5 -0.6
v -0.4 2.6 0.1
v 0.2 2.6 0.1
v -0.5 2.6 0
v -0.4 2.6 0
v 0.2 2.6 0
v 0.3 2.6 0
v -0.5 2.6 -0.4
v -0.4 2.6 -0.4
v 0.2 2.6 -0.4
v 0.3 2.6 -0.4
v -0.4 2.6 -0.5
v 0.2 2.6 -0.5
v -0.4 2.7 0
v 0.2 2.7 0
v -0.4 2.7 -0.4
v 0.2 2.7 -0.4

# faces
f 4/2/1 2/2/1 1/2/1
f 5/2/1 4/2/1 3/2/1
f 6/2/1 2/2/1 4/2/1
f 6/2/1 4/2/1 5/2/1
f 7/2/1 2/2/1 6/2/1
f 8/2/1 2/2/1 7/2/1
f 13/2/1 10/2/1 9/2/1
f 14/2/1 10/2/1 13/2/1
f 15/2/1 12/2/1 11/2/1
f 17/2/1 13/2/1 9/2/1
f 18/2/1 13/2/1 17/2/1
f 20/2/1 16/2/1 15/2/1
f 20/2/1 15/2/1 11/2/1
f 21/2/1 16/2/1 20/2/1
f 22/2/1 19/2/1 18/2/1
f 23/2/1 19/2/1 22/2/1
f 24/2/1 20/2/1 11/2/1
f 25/2/1 20/2/1 24/2/1
f 26/2/1 24/2/1 23/2/1
f 27/2/1 24/2/1 26/2/1
f 32/2/1 29/2/1 28/2/1
f 33/2/1 29/2/1 32/2/1
f 36/2/1 31/2/1 30/2/1
f 37/2/1 31/2/1 36/2/1
f 38/2/1 34/2/1 33/2/1
f 39/2/1 34/2/1 38/2/1
f 40/2/1 36/2/1 35/2/1
f 41/2/1 36/2/1 40/2/1
f 42/2/1 40/2/1 39/2/1
f 43/2/1 40/2/1 42/2/1
f 48/1/1 45/1/1 44/1/1
f 49/1/1 45/1/1 48/1/1
f 50/1/1 47/1/1 46/1/1
f 51/1/1 47/1/1 50/1/1
f 54/1/1 53/1/1 52/1/1
f 55/1/1 53/1/1 54/1/1
f 60/2/1 57/2/1 56/2/1
f 61/2/1 57/2/1 60/2/1
f 62/2/1 59/2/1 58/2/1
f 63/2/1 59/2/1 62/2/1
f 66/2/1 65/2/1 64/2/1
f 67/2/1 65/2/1 66/2/1
f 68/2/2 69/2/2 72/2/2
f 72/2/2 69/2/2 73/2/2
f 70/2/2 71/2/2 74/2/2
f 74/2/2 71/2/2 75/2/2
f 76/2/2 77/2/2 78/2/2
f 78/2/2 77/2/2 79/2/2
f 80/1/2 81/1/2 82/1/2
f 82/1/2 81/1/2 83/1/2
f 84/1/2 85/1/2 88/1/2
f 88/1/2 85/1/2 89/1/2
f 86/1/2 87/1/2 90/1/2
f 90/1/2 87/1/2 91/1/2
f 92/2/2 93/2/2 96/2/2
f 96/2/2 93/2/2 97/2/2
f 94/2/2 95/2/2 100/2/2
f 100/2/2 95/2/2 101/2/2
f 97/2/2 98/2/2 102/2/2
f 102/2/2 98/2/2 103/2/2
f 99/2/2 100/2/2 104/2/2
f 104/2/2 100/2/2 105/2/2
f 103/2/2 104/2/2 106/2/2
f 106/2/2 104/2/2 107/2/2
f 108/2/2 109/2/2 112/2/2
f 112/2/2 109/2/2 113/2/2
f 110/2/2 111/2/2 114/2/2
f 108/2/2 112/2/2 116/2/2
f 116/2/2 112/2/2 117/2/2
f 114/2/2 115/2/2 119/2/2
f 110/2/2 114/2/2 119/2/2
f 119/2/2 115/2/2 120/2/2
f 117/2/2 118/2/2 121/2/2
f 121/2/2 118/2/2 122/2/2
f 110/2/2 119/2/2 123/2/2
f 123/2/2 119/2/2 124/2/2
f 122/2/2 123/2/2 125/2/2
f 125/2/2 123/2/2 126/2/2
f 127/2/2 128/2/2 130/2/2
f 129/2/2 130/2/2 131/2/2
f 130/2/2 128/2/2 132/2/2
f 131/2/2 130/2/2 132/2/2
f 132/2/2 128/2/2 133/2/2
f 133/2/2 128/2/2 134/2/2
f 137/2/3 136/2/3 135/2/3
f 139/2/3 137/2/3 135/2/3
f 139/2/3 138/2/3 137/2/3
f 140/2/3 138/2/3 139/2/3
f 141/2/3 139/2/3 135/2/3
f 142/2/3 139/2/3 141/2/3
f 145/2/3 144/2/3 143/2/3
f 146/2/3 144/2/3 145/2/3
f 148/2/3 147/2/3 146/2/3
f 149/2/3 147/2/3 148/2/3
f 152/2/3 150/2/3 149/2/3
f 153/2/3 150/2/3 152/2/3
f 155/2/3 152/2/3 151/2/3
f 156/2/3 152/2/3 155/2/3
f 157/2/3 155/2/3 154/2/3
f 158/2/3 155/2/3 157/2/3
f 163/2/3 160/2/3 159/2/3
f 164/2/3 160/2/3 163/2/3
f 165/2/3 162/2/3 161/2/3
f 166/2/3 162/2/3 165/2/3
f 170/2/3 167/2/3 166/2/3
f 171/2/3 167/2/3 170/2/3
f 173/1/3 169/1/3 168/1/3
f 174/1/3 169/1/3 173/1/3
f 177/1/3 176/1/3 175/1/3
f 178/1/3 176/1/3 177/1/3
f 180/2/3 172/2/3 171/2/3
f 181/2/3 172/2/3 180/2/3
f 185/2/3 180/2/3 179/2/3
f 186/2/3 180/2/3 185/2/3
f 187/2/3 183/2/3 182/2/3
f 188/2/3 183/2/3 187/2/3
f 189/2/3 185/2/3 184/2/3
f 190/2/3 185/2/3 189/2/3
f 191/2/4 192/2/4 193/2/4
f 193/2/4 192/2/4 194/2/4
f 195/2/4 196/2/4 197/2/4
f 197/2/4 196/2/4 198/2/4
f 199/2/4 200/2/4 201/2/4
f 201/2/4 200/2/4 202/2/4
f 202/2/4 203/2/4 206/2/4
f 206/2/4 203/2/4 207/2/4
f 204/1/4 205/1/4 209/1/4
f 209/1/4 205/1/4 210/1/4
f 211/1/4 212/1/4 213/1/4
f 213/1/4 212/1/4 214/1/4
f 207/2/4 208/2/4 216/2/4
f 216/2/4 208/2/4 217/2/4
f 215/2/4 216/2/4 219/2/4
f 219/2/4 216/2/4 220/2/4
f 218/2/4 219/2/4 221/2/4
f 221/2/4 219/2/4 222/2/4
f 223/2/4 224/2/4 227/2/4
f 227/2/4 224/2/4 228/2/4
f 228/2/4 224/2/4 229/2/4
f 225/2/4 226/2/4 231/2/4
f 231/2/4 226/2/4 232/2/4
f 229/1/4 230/1/4 235/1/4
f 228/1/4 229/1/4 235/1/4
f 235/1/4 230/1/4 236/1/4
f 236/1/4 230/1/4 237/1/4
f 234/1/4 235/1/4 238/1/4
f 235/1/4 236/1/4 238/1/4
f 236/3/4 237/3/4 239/3/4
f 238/1/4 236/1/4 239/1/4
f 237/1/4 230/1/4 240/1/4
f 239/3/4 237/3/4 240/3/4
f 234/1/4 238/1/4 241/1/4
f 239/1/4 240/1/4 242/1/4
f 240/1/4 230/1/4 243/1/4
f 242/1/4 240/1/4 243/1/4
f 241/1/4 242/1/4 244/1/4
f 234/1/4 241/1/4 244/1/4
f 244/1/4 242/1/4 245/1/4
f 242/3/4 243/3/4 246/3/4
f 245/1/4 242/1/4 246/1/4
f 243/1/4 230/1/4 247/1/4
f 246/3/4 243/3/4 247/3/4
f 245/1/4 246/1/4 249/1/4
f 246/1/4 247/1/4 249/1/4
f 247/1/4 230/1/4 250/1/4
f 249/1/4 247/1/4 250/1/4
f 250/1/4 230/1/4 251/1/4
f 232/2/4 233/2/4 253/2/4
f 253/2/4 233/2/4 254/2/4
f 248/2/4 249/2/4 255/2/4
f 249/2/4 250/2/4 255/2/4
f 255/2/4 250/2/4 256/2/4
f 252/2/4 253/2/4 257/2/4
f 257/2/4 253/2/4 258/2/4
f 259/2/4 260/2/4 261/2/4
f 261/2/4 260/2/4 262/2/4
f 262/2/4 260/2/4 263/2/4
f 265/1/4 266/1/4 267/1/4
f 267/1/4 266/1/4 268/1/4
f 263/2/4 264/2/4 270/2/4
f 262/2/4 263/2/4 270/2/4
f 270/2/4 264/2/4 271/2/4
f 271/2/4 264/2/4 272/2/4
f 269/2/4 270/2/4 273/2/4
f 270/2/4 271/2/4 273/2/4
f 273/2/4 271/2/4 274/2/4
f 277/2/5 276/2/5 275/2/5
f 278/2/5 276/2/5 277/2/5
f 279/2/5 276/2/5 278/2/5
f 280/2/5 276/2/5 279/2/5
f 282/2/5 277/2/5 275/2/5
f 283/2/5 277/2/5 282/2/5
f 284/1/5 279/1/5 278/1/5
f 285/1/5 279/1/5 284/1/5
f 286/2/5 276/2/5 280/2/5
f 287/2/5 276/2/5 286/2/5
f 289/2/5 283/2/5 282/2/5
f 289/2/5 282/2/5 281/2/5
f 290/2/5 283/2/5 289/2/5
f 291/1/5 285/1/5 284/1/5
f 291/2/5 283/2/5 290/2/5
f 291/1/5 284/1/5 283/1/5
f 291/1/5 286/1/5 285/1/5
f 292/1/5 286/1/5 291/1/5
f 293/1/5 286/1/5 292/1/5
f 294/2/5 288/2/5 287/2/5
f 294/1/5 286/1/5 293/1/5
f 294/2/5 287/2/5 286/2/5
f 295/2/5 288/2/5 294/2/5
f 296/2/5 288/2/5 295/2/5
f 297/2/5 291/2/5 290/2/5
f 298/2/5 291/2/5 297/2/5
f 299/1/5 293/1/5 292/1/5
f 300/1/5 293/1/5 299/1/5
f 301/2/5 295/2/5 294/2/5
f 302/2/5 295/2/5 301/2/5
f 311/2/5 304/2/5 303/2/5
f 312/2/5 304/2/5 311/2/5
f 313/1/5 306/1/5 305/1/5
f 314/1/5 306/1/5 313/1/5
f 315/1/5 308/1/5 307/1/5
f 316/1/5 308/1/5 315/1/5
f 317/2/5 310/2/5 309/2/5
f 318/2/5 310/2/5 317/2/5
f 323/1/5 320/1/5 319/1/5
f 324/1/5 320/1/5 323/1/5
f 327/1/5 322/1/5 321/1/5
f 328/1/5 322/1/5 327/1/5
f 329/1/5 326/1/5 325/1/5
f 330/1/5 326/1/5 329/1/5
f 335/2/5 332/2/5 331/2/5
f 336/2/5 332/2/5 335/2/5
f 337/2/5 334/2/5 333/2/5
f 338/2/5 334/2/5 337/2/5
f 341/2/5 340/2/5 339/2/5
f 342/2/5 340/2/5 341/2/5
f 343/1/6 344/1/6 345/1/6
f 345/1/6 344/1/6 346/1/6
f 347/2/6 348/2/6 352/2/6
f 352/2/6 348/2/6 353/2/6
f 349/2/6 350/2/6 354/2/6
f 354/2/6 350/2/6 355/2/6
f 351/2/6 352/2/6 357/2/6
f 357/2/6 352/2/6 358/2/6
f 355/2/6 356/2/6 359/2/6
f 359/2/6 356/2/6 360/2/6
f 361/2/6 362/2/6 365/2/6
f 365/2/6 362/2/6 366/2/6
f 363/2/6 364/2/6 367/2/6
f 367/2/6 364/2/6 368/2/6
f 369/2/6 370/2/6 372/2/6
f 372/2/6 370/2/6 373/2/6
f 371/2/6 372/2/6 376/2/6
f 376/2/6 372/2/6 377/2/6
f 373/2/6 374/2/6 378/2/6
f 378/2/6 374/2/6 379/2/6
f 375/2/6 376/2/6 381/2/6
f 381/2/6 376/2/6 382/2/6
f 379/2/6 380/2/6 385/2/6
f 385/2/6 380/2/6 386/2/6
f 382/2/6 383/2/6 387/2/6
f 387/2/6 383/2/6 388/2/6
f 384/2/6 385/2/6 389/2/6
f 389/2/6 385/2/6 390/2/6
f 388/2/6 389/2/6 391/2/6
f 391/2/6 389/2/6 392/2/6
f 393/2/6 394/2/6 396/2/6
f 396/2/6 394/2/6 397/2/6
f 395/2/6 396/2/6 399/2/6
f 399/2/6 396/2/6 400/2/6
f 397/2/6 398/2/6 401/2/6
f 401/2/6 398/2/6 402/2/6
f 400/2/6 401/2/6 403/2/6
f 403/2/6 401/2/6 404/2/6
f 405/2/6 406/2/6 407/2/6
f 407/2/6 406/2/6 408/2/6
