# MagicaVoxel @ Ephtracy

# group
o 

# material
mtllib TETE.mtl
usemtl palette

# normals
vn -1 0 0
vn 1 0 0
vn 0 0 1
vn 0 0 -1
vn 0 -1 0
vn 0 1 0

# texcoords
vt 0.0683594 0.5
vt 0.216797 0.5
vt 0.619141 0.5

# verts
v -0.6 1.9 0
v -0.6 1.9 -0.4
v -0.6 2 0.1
v -0.6 2 0
v -0.6 2.4 0.1
v -0.6 2.4 0
v -0.6 2.5 0
v -0.6 2.5 -0.4
v -0.5 1.9 0.2
v -0.5 1.9 0
v -0.5 1.9 -0.4
v -0.5 1.9 -0.5
v -0.5 2 0.1
v -0.5 2 0
v -0.5 2.2 -0.5
v -0.5 2.2 -0.6
v -0.5 2.4 0.2
v -0.5 2.4 0.1
v -0.5 2.4 0
v -0.5 2.4 -0.5
v -0.5 2.4 -0.6
v -0.5 2.5 0.1
v -0.5 2.5 0
v -0.5 2.5 -0.4
v -0.5 2.5 -0.5
v -0.5 2.6 0
v -0.5 2.6 -0.4
v -0.4 2.4 0.2
v -0.4 2.4 0.1
v -0.4 2.4 -0.5
v -0.4 2.4 -0.6
v -0.4 2.5 0.2
v -0.4 2.5 0.1
v -0.4 2.5 0
v -0.4 2.5 -0.4
v -0.4 2.5 -0.5
v -0.4 2.5 -0.6
v -0.4 2.6 0.1
v -0.4 2.6 0
v -0.4 2.6 -0.4
v -0.4 2.6 -0.5
v -0.4 2.7 0
v -0.4 2.7 -0.4
v -0.3 1.9 -0.1
v -0.3 1.9 -0.5
v -0.3 2 0
v -0.3 2 -0.1
v -0.3 2 -0.5
v -0.3 2.1 0.1
v -0.3 2.1 0
v -0.3 2.1 -0.1
v -0.3 2.2 0.1
v -0.3 2.2 0
v -0.2 1.9 0
v -0.2 1.9 -0.1
v -0.2 2 0.1
v -0.2 2 0
v -0.2 2 -0.1
v -0.2 2 -0.5
v -0.2 2 -0.6
v -0.2 2.1 0.1
v -0.2 2.1 0
v -0.2 2.1 -0.5
v -0.2 2.1 -0.6
v 0.2 1.9 0.1
v 0.2 1.9 -0.5
v 0.2 2 -0.1
v 0.2 2 -0.5
v 0.2 2.1 0
v 0.2 2.1 -0.1
v 0.2 2.2 0.1
v 0.2 2.2 0
v 0.2 2.2 -0.5
v 0.2 2.2 -0.6
v 0.2 2.3 -0.5
v 0.2 2.3 -0.6
v -0.4 1.9 0.1
v -0.4 1.9 -0.5
v -0.4 2 -0.1
v -0.4 2 -0.5
v -0.4 2.1 0
v -0.4 2.1 -0.1
v -0.4 2.2 0.1
v -0.4 2.2 0
v -0.4 2.2 -0.5
v -0.4 2.2 -0.6
v -0.4 2.3 -0.5
v -0.4 2.3 -0.6
v -5.96046e-008 1.9 0
v -5.96046e-008 1.9 -0.1
v -5.96046e-008 2 0.1
v -5.96046e-008 2 0
v -5.96046e-008 2 -0.1
v -5.96046e-008 2 -0.5
v -5.96046e-008 2 -0.6
v -5.96046e-008 2.1 0.1
v -5.96046e-008 2.1 0
v -5.96046e-008 2.1 -0.5
v -5.96046e-008 2.1 -0.6
v 0.1 1.9 -0.1
v 0.1 1.9 -0.5
v 0.1 2 0
v 0.1 2 -0.1
v 0.1 2 -0.5
v 0.1 2.1 0.1
v 0.1 2.1 0
v 0.1 2.1 -0.1
v 0.1 2.2 0.1
v 0.1 2.2 0
v 0.2 2.4 0.2
v 0.2 2.4 0.1
v 0.2 2.4 -0.5
v 0.2 2.4 -0.6
v 0.2 2.5 0.2
v 0.2 2.5 0.1
v 0.2 2.5 0
v 0.2 2.5 -0.4
v 0.2 2.5 -0.5
v 0.2 2.5 -0.6
v 0.2 2.6 0.1
v 0.2 2.6 0
v 0.2 2.6 -0.4
v 0.2 2.6 -0.5
v 0.2 2.7 0
v 0.2 2.7 -0.4
v 0.3 1.9 0.2
v 0.3 1.9 0
v 0.3 1.9 -0.4
v 0.3 1.9 -0.5
v 0.3 2 0.1
v 0.3 2 0
v 0.3 2.2 -0.5
v 0.3 2.2 -0.6
v 0.3 2.4 0.2
v 0.3 2.4 0.1
v 0.3 2.4 0
v 0.3 2.4 -0.5
v 0.3 2.4 -0.6
v 0.3 2.5 0.1
v 0.3 2.5 0
v 0.3 2.5 -0.4
v 0.3 2.5 -0.5
v 0.3 2.6 0
v 0.3 2.6 -0.4
v 0.4 1.9 0
v 0.4 1.9 -0.4
v 0.4 2 0.1
v 0.4 2 0
v 0.4 2.4 0.1
v 0.4 2.4 0
v 0.4 2.5 0
v 0.4 2.5 -0.4
v -0.5 1.9 0.2
v -0.5 2.4 0.2
v -0.4 2.4 0.2
v -0.4 2.5 0.2
v 0.2 2.4 0.2
v 0.2 2.5 0.2
v 0.3 1.9 0.2
v 0.3 2.4 0.2
v -0.6 2 0.1
v -0.6 2.4 0.1
v -0.5 2 0.1
v -0.5 2.4 0.1
v -0.5 2.5 0.1
v -0.4 2.4 0.1
v -0.4 2.5 0.1
v -0.4 2.6 0.1
v 0.2 2.4 0.1
v 0.2 2.5 0.1
v 0.2 2.6 0.1
v 0.3 2 0.1
v 0.3 2.4 0.1
v 0.3 2.5 0.1
v 0.4 2 0.1
v 0.4 2.4 0.1
v -0.6 1.9 0
v -0.6 2 0
v -0.6 2.4 0
v -0.6 2.5 0
v -0.5 1.9 0
v -0.5 2 0
v -0.5 2.4 0
v -0.5 2.5 0
v -0.5 2.6 0
v -0.4 2.1 0
v -0.4 2.2 0
v -0.4 2.5 0
v -0.4 2.6 0
v -0.4 2.7 0
v -0.3 2 0
v -0.3 2.1 0
v -0.3 2.2 0
v -0.2 1.9 0
v -0.2 2 0
v -0.2 2.1 0
v -5.96046e-008 1.9 0
v -5.96046e-008 2 0
v -5.96046e-008 2.1 0
v 0.1 2 0
v 0.1 2.1 0
v 0.1 2.2 0
v 0.2 2.1 0
v 0.2 2.2 0
v 0.2 2.5 0
v 0.2 2.6 0
v 0.2 2.7 0
v 0.3 1.9 0
v 0.3 2 0
v 0.3 2.4 0
v 0.3 2.5 0
v 0.3 2.6 0
v 0.4 1.9 0
v 0.4 2 0
v 0.4 2.4 0
v 0.4 2.5 0
v -0.4 2 -0.1
v -0.4 2.1 -0.1
v -0.3 1.9 -0.1
v -0.3 2 -0.1
v -0.3 2.1 -0.1
v -0.2 1.9 -0.1
v -0.2 2 -0.1
v -5.96046e-008 1.9 -0.1
v -5.96046e-008 2 -0.1
v 0.1 1.9 -0.1
v 0.1 2 -0.1
v 0.1 2.1 -0.1
v 0.2 2 -0.1
v 0.2 2.1 -0.1
v -0.4 1.9 0.1
v -0.4 2.2 0.1
v -0.3 2.1 0.1
v -0.3 2.2 0.1
v -0.2 2 0.1
v -0.2 2.1 0.1
v -5.96046e-008 2 0.1
v -5.96046e-008 2.1 0.1
v 0.1 2.1 0.1
v 0.1 2.2 0.1
v 0.2 1.9 0.1
v 0.2 2.2 0.1
v -0.6 1.9 -0.4
v -0.6 2.5 -0.4
v -0.5 1.9 -0.4
v -0.5 2.5 -0.4
v -0.5 2.6 -0.4
v -0.4 2.5 -0.4
v -0.4 2.6 -0.4
v -0.4 2.7 -0.4
v 0.2 2.5 -0.4
v 0.2 2.6 -0.4
v 0.2 2.7 -0.4
v 0.3 1.9 -0.4
v 0.3 2.5 -0.4
v 0.3 2.6 -0.4
v 0.4 1.9 -0.4
v 0.4 2.5 -0.4
v -0.5 1.9 -0.5
v -0.5 2.2 -0.5
v -0.5 2.4 -0.5
v -0.5 2.5 -0.5
v -0.4 1.9 -0.5
v -0.4 2 -0.5
v -0.4 2.2 -0.5
v -0.4 2.3 -0.5
v -0.4 2.4 -0.5
v -0.4 2.5 -0.5
v -0.4 2.6 -0.5
v -0.3 1.9 -0.5
v -0.3 2 -0.5
v -0.3 2.1 -0.5
v -0.3 2.2 -0.5
v -0.2 2 -0.5
v -0.2 2.1 -0.5
v -0.2 2.2 -0.5
v -5.96046e-008 2 -0.5
v -5.96046e-008 2.1 -0.5
v -5.96046e-008 2.2 -0.5
v 0.1 1.9 -0.5
v 0.1 2 -0.5
v 0.1 2.1 -0.5
v 0.1 2.2 -0.5
v 0.2 1.9 -0.5
v 0.2 2 -0.5
v 0.2 2.2 -0.5
v 0.2 2.3 -0.5
v 0.2 2.4 -0.5
v 0.2 2.5 -0.5
v 0.2 2.6 -0.5
v 0.3 1.9 -0.5
v 0.3 2.2 -0.5
v 0.3 2.4 -0.5
v 0.3 2.5 -0.5
v -0.5 2.2 -0.6
v -0.5 2.4 -0.6
v -0.4 2.2 -0.6
v -0.4 2.3 -0.6
v -0.4 2.4 -0.6
v -0.4 2.5 -0.6
v -0.2 2 -0.6
v -0.2 2.1 -0.6
v -5.96046e-008 2 -0.6
v -5.96046e-008 2.1 -0.6
v 0.2 2.2 -0.6
v 0.2 2.3 -0.6
v 0.2 2.4 -0.6
v 0.2 2.5 -0.6
v 0.3 2.2 -0.6
v 0.3 2.4 -0.6
v -0.5 1.9 0.2
v 0.3 1.9 0.2
v -0.4 1.9 0.1
v 0.2 1.9 0.1
v -0.6 1.9 0
v -0.5 1.9 0
v -0.2 1.9 0
v -5.96046e-008 1.9 0
v 0.3 1.9 0
v 0.4 1.9 0
v -0.3 1.9 -0.1
v -0.2 1.9 -0.1
v -5.96046e-008 1.9 -0.1
v 0.1 1.9 -0.1
v -0.6 1.9 -0.4
v -0.5 1.9 -0.4
v 0.3 1.9 -0.4
v 0.4 1.9 -0.4
v -0.5 1.9 -0.5
v -0.4 1.9 -0.5
v -0.3 1.9 -0.5
v 0.1 1.9 -0.5
v 0.2 1.9 -0.5
v 0.3 1.9 -0.5
v -0.6 2 0.1
v -0.5 2 0.1
v -0.2 2 0.1
v -5.96046e-008 2 0.1
v 0.3 2 0.1
v 0.4 2 0.1
v -0.6 2 0
v -0.5 2 0
v -0.3 2 0
v -0.2 2 0
v -5.96046e-008 2 0
v 0.1 2 0
v 0.3 2 0
v 0.4 2 0
v -0.4 2 -0.1
v -0.3 2 -0.1
v -0.2 2 -0.1
v -5.96046e-008 2 -0.1
v 0.1 2 -0.1
v 0.2 2 -0.1
v -0.4 2 -0.5
v -0.3 2 -0.5
v -0.2 2 -0.5
v -5.96046e-008 2 -0.5
v 0.1 2 -0.5
v 0.2 2 -0.5
v -0.2 2 -0.6
v -5.96046e-008 2 -0.6
v -0.3 2.1 0.1
v -0.2 2.1 0.1
v -5.96046e-008 2.1 0.1
v 0.1 2.1 0.1
v -0.4 2.1 0
v -0.3 2.1 0
v -0.2 2.1 0
v -5.96046e-008 2.1 0
v 0.1 2.1 0
v 0.2 2.1 0
v -0.4 2.1 -0.1
v -0.3 2.1 -0.1
v 0.1 2.1 -0.1
v 0.2 2.1 -0.1
v -0.4 2.2 0.1
v -0.3 2.2 0.1
v 0.1 2.2 0.1
v 0.2 2.2 0.1
v -0.4 2.2 0
v -0.3 2.2 0
v 0.1 2.2 0
v 0.2 2.2 0
v -0.5 2.2 -0.5
v -0.4 2.2 -0.5
v 0.2 2.2 -0.5
v 0.3 2.2 -0.5
v -0.5 2.2 -0.6
v -0.4 2.2 -0.6
v 0.2 2.2 -0.6
v 0.3 2.2 -0.6
v -0.4 2.3 -0.5
v 0.2 2.3 -0.5
v -0.4 2.3 -0.6
v 0.2 2.3 -0.6
v -0.2 2.1 -0.5
v -5.96046e-008 2.1 -0.5
v -0.2 2.1 -0.6
v -5.96046e-008 2.1 -0.6
v -0.5 2.4 0.2
v -0.4 2.4 0.2
v 0.2 2.4 0.2
v 0.3 2.4 0.2
v -0.6 2.4 0.1
v -0.5 2.4 0.1
v -0.4 2.4 0.1
v 0.2 2.4 0.1
v 0.3 2.4 0.1
v 0.4 2.4 0.1
v -0.6 2.4 0
v -0.5 2.4 0
v 0.3 2.4 0
v 0.4 2.4 0
v -0.5 2.4 -0.5
v -0.4 2.4 -0.5
v 0.2 2.4 -0.5
v 0.3 2.4 -0.5
v -0.5 2.4 -0.6
v -0.4 2.4 -0.6
v 0.2 2.4 -0.6
v 0.3 2.4 -0.6
v -0.4 2.5 0.2
v 0.2 2.5 0.2
v -0.5 2.5 0.1
v -0.4 2.5 0.1
v 0.2 2.5 0.1
v 0.3 2.5 0.1
v -0.6 2.5 0
v -0.5 2.5 0
v -0.4 2.5 0
v 0.2 2.5 0
v 0.3 2.5 0
v 0.4 2.5 0
v -0.6 2.5 -0.4
v -0.5 2.5 -0.4
v -0.4 2.5 -0.4
v 0.2 2.5 -0.4
v 0.3 2.5 -0.4
v 0.4 2.5 -0.4
v -0.5 2.5 -0.5
v -0.4 2.5 -0.5
v 0.2 2.5 -0.5
v 0.3 2.5 -0.5
v -0.4 2.5 -0.6
v 0.2 2.5 -0.6
v -0.4 2.6 0.1
v 0.2 2.6 0.1
v -0.5 2.6 0
v -0.4 2.6 0
v 0.2 2.6 0
v 0.3 2.6 0
v -0.5 2.6 -0.4
v -0.4 2.6 -0.4
v 0.2 2.6 -0.4
v 0.3 2.6 -0.4
v -0.4 2.6 -0.5
v 0.2 2.6 -0.5
v -0.4 2.7 0
v 0.2 2.7 0
v -0.4 2.7 -0.4
v 0.2 2.7 -0.4

# faces
f 4/2/1 2/2/1 1/2/1
f 5/2/1 4/2/1 3/2/1
f 6/2/1 2/2/1 4/2/1
f 6/2/1 4/2/1 5/2/1
f 7/2/1 2/2/1 6/2/1
f 8/2/1 2/2/1 7/2/1
f 13/2/1 10/2/1 9/2/1
f 14/2/1 10/2/1 13/2/1
f 15/2/1 12/2/1 11/2/1
f 17/2/1 13/2/1 9/2/1
f 18/2/1 13/2/1 17/2/1
f 20/2/1 16/2/1 15/2/1
f 20/2/1 15/2/1 11/2/1
f 21/2/1 16/2/1 20/2/1
f 22/2/1 19/2/1 18/2/1
f 23/2/1 19/2/1 22/2/1
f 24/2/1 20/2/1 11/2/1
f 25/2/1 20/2/1 24/2/1
f 26/2/1 24/2/1 23/2/1
f 27/2/1 24/2/1 26/2/1
f 32/2/1 29/2/1 28/2/1
f 33/2/1 29/2/1 32/2/1
f 36/2/1 31/2/1 30/2/1
f 37/2/1 31/2/1 36/2/1
f 38/2/1 34/2/1 33/2/1
f 39/2/1 34/2/1 38/2/1
f 40/2/1 36/2/1 35/2/1
f 41/2/1 36/2/1 40/2/1
f 42/2/1 40/2/1 39/2/1
f 43/2/1 40/2/1 42/2/1
f 47/1/1 45/1/1 44/1/1
f 48/1/1 45/1/1 47/1/1
f 50/1/1 47/1/1 46/1/1
f 51/1/1 47/1/1 50/1/1
f 52/1/1 50/1/1 49/1/1
f 53/1/1 50/1/1 52/1/1
f 57/1/1 55/1/1 54/1/1
f 58/1/1 55/1/1 57/1/1
f 61/1/1 57/1/1 56/1/1
f 62/1/1 57/1/1 61/1/1
f 63/1/1 60/1/1 59/1/1
f 64/1/1 60/1/1 63/1/1
f 67/2/1 66/2/1 65/2/1
f 68/2/1 66/2/1 67/2/1
f 69/2/1 67/2/1 65/2/1
f 70/2/1 67/2/1 69/2/1
f 71/2/1 69/2/1 65/2/1
f 72/2/1 69/2/1 71/2/1
f 75/2/1 74/2/1 73/2/1
f 76/2/1 74/2/1 75/2/1
f 77/2/2 78/2/2 79/2/2
f 79/2/2 78/2/2 80/2/2
f 77/2/2 79/2/2 81/2/2
f 81/2/2 79/2/2 82/2/2
f 77/2/2 81/2/2 83/2/2
f 83/2/2 81/2/2 84/2/2
f 85/2/2 86/2/2 87/2/2
f 87/2/2 86/2/2 88/2/2
f 89/1/2 90/1/2 92/1/2
f 92/1/2 90/1/2 93/1/2
f 91/1/2 92/1/2 96/1/2
f 96/1/2 92/1/2 97/1/2
f 94/1/2 95/1/2 98/1/2
f 98/1/2 95/1/2 99/1/2
f 100/1/2 101/1/2 103/1/2
f 103/1/2 101/1/2 104/1/2
f 102/1/2 103/1/2 106/1/2
f 106/1/2 103/1/2 107/1/2
f 105/1/2 106/1/2 108/1/2
f 108/1/2 106/1/2 109/1/2
f 110/2/2 111/2/2 114/2/2
f 114/2/2 111/2/2 115/2/2
f 112/2/2 113/2/2 118/2/2
f 118/2/2 113/2/2 119/2/2
f 115/2/2 116/2/2 120/2/2
f 120/2/2 116/2/2 121/2/2
f 117/2/2 118/2/2 122/2/2
f 122/2/2 118/2/2 123/2/2
f 121/2/2 122/2/2 124/2/2
f 124/2/2 122/2/2 125/2/2
f 126/2/2 127/2/2 130/2/2
f 130/2/2 127/2/2 131/2/2
f 128/2/2 129/2/2 132/2/2
f 126/2/2 130/2/2 134/2/2
f 134/2/2 130/2/2 135/2/2
f 132/2/2 133/2/2 137/2/2
f 128/2/2 132/2/2 137/2/2
f 137/2/2 133/2/2 138/2/2
f 135/2/2 136/2/2 139/2/2
f 139/2/2 136/2/2 140/2/2
f 128/2/2 137/2/2 141/2/2
f 141/2/2 137/2/2 142/2/2
f 140/2/2 141/2/2 143/2/2
f 143/2/2 141/2/2 144/2/2
f 145/2/2 146/2/2 148/2/2
f 147/2/2 148/2/2 149/2/2
f 148/2/2 146/2/2 150/2/2
f 149/2/2 148/2/2 150/2/2
f 150/2/2 146/2/2 151/2/2
f 151/2/2 146/2/2 152/2/2
f 155/2/3 154/2/3 153/2/3
f 157/2/3 155/2/3 153/2/3
f 157/2/3 156/2/3 155/2/3
f 158/2/3 156/2/3 157/2/3
f 159/2/3 157/2/3 153/2/3
f 160/2/3 157/2/3 159/2/3
f 163/2/3 162/2/3 161/2/3
f 164/2/3 162/2/3 163/2/3
f 166/2/3 165/2/3 164/2/3
f 167/2/3 165/2/3 166/2/3
f 170/2/3 168/2/3 167/2/3
f 171/2/3 168/2/3 170/2/3
f 173/2/3 170/2/3 169/2/3
f 174/2/3 170/2/3 173/2/3
f 175/2/3 173/2/3 172/2/3
f 176/2/3 173/2/3 175/2/3
f 181/2/3 178/2/3 177/2/3
f 182/2/3 178/2/3 181/2/3
f 183/2/3 180/2/3 179/2/3
f 184/2/3 180/2/3 183/2/3
f 188/2/3 185/2/3 184/2/3
f 189/2/3 185/2/3 188/2/3
f 192/1/3 187/1/3 186/1/3
f 193/1/3 187/1/3 192/1/3
f 195/1/3 192/1/3 191/1/3
f 196/1/3 192/1/3 195/1/3
f 197/1/3 195/1/3 194/1/3
f 198/1/3 195/1/3 197/1/3
f 200/1/3 199/1/3 198/1/3
f 201/1/3 199/1/3 200/1/3
f 203/1/3 202/1/3 201/1/3
f 204/1/3 202/1/3 203/1/3
f 206/2/3 190/2/3 189/2/3
f 207/2/3 190/2/3 206/2/3
f 211/2/3 206/2/3 205/2/3
f 212/2/3 206/2/3 211/2/3
f 213/2/3 209/2/3 208/2/3
f 214/2/3 209/2/3 213/2/3
f 215/2/3 211/2/3 210/2/3
f 216/2/3 211/2/3 215/2/3
f 220/1/3 218/1/3 217/1/3
f 221/1/3 218/1/3 220/1/3
f 222/1/3 220/1/3 219/1/3
f 223/1/3 220/1/3 222/1/3
f 226/1/3 225/1/3 224/1/3
f 227/1/3 225/1/3 226/1/3
f 229/1/3 228/1/3 227/1/3
f 230/1/3 228/1/3 229/1/3
f 231/2/4 232/2/4 233/2/4
f 233/2/4 232/2/4 234/2/4
f 231/2/4 233/2/4 235/2/4
f 235/2/4 233/2/4 236/2/4
f 231/2/4 235/2/4 237/2/4
f 237/2/4 238/2/4 239/2/4
f 237/2/4 239/2/4 241/2/4
f 239/2/4 240/2/4 241/2/4
f 231/2/4 237/2/4 241/2/4
f 241/2/4 240/2/4 242/2/4
f 243/2/4 244/2/4 245/2/4
f 245/2/4 244/2/4 246/2/4
f 246/2/4 247/2/4 248/2/4
f 248/2/4 247/2/4 249/2/4
f 249/2/4 250/2/4 252/2/4
f 252/2/4 250/2/4 253/2/4
f 251/2/4 252/2/4 255/2/4
f 255/2/4 252/2/4 256/2/4
f 254/2/4 255/2/4 257/2/4
f 257/2/4 255/2/4 258/2/4
f 259/2/4 260/2/4 263/2/4
f 263/2/4 260/2/4 264/2/4
f 264/2/4 260/2/4 265/2/4
f 261/2/4 262/2/4 267/2/4
f 267/2/4 262/2/4 268/2/4
f 265/1/4 266/1/4 271/1/4
f 264/1/4 265/1/4 271/1/4
f 271/1/4 266/1/4 272/1/4
f 272/1/4 266/1/4 273/1/4
f 270/1/4 271/1/4 274/1/4
f 271/1/4 272/1/4 274/1/4
f 272/3/4 273/3/4 275/3/4
f 274/1/4 272/1/4 275/1/4
f 273/1/4 266/1/4 276/1/4
f 275/3/4 273/3/4 276/3/4
f 270/1/4 274/1/4 277/1/4
f 275/1/4 276/1/4 278/1/4
f 276/1/4 266/1/4 279/1/4
f 278/1/4 276/1/4 279/1/4
f 277/1/4 278/1/4 280/1/4
f 270/1/4 277/1/4 280/1/4
f 280/1/4 278/1/4 281/1/4
f 278/3/4 279/3/4 282/3/4
f 281/1/4 278/1/4 282/1/4
f 279/1/4 266/1/4 283/1/4
f 282/3/4 279/3/4 283/3/4
f 281/1/4 282/1/4 285/1/4
f 282/1/4 283/1/4 285/1/4
f 283/1/4 266/1/4 286/1/4
f 285/1/4 283/1/4 286/1/4
f 286/1/4 266/1/4 287/1/4
f 268/2/4 269/2/4 289/2/4
f 289/2/4 269/2/4 290/2/4
f 284/2/4 285/2/4 291/2/4
f 285/2/4 286/2/4 291/2/4
f 291/2/4 286/2/4 292/2/4
f 288/2/4 289/2/4 293/2/4
f 293/2/4 289/2/4 294/2/4
f 295/2/4 296/2/4 297/2/4
f 297/2/4 296/2/4 298/2/4
f 298/2/4 296/2/4 299/2/4
f 301/1/4 302/1/4 303/1/4
f 303/1/4 302/1/4 304/1/4
f 299/2/4 300/2/4 306/2/4
f 298/2/4 299/2/4 306/2/4
f 306/2/4 300/2/4 307/2/4
f 307/2/4 300/2/4 308/2/4
f 305/2/4 306/2/4 309/2/4
f 306/2/4 307/2/4 309/2/4
f 309/2/4 307/2/4 310/2/4
f 313/2/5 312/2/5 311/2/5
f 314/2/5 312/2/5 313/2/5
f 316/2/5 313/2/5 311/2/5
f 319/2/5 312/2/5 314/2/5
f 322/1/5 318/1/5 317/1/5
f 323/1/5 318/1/5 322/1/5
f 325/2/5 316/2/5 315/2/5
f 326/2/5 313/2/5 316/2/5
f 326/2/5 316/2/5 325/2/5
f 327/2/5 320/2/5 319/2/5
f 327/2/5 319/2/5 314/2/5
f 328/2/5 320/2/5 327/2/5
f 329/2/5 313/2/5 326/2/5
f 330/2/5 313/2/5 329/2/5
f 331/1/5 324/1/5 323/1/5
f 331/1/5 322/1/5 321/1/5
f 331/1/5 323/1/5 322/1/5
f 332/1/5 324/1/5 331/1/5
f 333/2/5 327/2/5 314/2/5
f 334/2/5 327/2/5 333/2/5
f 341/2/5 336/2/5 335/2/5
f 342/2/5 336/2/5 341/2/5
f 344/1/5 338/1/5 337/1/5
f 345/1/5 338/1/5 344/1/5
f 347/2/5 340/2/5 339/2/5
f 348/2/5 340/2/5 347/2/5
f 350/1/5 344/1/5 343/1/5
f 351/1/5 344/1/5 350/1/5
f 352/1/5 346/1/5 345/1/5
f 353/1/5 346/1/5 352/1/5
f 355/1/5 350/1/5 349/1/5
f 356/1/5 350/1/5 355/1/5
f 359/1/5 354/1/5 353/1/5
f 360/1/5 354/1/5 359/1/5
f 361/1/5 358/1/5 357/1/5
f 362/1/5 358/1/5 361/1/5
f 368/1/5 364/1/5 363/1/5
f 369/1/5 364/1/5 368/1/5
f 370/1/5 366/1/5 365/1/5
f 371/1/5 366/1/5 370/1/5
f 373/1/5 368/1/5 367/1/5
f 374/1/5 368/1/5 373/1/5
f 375/1/5 372/1/5 371/1/5
f 376/1/5 372/1/5 375/1/5
f 381/1/5 378/1/5 377/1/5
f 382/1/5 378/1/5 381/1/5
f 383/1/5 380/1/5 379/1/5
f 384/1/5 380/1/5 383/1/5
f 389/2/5 386/2/5 385/2/5
f 390/2/5 386/2/5 389/2/5
f 391/2/5 388/2/5 387/2/5
f 392/2/5 388/2/5 391/2/5
f 395/2/5 394/2/5 393/2/5
f 396/2/5 394/2/5 395/2/5
f 397/1/6 398/1/6 399/1/6
f 399/1/6 398/1/6 400/1/6
f 401/2/6 402/2/6 406/2/6
f 406/2/6 402/2/6 407/2/6
f 403/2/6 404/2/6 408/2/6
f 408/2/6 404/2/6 409/2/6
f 405/2/6 406/2/6 411/2/6
f 411/2/6 406/2/6 412/2/6
f 409/2/6 410/2/6 413/2/6
f 413/2/6 410/2/6 414/2/6
f 415/2/6 416/2/6 419/2/6
f 419/2/6 416/2/6 420/2/6
f 417/2/6 418/2/6 421/2/6
f 421/2/6 418/2/6 422/2/6
f 423/2/6 424/2/6 426/2/6
f 426/2/6 424/2/6 427/2/6
f 425/2/6 426/2/6 430/2/6
f 430/2/6 426/2/6 431/2/6
f 427/2/6 428/2/6 432/2/6
f 432/2/6 428/2/6 433/2/6
f 429/2/6 430/2/6 435/2/6
f 435/2/6 430/2/6 436/2/6
f 433/2/6 434/2/6 439/2/6
f 439/2/6 434/2/6 440/2/6
f 436/2/6 437/2/6 441/2/6
f 441/2/6 437/2/6 442/2/6
f 438/2/6 439/2/6 443/2/6
f 443/2/6 439/2/6 444/2/6
f 442/2/6 443/2/6 445/2/6
f 445/2/6 443/2/6 446/2/6
f 447/2/6 448/2/6 450/2/6
f 450/2/6 448/2/6 451/2/6
f 449/2/6 450/2/6 453/2/6
f 453/2/6 450/2/6 454/2/6
f 451/2/6 452/2/6 455/2/6
f 455/2/6 452/2/6 456/2/6
f 454/2/6 455/2/6 457/2/6
f 457/2/6 455/2/6 458/2/6
f 459/2/6 460/2/6 461/2/6
f 461/2/6 460/2/6 462/2/6
